M48
; DRILL file {KiCad (5.1.9-0-10_14)} date Monday, April 26, 2021 at 07:29:56 PM
; FORMAT={-:-/ absolute / metric / decimal}
; #@! TF.CreationDate,2021-04-26T19:29:56+02:00
; #@! TF.GenerationSoftware,Kicad,Pcbnew,(5.1.9-0-10_14)
; #@! TF.FileFunction,Plated,1,2,PTH
FMAT,2
METRIC
T1C0.400
T2C0.510
T3C0.520
T4C0.600
T5C0.762
T6C1.000
T7C1.100
T8C1.200
%
G90
G05
T1
X77.75Y-61.625
X84.975Y-67.15
X85.475Y-62.025
X85.48Y-80.31
X85.8Y-57.5
X87.527Y-82.527
X89.05Y-81.28
X89.7Y-61.925
X90.5Y-93.7
X90.834Y-75.684
X91.4Y-83.528
X91.778Y-77.003
X92.418Y-82.814
X92.56Y-104.91
X92.75Y-78.0
X93.5Y-77.25
X93.5Y-83.5
X94.12Y-75.686
X94.237Y-78.987
X94.332Y-82.945
X94.595Y-100.155
X94.8Y-62.1
X95.7Y-94.7
X96.3Y-81.339
X96.5Y-56.5
X96.9Y-62.1
X98.0Y-108.75
X98.298Y-69.342
X99.06Y-68.58
X99.25Y-79.5
X99.5Y-94.5
X99.692Y-67.805
X99.862Y-74.888
X100.1Y-91.3
X100.417Y-62.0
X100.8Y-108.5
X101.0Y-79.5
X101.0Y-80.5
X101.25Y-76.75
X101.5Y-83.75
X102.0Y-76.0
X102.3Y-109.1
X102.5Y-94.1
X102.75Y-79.25
X103.25Y-103.275
X104.25Y-83.75
X104.4Y-108.475
X104.5Y-62.1
X104.759Y-95.641
X105.41Y-71.12
X106.3Y-62.1
X106.68Y-66.84
X106.75Y-103.75
X108.204Y-66.84
X108.75Y-81.75
X109.0Y-100.5
X109.728Y-66.84
X109.8Y-62.2
X111.41Y-79.58
X114.7Y-94.0
X114.808Y-68.797
X122.428Y-64.89
T5
X77.825Y-57.7
X81.225Y-57.7
T6
X76.95Y-86.83
X76.95Y-89.37
X76.95Y-91.91
X76.95Y-94.45
X79.49Y-86.83
X79.49Y-89.37
X79.49Y-91.91
X79.49Y-94.45
T7
X115.375Y-72.11
X115.375Y-74.61
X115.375Y-76.61
X115.375Y-79.11
X117.46Y-57.23
X117.46Y-59.77
X120.0Y-57.23
X120.0Y-59.77
X122.54Y-57.23
X122.54Y-59.77
T2
X78.425Y-69.96G85X78.175Y-69.96
G05
T3
X78.42Y-75.04G85X78.18Y-75.04
G05
T4
X83.85Y-77.975G85X82.95Y-77.975
G05
X83.85Y-79.975G85X82.95Y-79.975
G05
X83.85Y-81.975G85X82.95Y-81.975
G05
T8
X117.475Y-69.052G85X118.775Y-69.052
G05
X118.775Y-82.168G85X117.475Y-82.168
G05
T0
M30
