G04 #@! TF.GenerationSoftware,KiCad,Pcbnew,(5.1.9-0-10_14)*
G04 #@! TF.CreationDate,2021-04-26T19:25:28+02:00*
G04 #@! TF.ProjectId,Le_kube,4c655f6b-7562-4652-9e6b-696361645f70,rev?*
G04 #@! TF.SameCoordinates,Original*
G04 #@! TF.FileFunction,Legend,Top*
G04 #@! TF.FilePolarity,Positive*
%FSLAX46Y46*%
G04 Gerber Fmt 4.6, Leading zero omitted, Abs format (unit mm)*
G04 Created by KiCad (PCBNEW (5.1.9-0-10_14)) date 2021-04-26 19:25:28*
%MOMM*%
%LPD*%
G01*
G04 APERTURE LIST*
%ADD10C,0.200000*%
%ADD11C,0.254000*%
%ADD12C,0.120000*%
%ADD13C,0.500000*%
%ADD14C,0.100000*%
%ADD15C,0.400000*%
%ADD16C,0.300000*%
%ADD17O,3.500000X2.000000*%
%ADD18C,1.600000*%
%ADD19C,1.524000*%
%ADD20R,1.524000X1.524000*%
%ADD21R,0.351000X2.499000*%
%ADD22C,0.800000*%
%ADD23R,1.800000X1.800000*%
%ADD24C,1.800000*%
%ADD25R,2.200000X1.100000*%
%ADD26R,2.200000X3.500000*%
%ADD27R,6.200000X5.800000*%
%ADD28R,3.000000X1.600000*%
%ADD29O,2.000000X1.300000*%
%ADD30R,5.500000X2.000000*%
%ADD31O,0.600000X1.520000*%
%ADD32O,0.450000X1.650000*%
%ADD33O,1.650000X0.450000*%
%ADD34O,2.000000X1.200000*%
%ADD35C,1.300000*%
%ADD36R,1.000000X1.000000*%
G04 APERTURE END LIST*
D10*
X82110000Y-73060000D02*
X82620000Y-72060000D01*
D11*
X114308000Y-82201000D02*
X114308000Y-69001000D01*
X114333000Y-81338000D02*
X119540000Y-81338000D01*
X119540000Y-81338000D02*
X119540000Y-77477000D01*
X119540000Y-77477000D02*
X121471000Y-77477000D01*
X121471000Y-77477000D02*
X121471000Y-73768000D01*
X121471000Y-73768000D02*
X119591000Y-73768000D01*
X119591000Y-73768000D02*
X119591000Y-69831000D01*
X119591000Y-69831000D02*
X114308000Y-69831000D01*
D12*
X109542224Y-80362500D02*
X109032776Y-80362500D01*
X109542224Y-79317500D02*
X109032776Y-79317500D01*
X92937776Y-80747500D02*
X93447224Y-80747500D01*
X92937776Y-81792500D02*
X93447224Y-81792500D01*
X86032500Y-77792776D02*
X86032500Y-78302224D01*
X84987500Y-77792776D02*
X84987500Y-78302224D01*
D13*
X124150000Y-55900000D02*
G75*
G03*
X124150000Y-55900000I-250000J0D01*
G01*
D11*
X94858000Y-56000000D02*
X105058000Y-56000000D01*
X89250000Y-61250000D02*
X89250000Y-56000000D01*
X89250000Y-56000000D02*
X94000000Y-56000000D01*
X94000000Y-56000000D02*
X94000000Y-55000000D01*
D14*
G36*
X89750000Y-58500000D02*
G01*
X89750000Y-57750000D01*
X90500000Y-57750000D01*
X89750000Y-58500000D01*
G37*
X89750000Y-58500000D02*
X89750000Y-57750000D01*
X90500000Y-57750000D01*
X89750000Y-58500000D01*
D11*
X110750000Y-56000000D02*
X106000000Y-56000000D01*
X110750000Y-61250000D02*
X110750000Y-56000000D01*
X106000000Y-56000000D02*
X106000000Y-55000000D01*
D13*
X79722000Y-85179000D02*
G75*
G03*
X79722000Y-85179000I-232000J0D01*
G01*
D11*
X75450000Y-83330000D02*
X100150000Y-83330000D01*
X75450000Y-97730000D02*
X75450000Y-83330000D01*
X78324000Y-68200000D02*
X81924000Y-68200000D01*
X78324000Y-61100000D02*
X81924000Y-61100000D01*
X81924000Y-68200000D02*
X81924000Y-61100000D01*
X78324000Y-68200000D02*
X78324000Y-61100000D01*
D12*
X86290000Y-64396267D02*
X86290000Y-64103733D01*
X87310000Y-64396267D02*
X87310000Y-64103733D01*
X87790000Y-64396267D02*
X87790000Y-64103733D01*
X88810000Y-64396267D02*
X88810000Y-64103733D01*
X87660000Y-60728733D02*
X87660000Y-61021267D01*
X86640000Y-60728733D02*
X86640000Y-61021267D01*
X84790000Y-64396267D02*
X84790000Y-64103733D01*
X85810000Y-64396267D02*
X85810000Y-64103733D01*
X96022500Y-106245276D02*
X96022500Y-106754724D01*
X94977500Y-106245276D02*
X94977500Y-106754724D01*
D11*
X120943000Y-60723000D02*
X120943000Y-67277000D01*
X114746000Y-60723000D02*
X120943000Y-60723000D01*
X120943000Y-67277000D02*
X114746000Y-67277000D01*
X123051000Y-67810000D02*
G75*
G03*
X123051000Y-67810000I-296000J0D01*
G01*
X79378000Y-72500000D02*
G75*
G03*
X79378000Y-72500000I-1078000J0D01*
G01*
X81094000Y-72500000D02*
G75*
G03*
X81094000Y-72500000I-2794000J0D01*
G01*
X80840000Y-76600000D02*
X75760000Y-76600000D01*
X75760000Y-76600000D02*
X75760000Y-68400000D01*
X75760000Y-68400000D02*
X80840000Y-68400000D01*
X80840000Y-68400000D02*
X80840000Y-76600000D01*
X94685000Y-87943000D02*
X94685000Y-88959000D01*
X96971000Y-85530000D02*
X103829000Y-85530000D01*
X96971000Y-84768000D02*
X103829000Y-84768000D01*
X103829000Y-88070000D02*
X96971000Y-88070000D01*
X94939000Y-84387000D02*
X105861000Y-84387000D01*
X94685000Y-84641000D02*
X94685000Y-85657000D01*
X99765000Y-86800000D02*
X99384000Y-86800000D01*
X106115000Y-84641000D02*
X106115000Y-85657000D01*
X99765000Y-86800000D02*
X99765000Y-86165000D01*
X103829000Y-88832000D02*
X96971000Y-88832000D01*
X99765000Y-87435000D02*
X99765000Y-86800000D01*
X94939000Y-89213000D02*
X105861000Y-89213000D01*
X101035000Y-86800000D02*
X101416000Y-86800000D01*
X100654000Y-87435000D02*
X100654000Y-86165000D01*
X101035000Y-86800000D02*
X101035000Y-86165000D01*
X100654000Y-86165000D02*
X100146000Y-86165000D01*
X101035000Y-87435000D02*
X101035000Y-86800000D01*
X100146000Y-86165000D02*
X100146000Y-87435000D01*
X100146000Y-87435000D02*
X100654000Y-87435000D01*
X106115000Y-87943000D02*
X106115000Y-88959000D01*
X103828869Y-88831957D02*
G75*
G03*
X105509000Y-87943000I131J2031957D01*
G01*
X95290931Y-87942975D02*
G75*
G03*
X96971000Y-88832000I1680069J1142975D01*
G01*
X94939000Y-84387000D02*
G75*
G03*
X94685000Y-84641000I0J-254000D01*
G01*
X96970646Y-85529817D02*
G75*
G03*
X96417000Y-85657000I354J-1270183D01*
G01*
X96417399Y-87942990D02*
G75*
G03*
X96971000Y-88070000I553601J1142990D01*
G01*
X96971025Y-84768043D02*
G75*
G03*
X95291000Y-85657000I-25J-2031957D01*
G01*
X105509069Y-85657025D02*
G75*
G03*
X103829000Y-84768000I-1680069J-1142975D01*
G01*
X104382601Y-85657010D02*
G75*
G03*
X103829000Y-85530000I-553601J-1142990D01*
G01*
X103829354Y-88070183D02*
G75*
G03*
X104383000Y-87943000I-354J1270183D01*
G01*
X106115000Y-84641000D02*
G75*
G03*
X105861000Y-84387000I-254000J0D01*
G01*
X94685000Y-88959000D02*
G75*
G03*
X94939000Y-89213000I254000J0D01*
G01*
X105861000Y-89213000D02*
G75*
G03*
X106115000Y-88959000I0J254000D01*
G01*
X105990000Y-100100000D02*
X105990000Y-101200000D01*
X105990000Y-101200000D02*
X101000000Y-101200000D01*
X101000000Y-101200000D02*
X101000000Y-97829000D01*
X101000000Y-97829000D02*
X105990000Y-97829000D01*
X105990000Y-97829000D02*
X105990000Y-98920000D01*
X105989360Y-98919951D02*
G75*
G03*
X105990000Y-100100000I-44360J-590049D01*
G01*
X98990000Y-100100000D02*
X98990000Y-101200000D01*
X98990000Y-101200000D02*
X94000000Y-101200000D01*
X94000000Y-101200000D02*
X94000000Y-97829000D01*
X94000000Y-97829000D02*
X98990000Y-97829000D01*
X98990000Y-97829000D02*
X98990000Y-98920000D01*
X98989360Y-98919951D02*
G75*
G03*
X98990000Y-100100000I-44360J-590049D01*
G01*
X103447000Y-74770000D02*
X97547000Y-74770000D01*
X103447000Y-80670000D02*
X103447000Y-74770000D01*
X97547000Y-80670000D02*
X103447000Y-80670000D01*
X97547000Y-74770000D02*
X97547000Y-80670000D01*
D15*
X98297459Y-79719004D02*
G75*
G03*
X98300000Y-79719000I1541J-199996D01*
G01*
D16*
X96750461Y-81784005D02*
G75*
G03*
X96753000Y-81784000I1539J-149995D01*
G01*
D12*
X122745276Y-63231500D02*
X123254724Y-63231500D01*
X122745276Y-64276500D02*
X123254724Y-64276500D01*
X105977500Y-106754724D02*
X105977500Y-106245276D01*
X107022500Y-106754724D02*
X107022500Y-106245276D01*
X99477500Y-106754724D02*
X99477500Y-106245276D01*
X100522500Y-106754724D02*
X100522500Y-106245276D01*
X97977500Y-106754724D02*
X97977500Y-106245276D01*
X99022500Y-106754724D02*
X99022500Y-106245276D01*
X107078500Y-64295276D02*
X107078500Y-64804724D01*
X106033500Y-64295276D02*
X106033500Y-64804724D01*
X102272500Y-63495276D02*
X102272500Y-64004724D01*
X101227500Y-63495276D02*
X101227500Y-64004724D01*
X103772500Y-63495276D02*
X103772500Y-64004724D01*
X102727500Y-63495276D02*
X102727500Y-64004724D01*
X97745276Y-92727500D02*
X98254724Y-92727500D01*
X97745276Y-93772500D02*
X98254724Y-93772500D01*
X98254724Y-92272500D02*
X97745276Y-92272500D01*
X98254724Y-91227500D02*
X97745276Y-91227500D01*
X112727500Y-86067224D02*
X112727500Y-85557776D01*
X113772500Y-86067224D02*
X113772500Y-85557776D01*
X76052500Y-60967224D02*
X76052500Y-60457776D01*
X77097500Y-60967224D02*
X77097500Y-60457776D01*
D11*
X84416000Y-76927000D02*
X84416000Y-83023000D01*
X84416000Y-83023000D02*
X75272000Y-83023000D01*
X75272000Y-83023000D02*
X75272000Y-76927000D01*
X75272000Y-76927000D02*
X84416000Y-76927000D01*
X104050000Y-105500000D02*
X104050000Y-107500000D01*
X102450000Y-105500000D02*
X102450000Y-107500000D01*
X104050000Y-106149000D02*
X102450000Y-106149000D01*
D12*
X100990000Y-106646267D02*
X100990000Y-106353733D01*
X102010000Y-106646267D02*
X102010000Y-106353733D01*
X105510000Y-106353733D02*
X105510000Y-106646267D01*
X104490000Y-106353733D02*
X104490000Y-106646267D01*
X96490000Y-106646267D02*
X96490000Y-106353733D01*
X97510000Y-106646267D02*
X97510000Y-106353733D01*
X94510000Y-106353733D02*
X94510000Y-106646267D01*
X93490000Y-106353733D02*
X93490000Y-106646267D01*
X86240000Y-57646267D02*
X86240000Y-57353733D01*
X87260000Y-57646267D02*
X87260000Y-57353733D01*
X87740000Y-57646267D02*
X87740000Y-57353733D01*
X88760000Y-57646267D02*
X88760000Y-57353733D01*
X109046000Y-64696267D02*
X109046000Y-64403733D01*
X110066000Y-64696267D02*
X110066000Y-64403733D01*
X107546000Y-64696267D02*
X107546000Y-64403733D01*
X108566000Y-64696267D02*
X108566000Y-64403733D01*
X92490000Y-64396267D02*
X92490000Y-64103733D01*
X93510000Y-64396267D02*
X93510000Y-64103733D01*
X90760000Y-64103733D02*
X90760000Y-64396267D01*
X89740000Y-64103733D02*
X89740000Y-64396267D01*
X92490000Y-99646267D02*
X92490000Y-99353733D01*
X93510000Y-99646267D02*
X93510000Y-99353733D01*
X113760000Y-82353733D02*
X113760000Y-82646267D01*
X112740000Y-82353733D02*
X112740000Y-82646267D01*
X101853733Y-89740000D02*
X102146267Y-89740000D01*
X101853733Y-90760000D02*
X102146267Y-90760000D01*
X98146267Y-90760000D02*
X97853733Y-90760000D01*
X98146267Y-89740000D02*
X97853733Y-89740000D01*
X103103733Y-70240000D02*
X103396267Y-70240000D01*
X103103733Y-71260000D02*
X103396267Y-71260000D01*
D10*
X109120833Y-81722380D02*
X108787500Y-81246190D01*
X108549404Y-81722380D02*
X108549404Y-80722380D01*
X108930357Y-80722380D01*
X109025595Y-80770000D01*
X109073214Y-80817619D01*
X109120833Y-80912857D01*
X109120833Y-81055714D01*
X109073214Y-81150952D01*
X109025595Y-81198571D01*
X108930357Y-81246190D01*
X108549404Y-81246190D01*
X110025595Y-80722380D02*
X109549404Y-80722380D01*
X109501785Y-81198571D01*
X109549404Y-81150952D01*
X109644642Y-81103333D01*
X109882738Y-81103333D01*
X109977976Y-81150952D01*
X110025595Y-81198571D01*
X110073214Y-81293809D01*
X110073214Y-81531904D01*
X110025595Y-81627142D01*
X109977976Y-81674761D01*
X109882738Y-81722380D01*
X109644642Y-81722380D01*
X109549404Y-81674761D01*
X109501785Y-81627142D01*
X93025833Y-80292380D02*
X92692500Y-79816190D01*
X92454404Y-80292380D02*
X92454404Y-79292380D01*
X92835357Y-79292380D01*
X92930595Y-79340000D01*
X92978214Y-79387619D01*
X93025833Y-79482857D01*
X93025833Y-79625714D01*
X92978214Y-79720952D01*
X92930595Y-79768571D01*
X92835357Y-79816190D01*
X92454404Y-79816190D01*
X93882976Y-79625714D02*
X93882976Y-80292380D01*
X93644880Y-79244761D02*
X93406785Y-79959047D01*
X94025833Y-79959047D01*
X87023333Y-78667380D02*
X86690000Y-78191190D01*
X86451904Y-78667380D02*
X86451904Y-77667380D01*
X86832857Y-77667380D01*
X86928095Y-77715000D01*
X86975714Y-77762619D01*
X87023333Y-77857857D01*
X87023333Y-78000714D01*
X86975714Y-78095952D01*
X86928095Y-78143571D01*
X86832857Y-78191190D01*
X86451904Y-78191190D01*
X87356666Y-77667380D02*
X87975714Y-77667380D01*
X87642380Y-78048333D01*
X87785238Y-78048333D01*
X87880476Y-78095952D01*
X87928095Y-78143571D01*
X87975714Y-78238809D01*
X87975714Y-78476904D01*
X87928095Y-78572142D01*
X87880476Y-78619761D01*
X87785238Y-78667380D01*
X87499523Y-78667380D01*
X87404285Y-78619761D01*
X87356666Y-78572142D01*
X99913095Y-57052380D02*
X99913095Y-57861904D01*
X99960714Y-57957142D01*
X100008333Y-58004761D01*
X100103571Y-58052380D01*
X100294047Y-58052380D01*
X100389285Y-58004761D01*
X100436904Y-57957142D01*
X100484523Y-57861904D01*
X100484523Y-57052380D01*
X100913095Y-57147619D02*
X100960714Y-57100000D01*
X101055952Y-57052380D01*
X101294047Y-57052380D01*
X101389285Y-57100000D01*
X101436904Y-57147619D01*
X101484523Y-57242857D01*
X101484523Y-57338095D01*
X101436904Y-57480952D01*
X100865476Y-58052380D01*
X101484523Y-58052380D01*
X76543095Y-83952380D02*
X76543095Y-84761904D01*
X76590714Y-84857142D01*
X76638333Y-84904761D01*
X76733571Y-84952380D01*
X76924047Y-84952380D01*
X77019285Y-84904761D01*
X77066904Y-84857142D01*
X77114523Y-84761904D01*
X77114523Y-83952380D01*
X78019285Y-84285714D02*
X78019285Y-84952380D01*
X77781190Y-83904761D02*
X77543095Y-84619047D01*
X78162142Y-84619047D01*
X82149238Y-60552380D02*
X82482571Y-61552380D01*
X82815904Y-60552380D01*
X83720666Y-61552380D02*
X83387333Y-61076190D01*
X83149238Y-61552380D02*
X83149238Y-60552380D01*
X83530190Y-60552380D01*
X83625428Y-60600000D01*
X83673047Y-60647619D01*
X83720666Y-60742857D01*
X83720666Y-60885714D01*
X83673047Y-60980952D01*
X83625428Y-61028571D01*
X83530190Y-61076190D01*
X83149238Y-61076190D01*
X84673047Y-61552380D02*
X84101619Y-61552380D01*
X84387333Y-61552380D02*
X84387333Y-60552380D01*
X84292095Y-60695238D01*
X84196857Y-60790476D01*
X84101619Y-60838095D01*
X87632142Y-67966666D02*
X87679761Y-68014285D01*
X87727380Y-68157142D01*
X87727380Y-68252380D01*
X87679761Y-68395238D01*
X87584523Y-68490476D01*
X87489285Y-68538095D01*
X87298809Y-68585714D01*
X87155952Y-68585714D01*
X86965476Y-68538095D01*
X86870238Y-68490476D01*
X86775000Y-68395238D01*
X86727380Y-68252380D01*
X86727380Y-68157142D01*
X86775000Y-68014285D01*
X86822619Y-67966666D01*
X87727380Y-67538095D02*
X86727380Y-67538095D01*
X86727380Y-67157142D01*
X86775000Y-67061904D01*
X86822619Y-67014285D01*
X86917857Y-66966666D01*
X87060714Y-66966666D01*
X87155952Y-67014285D01*
X87203571Y-67061904D01*
X87251190Y-67157142D01*
X87251190Y-67538095D01*
X86727380Y-66347619D02*
X86727380Y-66252380D01*
X86775000Y-66157142D01*
X86822619Y-66109523D01*
X86917857Y-66061904D01*
X87108333Y-66014285D01*
X87346428Y-66014285D01*
X87536904Y-66061904D01*
X87632142Y-66109523D01*
X87679761Y-66157142D01*
X87727380Y-66252380D01*
X87727380Y-66347619D01*
X87679761Y-66442857D01*
X87632142Y-66490476D01*
X87536904Y-66538095D01*
X87346428Y-66585714D01*
X87108333Y-66585714D01*
X86917857Y-66538095D01*
X86822619Y-66490476D01*
X86775000Y-66442857D01*
X86727380Y-66347619D01*
X88857142Y-67942857D02*
X88904761Y-67990476D01*
X88952380Y-68133333D01*
X88952380Y-68228571D01*
X88904761Y-68371428D01*
X88809523Y-68466666D01*
X88714285Y-68514285D01*
X88523809Y-68561904D01*
X88380952Y-68561904D01*
X88190476Y-68514285D01*
X88095238Y-68466666D01*
X88000000Y-68371428D01*
X87952380Y-68228571D01*
X87952380Y-68133333D01*
X88000000Y-67990476D01*
X88047619Y-67942857D01*
X88952380Y-66990476D02*
X88952380Y-67561904D01*
X88952380Y-67276190D02*
X87952380Y-67276190D01*
X88095238Y-67371428D01*
X88190476Y-67466666D01*
X88238095Y-67561904D01*
X88380952Y-66419047D02*
X88333333Y-66514285D01*
X88285714Y-66561904D01*
X88190476Y-66609523D01*
X88142857Y-66609523D01*
X88047619Y-66561904D01*
X88000000Y-66514285D01*
X87952380Y-66419047D01*
X87952380Y-66228571D01*
X88000000Y-66133333D01*
X88047619Y-66085714D01*
X88142857Y-66038095D01*
X88190476Y-66038095D01*
X88285714Y-66085714D01*
X88333333Y-66133333D01*
X88380952Y-66228571D01*
X88380952Y-66419047D01*
X88428571Y-66514285D01*
X88476190Y-66561904D01*
X88571428Y-66609523D01*
X88761904Y-66609523D01*
X88857142Y-66561904D01*
X88904761Y-66514285D01*
X88952380Y-66419047D01*
X88952380Y-66228571D01*
X88904761Y-66133333D01*
X88857142Y-66085714D01*
X88761904Y-66038095D01*
X88571428Y-66038095D01*
X88476190Y-66085714D01*
X88428571Y-66133333D01*
X88380952Y-66228571D01*
X86232142Y-60891666D02*
X86279761Y-60939285D01*
X86327380Y-61082142D01*
X86327380Y-61177380D01*
X86279761Y-61320238D01*
X86184523Y-61415476D01*
X86089285Y-61463095D01*
X85898809Y-61510714D01*
X85755952Y-61510714D01*
X85565476Y-61463095D01*
X85470238Y-61415476D01*
X85375000Y-61320238D01*
X85327380Y-61177380D01*
X85327380Y-61082142D01*
X85375000Y-60939285D01*
X85422619Y-60891666D01*
X85422619Y-60510714D02*
X85375000Y-60463095D01*
X85327380Y-60367857D01*
X85327380Y-60129761D01*
X85375000Y-60034523D01*
X85422619Y-59986904D01*
X85517857Y-59939285D01*
X85613095Y-59939285D01*
X85755952Y-59986904D01*
X86327380Y-60558333D01*
X86327380Y-59939285D01*
X86432142Y-66966666D02*
X86479761Y-67014285D01*
X86527380Y-67157142D01*
X86527380Y-67252380D01*
X86479761Y-67395238D01*
X86384523Y-67490476D01*
X86289285Y-67538095D01*
X86098809Y-67585714D01*
X85955952Y-67585714D01*
X85765476Y-67538095D01*
X85670238Y-67490476D01*
X85575000Y-67395238D01*
X85527380Y-67252380D01*
X85527380Y-67157142D01*
X85575000Y-67014285D01*
X85622619Y-66966666D01*
X86527380Y-66014285D02*
X86527380Y-66585714D01*
X86527380Y-66300000D02*
X85527380Y-66300000D01*
X85670238Y-66395238D01*
X85765476Y-66490476D01*
X85813095Y-66585714D01*
X95952380Y-110342857D02*
X95476190Y-110676190D01*
X95952380Y-110914285D02*
X94952380Y-110914285D01*
X94952380Y-110533333D01*
X95000000Y-110438095D01*
X95047619Y-110390476D01*
X95142857Y-110342857D01*
X95285714Y-110342857D01*
X95380952Y-110390476D01*
X95428571Y-110438095D01*
X95476190Y-110533333D01*
X95476190Y-110914285D01*
X95952380Y-109390476D02*
X95952380Y-109961904D01*
X95952380Y-109676190D02*
X94952380Y-109676190D01*
X95095238Y-109771428D01*
X95190476Y-109866666D01*
X95238095Y-109961904D01*
X95285714Y-108533333D02*
X95952380Y-108533333D01*
X94904761Y-108771428D02*
X95619047Y-109009523D01*
X95619047Y-108390476D01*
X113302761Y-60491619D02*
X113207523Y-60444000D01*
X113112285Y-60348761D01*
X112969428Y-60205904D01*
X112874190Y-60158285D01*
X112778952Y-60158285D01*
X112826571Y-60396380D02*
X112731333Y-60348761D01*
X112636095Y-60253523D01*
X112588476Y-60063047D01*
X112588476Y-59729714D01*
X112636095Y-59539238D01*
X112731333Y-59444000D01*
X112826571Y-59396380D01*
X113017047Y-59396380D01*
X113112285Y-59444000D01*
X113207523Y-59539238D01*
X113255142Y-59729714D01*
X113255142Y-60063047D01*
X113207523Y-60253523D01*
X113112285Y-60348761D01*
X113017047Y-60396380D01*
X112826571Y-60396380D01*
X114207523Y-60396380D02*
X113636095Y-60396380D01*
X113921809Y-60396380D02*
X113921809Y-59396380D01*
X113826571Y-59539238D01*
X113731333Y-59634476D01*
X113636095Y-59682095D01*
X81720476Y-73004761D02*
X81863333Y-73052380D01*
X82101428Y-73052380D01*
X82196666Y-73004761D01*
X82244285Y-72957142D01*
X82291904Y-72861904D01*
X82291904Y-72766666D01*
X82244285Y-72671428D01*
X82196666Y-72623809D01*
X82101428Y-72576190D01*
X81910952Y-72528571D01*
X81815714Y-72480952D01*
X81768095Y-72433333D01*
X81720476Y-72338095D01*
X81720476Y-72242857D01*
X81768095Y-72147619D01*
X81815714Y-72100000D01*
X81910952Y-72052380D01*
X82149047Y-72052380D01*
X82291904Y-72100000D01*
X82625238Y-72052380D02*
X82863333Y-73052380D01*
X83053809Y-72338095D01*
X83244285Y-73052380D01*
X83482380Y-72052380D01*
X84387142Y-73052380D02*
X83815714Y-73052380D01*
X84101428Y-73052380D02*
X84101428Y-72052380D01*
X84006190Y-72195238D01*
X83910952Y-72290476D01*
X83815714Y-72338095D01*
X100258571Y-83276190D02*
X100258571Y-83752380D01*
X99925238Y-82752380D02*
X100258571Y-83276190D01*
X100591904Y-82752380D01*
X101449047Y-83752380D02*
X100877619Y-83752380D01*
X101163333Y-83752380D02*
X101163333Y-82752380D01*
X101068095Y-82895238D01*
X100972857Y-82990476D01*
X100877619Y-83038095D01*
X106312095Y-99020380D02*
X106312095Y-99829904D01*
X106359714Y-99925142D01*
X106407333Y-99972761D01*
X106502571Y-100020380D01*
X106693047Y-100020380D01*
X106788285Y-99972761D01*
X106835904Y-99925142D01*
X106883523Y-99829904D01*
X106883523Y-99020380D01*
X107264476Y-99020380D02*
X107883523Y-99020380D01*
X107550190Y-99401333D01*
X107693047Y-99401333D01*
X107788285Y-99448952D01*
X107835904Y-99496571D01*
X107883523Y-99591809D01*
X107883523Y-99829904D01*
X107835904Y-99925142D01*
X107788285Y-99972761D01*
X107693047Y-100020380D01*
X107407333Y-100020380D01*
X107312095Y-99972761D01*
X107264476Y-99925142D01*
X99200095Y-99020380D02*
X99200095Y-99829904D01*
X99247714Y-99925142D01*
X99295333Y-99972761D01*
X99390571Y-100020380D01*
X99581047Y-100020380D01*
X99676285Y-99972761D01*
X99723904Y-99925142D01*
X99771523Y-99829904D01*
X99771523Y-99020380D01*
X100771523Y-100020380D02*
X100200095Y-100020380D01*
X100485809Y-100020380D02*
X100485809Y-99020380D01*
X100390571Y-99163238D01*
X100295333Y-99258476D01*
X100200095Y-99306095D01*
X104000095Y-73112380D02*
X104000095Y-73921904D01*
X104047714Y-74017142D01*
X104095333Y-74064761D01*
X104190571Y-74112380D01*
X104381047Y-74112380D01*
X104476285Y-74064761D01*
X104523904Y-74017142D01*
X104571523Y-73921904D01*
X104571523Y-73112380D01*
X105238190Y-73112380D02*
X105333428Y-73112380D01*
X105428666Y-73160000D01*
X105476285Y-73207619D01*
X105523904Y-73302857D01*
X105571523Y-73493333D01*
X105571523Y-73731428D01*
X105523904Y-73921904D01*
X105476285Y-74017142D01*
X105428666Y-74064761D01*
X105333428Y-74112380D01*
X105238190Y-74112380D01*
X105142952Y-74064761D01*
X105095333Y-74017142D01*
X105047714Y-73921904D01*
X105000095Y-73731428D01*
X105000095Y-73493333D01*
X105047714Y-73302857D01*
X105095333Y-73207619D01*
X105142952Y-73160000D01*
X105238190Y-73112380D01*
X125792380Y-64252857D02*
X125316190Y-64586190D01*
X125792380Y-64824285D02*
X124792380Y-64824285D01*
X124792380Y-64443333D01*
X124840000Y-64348095D01*
X124887619Y-64300476D01*
X124982857Y-64252857D01*
X125125714Y-64252857D01*
X125220952Y-64300476D01*
X125268571Y-64348095D01*
X125316190Y-64443333D01*
X125316190Y-64824285D01*
X125792380Y-63300476D02*
X125792380Y-63871904D01*
X125792380Y-63586190D02*
X124792380Y-63586190D01*
X124935238Y-63681428D01*
X125030476Y-63776666D01*
X125078095Y-63871904D01*
X124792380Y-62395714D02*
X124792380Y-62871904D01*
X125268571Y-62919523D01*
X125220952Y-62871904D01*
X125173333Y-62776666D01*
X125173333Y-62538571D01*
X125220952Y-62443333D01*
X125268571Y-62395714D01*
X125363809Y-62348095D01*
X125601904Y-62348095D01*
X125697142Y-62395714D01*
X125744761Y-62443333D01*
X125792380Y-62538571D01*
X125792380Y-62776666D01*
X125744761Y-62871904D01*
X125697142Y-62919523D01*
X107052380Y-110370857D02*
X106576190Y-110704190D01*
X107052380Y-110942285D02*
X106052380Y-110942285D01*
X106052380Y-110561333D01*
X106100000Y-110466095D01*
X106147619Y-110418476D01*
X106242857Y-110370857D01*
X106385714Y-110370857D01*
X106480952Y-110418476D01*
X106528571Y-110466095D01*
X106576190Y-110561333D01*
X106576190Y-110942285D01*
X107052380Y-109418476D02*
X107052380Y-109989904D01*
X107052380Y-109704190D02*
X106052380Y-109704190D01*
X106195238Y-109799428D01*
X106290476Y-109894666D01*
X106338095Y-109989904D01*
X106052380Y-109085142D02*
X106052380Y-108466095D01*
X106433333Y-108799428D01*
X106433333Y-108656571D01*
X106480952Y-108561333D01*
X106528571Y-108513714D01*
X106623809Y-108466095D01*
X106861904Y-108466095D01*
X106957142Y-108513714D01*
X107004761Y-108561333D01*
X107052380Y-108656571D01*
X107052380Y-108942285D01*
X107004761Y-109037523D01*
X106957142Y-109085142D01*
X100552380Y-110242857D02*
X100076190Y-110576190D01*
X100552380Y-110814285D02*
X99552380Y-110814285D01*
X99552380Y-110433333D01*
X99600000Y-110338095D01*
X99647619Y-110290476D01*
X99742857Y-110242857D01*
X99885714Y-110242857D01*
X99980952Y-110290476D01*
X100028571Y-110338095D01*
X100076190Y-110433333D01*
X100076190Y-110814285D01*
X100552380Y-109290476D02*
X100552380Y-109861904D01*
X100552380Y-109576190D02*
X99552380Y-109576190D01*
X99695238Y-109671428D01*
X99790476Y-109766666D01*
X99838095Y-109861904D01*
X99647619Y-108909523D02*
X99600000Y-108861904D01*
X99552380Y-108766666D01*
X99552380Y-108528571D01*
X99600000Y-108433333D01*
X99647619Y-108385714D01*
X99742857Y-108338095D01*
X99838095Y-108338095D01*
X99980952Y-108385714D01*
X100552380Y-108957142D01*
X100552380Y-108338095D01*
X98952380Y-110242857D02*
X98476190Y-110576190D01*
X98952380Y-110814285D02*
X97952380Y-110814285D01*
X97952380Y-110433333D01*
X98000000Y-110338095D01*
X98047619Y-110290476D01*
X98142857Y-110242857D01*
X98285714Y-110242857D01*
X98380952Y-110290476D01*
X98428571Y-110338095D01*
X98476190Y-110433333D01*
X98476190Y-110814285D01*
X98952380Y-109290476D02*
X98952380Y-109861904D01*
X98952380Y-109576190D02*
X97952380Y-109576190D01*
X98095238Y-109671428D01*
X98190476Y-109766666D01*
X98238095Y-109861904D01*
X98952380Y-108338095D02*
X98952380Y-108909523D01*
X98952380Y-108623809D02*
X97952380Y-108623809D01*
X98095238Y-108719047D01*
X98190476Y-108814285D01*
X98238095Y-108909523D01*
X107052380Y-69242857D02*
X106576190Y-69576190D01*
X107052380Y-69814285D02*
X106052380Y-69814285D01*
X106052380Y-69433333D01*
X106100000Y-69338095D01*
X106147619Y-69290476D01*
X106242857Y-69242857D01*
X106385714Y-69242857D01*
X106480952Y-69290476D01*
X106528571Y-69338095D01*
X106576190Y-69433333D01*
X106576190Y-69814285D01*
X107052380Y-68290476D02*
X107052380Y-68861904D01*
X107052380Y-68576190D02*
X106052380Y-68576190D01*
X106195238Y-68671428D01*
X106290476Y-68766666D01*
X106338095Y-68861904D01*
X106052380Y-67671428D02*
X106052380Y-67576190D01*
X106100000Y-67480952D01*
X106147619Y-67433333D01*
X106242857Y-67385714D01*
X106433333Y-67338095D01*
X106671428Y-67338095D01*
X106861904Y-67385714D01*
X106957142Y-67433333D01*
X107004761Y-67480952D01*
X107052380Y-67576190D01*
X107052380Y-67671428D01*
X107004761Y-67766666D01*
X106957142Y-67814285D01*
X106861904Y-67861904D01*
X106671428Y-67909523D01*
X106433333Y-67909523D01*
X106242857Y-67861904D01*
X106147619Y-67814285D01*
X106100000Y-67766666D01*
X106052380Y-67671428D01*
X102306380Y-66714666D02*
X101830190Y-67048000D01*
X102306380Y-67286095D02*
X101306380Y-67286095D01*
X101306380Y-66905142D01*
X101354000Y-66809904D01*
X101401619Y-66762285D01*
X101496857Y-66714666D01*
X101639714Y-66714666D01*
X101734952Y-66762285D01*
X101782571Y-66809904D01*
X101830190Y-66905142D01*
X101830190Y-67286095D01*
X102306380Y-66238476D02*
X102306380Y-66048000D01*
X102258761Y-65952761D01*
X102211142Y-65905142D01*
X102068285Y-65809904D01*
X101877809Y-65762285D01*
X101496857Y-65762285D01*
X101401619Y-65809904D01*
X101354000Y-65857523D01*
X101306380Y-65952761D01*
X101306380Y-66143238D01*
X101354000Y-66238476D01*
X101401619Y-66286095D01*
X101496857Y-66333714D01*
X101734952Y-66333714D01*
X101830190Y-66286095D01*
X101877809Y-66238476D01*
X101925428Y-66143238D01*
X101925428Y-65952761D01*
X101877809Y-65857523D01*
X101830190Y-65809904D01*
X101734952Y-65762285D01*
X103830380Y-66714666D02*
X103354190Y-67048000D01*
X103830380Y-67286095D02*
X102830380Y-67286095D01*
X102830380Y-66905142D01*
X102878000Y-66809904D01*
X102925619Y-66762285D01*
X103020857Y-66714666D01*
X103163714Y-66714666D01*
X103258952Y-66762285D01*
X103306571Y-66809904D01*
X103354190Y-66905142D01*
X103354190Y-67286095D01*
X103258952Y-66143238D02*
X103211333Y-66238476D01*
X103163714Y-66286095D01*
X103068476Y-66333714D01*
X103020857Y-66333714D01*
X102925619Y-66286095D01*
X102878000Y-66238476D01*
X102830380Y-66143238D01*
X102830380Y-65952761D01*
X102878000Y-65857523D01*
X102925619Y-65809904D01*
X103020857Y-65762285D01*
X103068476Y-65762285D01*
X103163714Y-65809904D01*
X103211333Y-65857523D01*
X103258952Y-65952761D01*
X103258952Y-66143238D01*
X103306571Y-66238476D01*
X103354190Y-66286095D01*
X103449428Y-66333714D01*
X103639904Y-66333714D01*
X103735142Y-66286095D01*
X103782761Y-66238476D01*
X103830380Y-66143238D01*
X103830380Y-65952761D01*
X103782761Y-65857523D01*
X103735142Y-65809904D01*
X103639904Y-65762285D01*
X103449428Y-65762285D01*
X103354190Y-65809904D01*
X103306571Y-65857523D01*
X103258952Y-65952761D01*
X95083333Y-93670380D02*
X94750000Y-93194190D01*
X94511904Y-93670380D02*
X94511904Y-92670380D01*
X94892857Y-92670380D01*
X94988095Y-92718000D01*
X95035714Y-92765619D01*
X95083333Y-92860857D01*
X95083333Y-93003714D01*
X95035714Y-93098952D01*
X94988095Y-93146571D01*
X94892857Y-93194190D01*
X94511904Y-93194190D01*
X95416666Y-92670380D02*
X96083333Y-92670380D01*
X95654761Y-93670380D01*
X95083333Y-92146380D02*
X94750000Y-91670190D01*
X94511904Y-92146380D02*
X94511904Y-91146380D01*
X94892857Y-91146380D01*
X94988095Y-91194000D01*
X95035714Y-91241619D01*
X95083333Y-91336857D01*
X95083333Y-91479714D01*
X95035714Y-91574952D01*
X94988095Y-91622571D01*
X94892857Y-91670190D01*
X94511904Y-91670190D01*
X95940476Y-91146380D02*
X95750000Y-91146380D01*
X95654761Y-91194000D01*
X95607142Y-91241619D01*
X95511904Y-91384476D01*
X95464285Y-91574952D01*
X95464285Y-91955904D01*
X95511904Y-92051142D01*
X95559523Y-92098761D01*
X95654761Y-92146380D01*
X95845238Y-92146380D01*
X95940476Y-92098761D01*
X95988095Y-92051142D01*
X96035714Y-91955904D01*
X96035714Y-91717809D01*
X95988095Y-91622571D01*
X95940476Y-91574952D01*
X95845238Y-91527333D01*
X95654761Y-91527333D01*
X95559523Y-91574952D01*
X95511904Y-91622571D01*
X95464285Y-91717809D01*
X111333333Y-86177380D02*
X111000000Y-85701190D01*
X110761904Y-86177380D02*
X110761904Y-85177380D01*
X111142857Y-85177380D01*
X111238095Y-85225000D01*
X111285714Y-85272619D01*
X111333333Y-85367857D01*
X111333333Y-85510714D01*
X111285714Y-85605952D01*
X111238095Y-85653571D01*
X111142857Y-85701190D01*
X110761904Y-85701190D01*
X111714285Y-85272619D02*
X111761904Y-85225000D01*
X111857142Y-85177380D01*
X112095238Y-85177380D01*
X112190476Y-85225000D01*
X112238095Y-85272619D01*
X112285714Y-85367857D01*
X112285714Y-85463095D01*
X112238095Y-85605952D01*
X111666666Y-86177380D01*
X112285714Y-86177380D01*
X78133333Y-60627380D02*
X77800000Y-60151190D01*
X77561904Y-60627380D02*
X77561904Y-59627380D01*
X77942857Y-59627380D01*
X78038095Y-59675000D01*
X78085714Y-59722619D01*
X78133333Y-59817857D01*
X78133333Y-59960714D01*
X78085714Y-60055952D01*
X78038095Y-60103571D01*
X77942857Y-60151190D01*
X77561904Y-60151190D01*
X79085714Y-60627380D02*
X78514285Y-60627380D01*
X78800000Y-60627380D02*
X78800000Y-59627380D01*
X78704761Y-59770238D01*
X78609523Y-59865476D01*
X78514285Y-59913095D01*
X79254523Y-79477380D02*
X79254523Y-80191666D01*
X79206904Y-80334523D01*
X79111666Y-80429761D01*
X78968809Y-80477380D01*
X78873571Y-80477380D01*
X79635476Y-79477380D02*
X80254523Y-79477380D01*
X79921190Y-79858333D01*
X80064047Y-79858333D01*
X80159285Y-79905952D01*
X80206904Y-79953571D01*
X80254523Y-80048809D01*
X80254523Y-80286904D01*
X80206904Y-80382142D01*
X80159285Y-80429761D01*
X80064047Y-80477380D01*
X79778333Y-80477380D01*
X79683095Y-80429761D01*
X79635476Y-80382142D01*
X103830380Y-110048285D02*
X102830380Y-110048285D01*
X102830380Y-109810190D01*
X102878000Y-109667333D01*
X102973238Y-109572095D01*
X103068476Y-109524476D01*
X103258952Y-109476857D01*
X103401809Y-109476857D01*
X103592285Y-109524476D01*
X103687523Y-109572095D01*
X103782761Y-109667333D01*
X103830380Y-109810190D01*
X103830380Y-110048285D01*
X103830380Y-108524476D02*
X103830380Y-109095904D01*
X103830380Y-108810190D02*
X102830380Y-108810190D01*
X102973238Y-108905428D01*
X103068476Y-109000666D01*
X103116095Y-109095904D01*
X101757142Y-110292857D02*
X101804761Y-110340476D01*
X101852380Y-110483333D01*
X101852380Y-110578571D01*
X101804761Y-110721428D01*
X101709523Y-110816666D01*
X101614285Y-110864285D01*
X101423809Y-110911904D01*
X101280952Y-110911904D01*
X101090476Y-110864285D01*
X100995238Y-110816666D01*
X100900000Y-110721428D01*
X100852380Y-110578571D01*
X100852380Y-110483333D01*
X100900000Y-110340476D01*
X100947619Y-110292857D01*
X101852380Y-109340476D02*
X101852380Y-109911904D01*
X101852380Y-109626190D02*
X100852380Y-109626190D01*
X100995238Y-109721428D01*
X101090476Y-109816666D01*
X101138095Y-109911904D01*
X100852380Y-109007142D02*
X100852380Y-108340476D01*
X101852380Y-108769047D01*
X105513142Y-110878857D02*
X105560761Y-110926476D01*
X105608380Y-111069333D01*
X105608380Y-111164571D01*
X105560761Y-111307428D01*
X105465523Y-111402666D01*
X105370285Y-111450285D01*
X105179809Y-111497904D01*
X105036952Y-111497904D01*
X104846476Y-111450285D01*
X104751238Y-111402666D01*
X104656000Y-111307428D01*
X104608380Y-111164571D01*
X104608380Y-111069333D01*
X104656000Y-110926476D01*
X104703619Y-110878857D01*
X105608380Y-109926476D02*
X105608380Y-110497904D01*
X105608380Y-110212190D02*
X104608380Y-110212190D01*
X104751238Y-110307428D01*
X104846476Y-110402666D01*
X104894095Y-110497904D01*
X104608380Y-109069333D02*
X104608380Y-109259809D01*
X104656000Y-109355047D01*
X104703619Y-109402666D01*
X104846476Y-109497904D01*
X105036952Y-109545523D01*
X105417904Y-109545523D01*
X105513142Y-109497904D01*
X105560761Y-109450285D01*
X105608380Y-109355047D01*
X105608380Y-109164571D01*
X105560761Y-109069333D01*
X105513142Y-109021714D01*
X105417904Y-108974095D01*
X105179809Y-108974095D01*
X105084571Y-109021714D01*
X105036952Y-109069333D01*
X104989333Y-109164571D01*
X104989333Y-109355047D01*
X105036952Y-109450285D01*
X105084571Y-109497904D01*
X105179809Y-109545523D01*
X97357142Y-110342857D02*
X97404761Y-110390476D01*
X97452380Y-110533333D01*
X97452380Y-110628571D01*
X97404761Y-110771428D01*
X97309523Y-110866666D01*
X97214285Y-110914285D01*
X97023809Y-110961904D01*
X96880952Y-110961904D01*
X96690476Y-110914285D01*
X96595238Y-110866666D01*
X96500000Y-110771428D01*
X96452380Y-110628571D01*
X96452380Y-110533333D01*
X96500000Y-110390476D01*
X96547619Y-110342857D01*
X97452380Y-109390476D02*
X97452380Y-109961904D01*
X97452380Y-109676190D02*
X96452380Y-109676190D01*
X96595238Y-109771428D01*
X96690476Y-109866666D01*
X96738095Y-109961904D01*
X96452380Y-108485714D02*
X96452380Y-108961904D01*
X96928571Y-109009523D01*
X96880952Y-108961904D01*
X96833333Y-108866666D01*
X96833333Y-108628571D01*
X96880952Y-108533333D01*
X96928571Y-108485714D01*
X97023809Y-108438095D01*
X97261904Y-108438095D01*
X97357142Y-108485714D01*
X97404761Y-108533333D01*
X97452380Y-108628571D01*
X97452380Y-108866666D01*
X97404761Y-108961904D01*
X97357142Y-109009523D01*
X94357142Y-110342857D02*
X94404761Y-110390476D01*
X94452380Y-110533333D01*
X94452380Y-110628571D01*
X94404761Y-110771428D01*
X94309523Y-110866666D01*
X94214285Y-110914285D01*
X94023809Y-110961904D01*
X93880952Y-110961904D01*
X93690476Y-110914285D01*
X93595238Y-110866666D01*
X93500000Y-110771428D01*
X93452380Y-110628571D01*
X93452380Y-110533333D01*
X93500000Y-110390476D01*
X93547619Y-110342857D01*
X94452380Y-109390476D02*
X94452380Y-109961904D01*
X94452380Y-109676190D02*
X93452380Y-109676190D01*
X93595238Y-109771428D01*
X93690476Y-109866666D01*
X93738095Y-109961904D01*
X93785714Y-108533333D02*
X94452380Y-108533333D01*
X93404761Y-108771428D02*
X94119047Y-109009523D01*
X94119047Y-108390476D01*
X85182142Y-58417857D02*
X85229761Y-58465476D01*
X85277380Y-58608333D01*
X85277380Y-58703571D01*
X85229761Y-58846428D01*
X85134523Y-58941666D01*
X85039285Y-58989285D01*
X84848809Y-59036904D01*
X84705952Y-59036904D01*
X84515476Y-58989285D01*
X84420238Y-58941666D01*
X84325000Y-58846428D01*
X84277380Y-58703571D01*
X84277380Y-58608333D01*
X84325000Y-58465476D01*
X84372619Y-58417857D01*
X85277380Y-57465476D02*
X85277380Y-58036904D01*
X85277380Y-57751190D02*
X84277380Y-57751190D01*
X84420238Y-57846428D01*
X84515476Y-57941666D01*
X84563095Y-58036904D01*
X84277380Y-57132142D02*
X84277380Y-56513095D01*
X84658333Y-56846428D01*
X84658333Y-56703571D01*
X84705952Y-56608333D01*
X84753571Y-56560714D01*
X84848809Y-56513095D01*
X85086904Y-56513095D01*
X85182142Y-56560714D01*
X85229761Y-56608333D01*
X85277380Y-56703571D01*
X85277380Y-56989285D01*
X85229761Y-57084523D01*
X85182142Y-57132142D01*
X88807142Y-61142857D02*
X88854761Y-61190476D01*
X88902380Y-61333333D01*
X88902380Y-61428571D01*
X88854761Y-61571428D01*
X88759523Y-61666666D01*
X88664285Y-61714285D01*
X88473809Y-61761904D01*
X88330952Y-61761904D01*
X88140476Y-61714285D01*
X88045238Y-61666666D01*
X87950000Y-61571428D01*
X87902380Y-61428571D01*
X87902380Y-61333333D01*
X87950000Y-61190476D01*
X87997619Y-61142857D01*
X88902380Y-60190476D02*
X88902380Y-60761904D01*
X88902380Y-60476190D02*
X87902380Y-60476190D01*
X88045238Y-60571428D01*
X88140476Y-60666666D01*
X88188095Y-60761904D01*
X87997619Y-59809523D02*
X87950000Y-59761904D01*
X87902380Y-59666666D01*
X87902380Y-59428571D01*
X87950000Y-59333333D01*
X87997619Y-59285714D01*
X88092857Y-59238095D01*
X88188095Y-59238095D01*
X88330952Y-59285714D01*
X88902380Y-59857142D01*
X88902380Y-59238095D01*
X110007142Y-69217857D02*
X110054761Y-69265476D01*
X110102380Y-69408333D01*
X110102380Y-69503571D01*
X110054761Y-69646428D01*
X109959523Y-69741666D01*
X109864285Y-69789285D01*
X109673809Y-69836904D01*
X109530952Y-69836904D01*
X109340476Y-69789285D01*
X109245238Y-69741666D01*
X109150000Y-69646428D01*
X109102380Y-69503571D01*
X109102380Y-69408333D01*
X109150000Y-69265476D01*
X109197619Y-69217857D01*
X110102380Y-68265476D02*
X110102380Y-68836904D01*
X110102380Y-68551190D02*
X109102380Y-68551190D01*
X109245238Y-68646428D01*
X109340476Y-68741666D01*
X109388095Y-68836904D01*
X110102380Y-67313095D02*
X110102380Y-67884523D01*
X110102380Y-67598809D02*
X109102380Y-67598809D01*
X109245238Y-67694047D01*
X109340476Y-67789285D01*
X109388095Y-67884523D01*
X108457142Y-69242857D02*
X108504761Y-69290476D01*
X108552380Y-69433333D01*
X108552380Y-69528571D01*
X108504761Y-69671428D01*
X108409523Y-69766666D01*
X108314285Y-69814285D01*
X108123809Y-69861904D01*
X107980952Y-69861904D01*
X107790476Y-69814285D01*
X107695238Y-69766666D01*
X107600000Y-69671428D01*
X107552380Y-69528571D01*
X107552380Y-69433333D01*
X107600000Y-69290476D01*
X107647619Y-69242857D01*
X108552380Y-68290476D02*
X108552380Y-68861904D01*
X108552380Y-68576190D02*
X107552380Y-68576190D01*
X107695238Y-68671428D01*
X107790476Y-68766666D01*
X107838095Y-68861904D01*
X107552380Y-67671428D02*
X107552380Y-67576190D01*
X107600000Y-67480952D01*
X107647619Y-67433333D01*
X107742857Y-67385714D01*
X107933333Y-67338095D01*
X108171428Y-67338095D01*
X108361904Y-67385714D01*
X108457142Y-67433333D01*
X108504761Y-67480952D01*
X108552380Y-67576190D01*
X108552380Y-67671428D01*
X108504761Y-67766666D01*
X108457142Y-67814285D01*
X108361904Y-67861904D01*
X108171428Y-67909523D01*
X107933333Y-67909523D01*
X107742857Y-67861904D01*
X107647619Y-67814285D01*
X107600000Y-67766666D01*
X107552380Y-67671428D01*
X93407142Y-67041666D02*
X93454761Y-67089285D01*
X93502380Y-67232142D01*
X93502380Y-67327380D01*
X93454761Y-67470238D01*
X93359523Y-67565476D01*
X93264285Y-67613095D01*
X93073809Y-67660714D01*
X92930952Y-67660714D01*
X92740476Y-67613095D01*
X92645238Y-67565476D01*
X92550000Y-67470238D01*
X92502380Y-67327380D01*
X92502380Y-67232142D01*
X92550000Y-67089285D01*
X92597619Y-67041666D01*
X93502380Y-66565476D02*
X93502380Y-66375000D01*
X93454761Y-66279761D01*
X93407142Y-66232142D01*
X93264285Y-66136904D01*
X93073809Y-66089285D01*
X92692857Y-66089285D01*
X92597619Y-66136904D01*
X92550000Y-66184523D01*
X92502380Y-66279761D01*
X92502380Y-66470238D01*
X92550000Y-66565476D01*
X92597619Y-66613095D01*
X92692857Y-66660714D01*
X92930952Y-66660714D01*
X93026190Y-66613095D01*
X93073809Y-66565476D01*
X93121428Y-66470238D01*
X93121428Y-66279761D01*
X93073809Y-66184523D01*
X93026190Y-66136904D01*
X92930952Y-66089285D01*
X90682142Y-67066666D02*
X90729761Y-67114285D01*
X90777380Y-67257142D01*
X90777380Y-67352380D01*
X90729761Y-67495238D01*
X90634523Y-67590476D01*
X90539285Y-67638095D01*
X90348809Y-67685714D01*
X90205952Y-67685714D01*
X90015476Y-67638095D01*
X89920238Y-67590476D01*
X89825000Y-67495238D01*
X89777380Y-67352380D01*
X89777380Y-67257142D01*
X89825000Y-67114285D01*
X89872619Y-67066666D01*
X90205952Y-66495238D02*
X90158333Y-66590476D01*
X90110714Y-66638095D01*
X90015476Y-66685714D01*
X89967857Y-66685714D01*
X89872619Y-66638095D01*
X89825000Y-66590476D01*
X89777380Y-66495238D01*
X89777380Y-66304761D01*
X89825000Y-66209523D01*
X89872619Y-66161904D01*
X89967857Y-66114285D01*
X90015476Y-66114285D01*
X90110714Y-66161904D01*
X90158333Y-66209523D01*
X90205952Y-66304761D01*
X90205952Y-66495238D01*
X90253571Y-66590476D01*
X90301190Y-66638095D01*
X90396428Y-66685714D01*
X90586904Y-66685714D01*
X90682142Y-66638095D01*
X90729761Y-66590476D01*
X90777380Y-66495238D01*
X90777380Y-66304761D01*
X90729761Y-66209523D01*
X90682142Y-66161904D01*
X90586904Y-66114285D01*
X90396428Y-66114285D01*
X90301190Y-66161904D01*
X90253571Y-66209523D01*
X90205952Y-66304761D01*
X91019333Y-99857142D02*
X90971714Y-99904761D01*
X90828857Y-99952380D01*
X90733619Y-99952380D01*
X90590761Y-99904761D01*
X90495523Y-99809523D01*
X90447904Y-99714285D01*
X90400285Y-99523809D01*
X90400285Y-99380952D01*
X90447904Y-99190476D01*
X90495523Y-99095238D01*
X90590761Y-99000000D01*
X90733619Y-98952380D01*
X90828857Y-98952380D01*
X90971714Y-99000000D01*
X91019333Y-99047619D01*
X91352666Y-98952380D02*
X92019333Y-98952380D01*
X91590761Y-99952380D01*
X111308333Y-82107142D02*
X111260714Y-82154761D01*
X111117857Y-82202380D01*
X111022619Y-82202380D01*
X110879761Y-82154761D01*
X110784523Y-82059523D01*
X110736904Y-81964285D01*
X110689285Y-81773809D01*
X110689285Y-81630952D01*
X110736904Y-81440476D01*
X110784523Y-81345238D01*
X110879761Y-81250000D01*
X111022619Y-81202380D01*
X111117857Y-81202380D01*
X111260714Y-81250000D01*
X111308333Y-81297619D01*
X112165476Y-81202380D02*
X111975000Y-81202380D01*
X111879761Y-81250000D01*
X111832142Y-81297619D01*
X111736904Y-81440476D01*
X111689285Y-81630952D01*
X111689285Y-82011904D01*
X111736904Y-82107142D01*
X111784523Y-82154761D01*
X111879761Y-82202380D01*
X112070238Y-82202380D01*
X112165476Y-82154761D01*
X112213095Y-82107142D01*
X112260714Y-82011904D01*
X112260714Y-81773809D01*
X112213095Y-81678571D01*
X112165476Y-81630952D01*
X112070238Y-81583333D01*
X111879761Y-81583333D01*
X111784523Y-81630952D01*
X111736904Y-81678571D01*
X111689285Y-81773809D01*
X101833333Y-92051142D02*
X101785714Y-92098761D01*
X101642857Y-92146380D01*
X101547619Y-92146380D01*
X101404761Y-92098761D01*
X101309523Y-92003523D01*
X101261904Y-91908285D01*
X101214285Y-91717809D01*
X101214285Y-91574952D01*
X101261904Y-91384476D01*
X101309523Y-91289238D01*
X101404761Y-91194000D01*
X101547619Y-91146380D01*
X101642857Y-91146380D01*
X101785714Y-91194000D01*
X101833333Y-91241619D01*
X102738095Y-91146380D02*
X102261904Y-91146380D01*
X102214285Y-91622571D01*
X102261904Y-91574952D01*
X102357142Y-91527333D01*
X102595238Y-91527333D01*
X102690476Y-91574952D01*
X102738095Y-91622571D01*
X102785714Y-91717809D01*
X102785714Y-91955904D01*
X102738095Y-92051142D01*
X102690476Y-92098761D01*
X102595238Y-92146380D01*
X102357142Y-92146380D01*
X102261904Y-92098761D01*
X102214285Y-92051142D01*
X95083333Y-90527142D02*
X95035714Y-90574761D01*
X94892857Y-90622380D01*
X94797619Y-90622380D01*
X94654761Y-90574761D01*
X94559523Y-90479523D01*
X94511904Y-90384285D01*
X94464285Y-90193809D01*
X94464285Y-90050952D01*
X94511904Y-89860476D01*
X94559523Y-89765238D01*
X94654761Y-89670000D01*
X94797619Y-89622380D01*
X94892857Y-89622380D01*
X95035714Y-89670000D01*
X95083333Y-89717619D01*
X95940476Y-89955714D02*
X95940476Y-90622380D01*
X95702380Y-89574761D02*
X95464285Y-90289047D01*
X96083333Y-90289047D01*
X103083333Y-69677142D02*
X103035714Y-69724761D01*
X102892857Y-69772380D01*
X102797619Y-69772380D01*
X102654761Y-69724761D01*
X102559523Y-69629523D01*
X102511904Y-69534285D01*
X102464285Y-69343809D01*
X102464285Y-69200952D01*
X102511904Y-69010476D01*
X102559523Y-68915238D01*
X102654761Y-68820000D01*
X102797619Y-68772380D01*
X102892857Y-68772380D01*
X103035714Y-68820000D01*
X103083333Y-68867619D01*
X103416666Y-68772380D02*
X104035714Y-68772380D01*
X103702380Y-69153333D01*
X103845238Y-69153333D01*
X103940476Y-69200952D01*
X103988095Y-69248571D01*
X104035714Y-69343809D01*
X104035714Y-69581904D01*
X103988095Y-69677142D01*
X103940476Y-69724761D01*
X103845238Y-69772380D01*
X103559523Y-69772380D01*
X103464285Y-69724761D01*
X103416666Y-69677142D01*
%LPC*%
D17*
X118125000Y-69052000D03*
X118125000Y-82168000D03*
D18*
X115375000Y-72110000D03*
X115375000Y-74610000D03*
X115375000Y-76610000D03*
X115375000Y-79110000D03*
G36*
G01*
X108862500Y-79602500D02*
X108862500Y-80077500D01*
G75*
G02*
X108625000Y-80315000I-237500J0D01*
G01*
X108125000Y-80315000D01*
G75*
G02*
X107887500Y-80077500I0J237500D01*
G01*
X107887500Y-79602500D01*
G75*
G02*
X108125000Y-79365000I237500J0D01*
G01*
X108625000Y-79365000D01*
G75*
G02*
X108862500Y-79602500I0J-237500D01*
G01*
G37*
G36*
G01*
X110687500Y-79602500D02*
X110687500Y-80077500D01*
G75*
G02*
X110450000Y-80315000I-237500J0D01*
G01*
X109950000Y-80315000D01*
G75*
G02*
X109712500Y-80077500I0J237500D01*
G01*
X109712500Y-79602500D01*
G75*
G02*
X109950000Y-79365000I237500J0D01*
G01*
X110450000Y-79365000D01*
G75*
G02*
X110687500Y-79602500I0J-237500D01*
G01*
G37*
G36*
G01*
X93617500Y-81507500D02*
X93617500Y-81032500D01*
G75*
G02*
X93855000Y-80795000I237500J0D01*
G01*
X94355000Y-80795000D01*
G75*
G02*
X94592500Y-81032500I0J-237500D01*
G01*
X94592500Y-81507500D01*
G75*
G02*
X94355000Y-81745000I-237500J0D01*
G01*
X93855000Y-81745000D01*
G75*
G02*
X93617500Y-81507500I0J237500D01*
G01*
G37*
G36*
G01*
X91792500Y-81507500D02*
X91792500Y-81032500D01*
G75*
G02*
X92030000Y-80795000I237500J0D01*
G01*
X92530000Y-80795000D01*
G75*
G02*
X92767500Y-81032500I0J-237500D01*
G01*
X92767500Y-81507500D01*
G75*
G02*
X92530000Y-81745000I-237500J0D01*
G01*
X92030000Y-81745000D01*
G75*
G02*
X91792500Y-81507500I0J237500D01*
G01*
G37*
G36*
G01*
X85272500Y-78472500D02*
X85747500Y-78472500D01*
G75*
G02*
X85985000Y-78710000I0J-237500D01*
G01*
X85985000Y-79210000D01*
G75*
G02*
X85747500Y-79447500I-237500J0D01*
G01*
X85272500Y-79447500D01*
G75*
G02*
X85035000Y-79210000I0J237500D01*
G01*
X85035000Y-78710000D01*
G75*
G02*
X85272500Y-78472500I237500J0D01*
G01*
G37*
G36*
G01*
X85272500Y-76647500D02*
X85747500Y-76647500D01*
G75*
G02*
X85985000Y-76885000I0J-237500D01*
G01*
X85985000Y-77385000D01*
G75*
G02*
X85747500Y-77622500I-237500J0D01*
G01*
X85272500Y-77622500D01*
G75*
G02*
X85035000Y-77385000I0J237500D01*
G01*
X85035000Y-76885000D01*
G75*
G02*
X85272500Y-76647500I237500J0D01*
G01*
G37*
D19*
X117460000Y-59770000D03*
X117460000Y-57230000D03*
X120000000Y-59770000D03*
X120000000Y-57230000D03*
X122540000Y-59770000D03*
D20*
X122540000Y-57230000D03*
D21*
X110149000Y-59998000D03*
X109450000Y-59998000D03*
X108751000Y-59999000D03*
X108056000Y-60000000D03*
X107356000Y-60000000D03*
X106656000Y-60000000D03*
X105956000Y-60000000D03*
X105256000Y-60000000D03*
X104556000Y-60000000D03*
X103856000Y-60000000D03*
X103156000Y-60000000D03*
X102456000Y-60000000D03*
X101756000Y-60000000D03*
X101056000Y-60000000D03*
X100356000Y-60000000D03*
X99656000Y-60000000D03*
X98956000Y-60000000D03*
X98256000Y-60000000D03*
X97556000Y-60000000D03*
X96856000Y-60000000D03*
X96156000Y-60000000D03*
X95456000Y-60000000D03*
X94756000Y-60000000D03*
X94056000Y-60000000D03*
X93356000Y-60000000D03*
X92656000Y-60000000D03*
X91956000Y-60000000D03*
X91256000Y-60000000D03*
X90556000Y-60000000D03*
X89851000Y-60002000D03*
D22*
X108000000Y-56900000D03*
X92000000Y-56900000D03*
D23*
X79490000Y-86830000D03*
D24*
X79490000Y-89370000D03*
X79490000Y-91910000D03*
X79490000Y-94450000D03*
X76950000Y-86830000D03*
X76950000Y-89370000D03*
X76950000Y-91910000D03*
X76950000Y-94450000D03*
D25*
X83223000Y-66950000D03*
X83223000Y-64650000D03*
X83223000Y-62350000D03*
D26*
X77025000Y-64650000D03*
G36*
G01*
X87037500Y-63925000D02*
X86562500Y-63925000D01*
G75*
G02*
X86325000Y-63687500I0J237500D01*
G01*
X86325000Y-63087500D01*
G75*
G02*
X86562500Y-62850000I237500J0D01*
G01*
X87037500Y-62850000D01*
G75*
G02*
X87275000Y-63087500I0J-237500D01*
G01*
X87275000Y-63687500D01*
G75*
G02*
X87037500Y-63925000I-237500J0D01*
G01*
G37*
G36*
G01*
X87037500Y-65650000D02*
X86562500Y-65650000D01*
G75*
G02*
X86325000Y-65412500I0J237500D01*
G01*
X86325000Y-64812500D01*
G75*
G02*
X86562500Y-64575000I237500J0D01*
G01*
X87037500Y-64575000D01*
G75*
G02*
X87275000Y-64812500I0J-237500D01*
G01*
X87275000Y-65412500D01*
G75*
G02*
X87037500Y-65650000I-237500J0D01*
G01*
G37*
G36*
G01*
X88537500Y-63925000D02*
X88062500Y-63925000D01*
G75*
G02*
X87825000Y-63687500I0J237500D01*
G01*
X87825000Y-63087500D01*
G75*
G02*
X88062500Y-62850000I237500J0D01*
G01*
X88537500Y-62850000D01*
G75*
G02*
X88775000Y-63087500I0J-237500D01*
G01*
X88775000Y-63687500D01*
G75*
G02*
X88537500Y-63925000I-237500J0D01*
G01*
G37*
G36*
G01*
X88537500Y-65650000D02*
X88062500Y-65650000D01*
G75*
G02*
X87825000Y-65412500I0J237500D01*
G01*
X87825000Y-64812500D01*
G75*
G02*
X88062500Y-64575000I237500J0D01*
G01*
X88537500Y-64575000D01*
G75*
G02*
X88775000Y-64812500I0J-237500D01*
G01*
X88775000Y-65412500D01*
G75*
G02*
X88537500Y-65650000I-237500J0D01*
G01*
G37*
G36*
G01*
X86912500Y-61200000D02*
X87387500Y-61200000D01*
G75*
G02*
X87625000Y-61437500I0J-237500D01*
G01*
X87625000Y-62037500D01*
G75*
G02*
X87387500Y-62275000I-237500J0D01*
G01*
X86912500Y-62275000D01*
G75*
G02*
X86675000Y-62037500I0J237500D01*
G01*
X86675000Y-61437500D01*
G75*
G02*
X86912500Y-61200000I237500J0D01*
G01*
G37*
G36*
G01*
X86912500Y-59475000D02*
X87387500Y-59475000D01*
G75*
G02*
X87625000Y-59712500I0J-237500D01*
G01*
X87625000Y-60312500D01*
G75*
G02*
X87387500Y-60550000I-237500J0D01*
G01*
X86912500Y-60550000D01*
G75*
G02*
X86675000Y-60312500I0J237500D01*
G01*
X86675000Y-59712500D01*
G75*
G02*
X86912500Y-59475000I237500J0D01*
G01*
G37*
G36*
G01*
X85537500Y-63925000D02*
X85062500Y-63925000D01*
G75*
G02*
X84825000Y-63687500I0J237500D01*
G01*
X84825000Y-63087500D01*
G75*
G02*
X85062500Y-62850000I237500J0D01*
G01*
X85537500Y-62850000D01*
G75*
G02*
X85775000Y-63087500I0J-237500D01*
G01*
X85775000Y-63687500D01*
G75*
G02*
X85537500Y-63925000I-237500J0D01*
G01*
G37*
G36*
G01*
X85537500Y-65650000D02*
X85062500Y-65650000D01*
G75*
G02*
X84825000Y-65412500I0J237500D01*
G01*
X84825000Y-64812500D01*
G75*
G02*
X85062500Y-64575000I237500J0D01*
G01*
X85537500Y-64575000D01*
G75*
G02*
X85775000Y-64812500I0J-237500D01*
G01*
X85775000Y-65412500D01*
G75*
G02*
X85537500Y-65650000I-237500J0D01*
G01*
G37*
G36*
G01*
X95262500Y-106925000D02*
X95737500Y-106925000D01*
G75*
G02*
X95975000Y-107162500I0J-237500D01*
G01*
X95975000Y-107662500D01*
G75*
G02*
X95737500Y-107900000I-237500J0D01*
G01*
X95262500Y-107900000D01*
G75*
G02*
X95025000Y-107662500I0J237500D01*
G01*
X95025000Y-107162500D01*
G75*
G02*
X95262500Y-106925000I237500J0D01*
G01*
G37*
G36*
G01*
X95262500Y-105100000D02*
X95737500Y-105100000D01*
G75*
G02*
X95975000Y-105337500I0J-237500D01*
G01*
X95975000Y-105837500D01*
G75*
G02*
X95737500Y-106075000I-237500J0D01*
G01*
X95262500Y-106075000D01*
G75*
G02*
X95025000Y-105837500I0J237500D01*
G01*
X95025000Y-105337500D01*
G75*
G02*
X95262500Y-105100000I237500J0D01*
G01*
G37*
D27*
X115660000Y-64025000D03*
D28*
X122840000Y-61710000D03*
X122840000Y-66290000D03*
D29*
X78300000Y-75040000D03*
X78300000Y-69960000D03*
D30*
X105150000Y-86800000D03*
X95650000Y-86800000D03*
D31*
X105405000Y-96760000D03*
X104135000Y-96760000D03*
X102865000Y-96760000D03*
X101595000Y-96760000D03*
X105405000Y-102240000D03*
X104135000Y-102240000D03*
X102865000Y-102240000D03*
X101595000Y-102240000D03*
X98405000Y-96760000D03*
X97135000Y-96760000D03*
X95865000Y-96760000D03*
X94595000Y-96760000D03*
X98405000Y-102240000D03*
X97135000Y-102240000D03*
X95865000Y-102240000D03*
X94595000Y-102240000D03*
D32*
X97693000Y-82089000D03*
X98493000Y-82089000D03*
X99293000Y-82089000D03*
X100093000Y-82089000D03*
X100891000Y-82089000D03*
X101691000Y-82089000D03*
X102491000Y-82089000D03*
X103291000Y-82089000D03*
D33*
X104891000Y-80524000D03*
X104891000Y-79724000D03*
X104891000Y-78924000D03*
X104891000Y-78124000D03*
X104891000Y-77326000D03*
X104891000Y-76526000D03*
X104891000Y-75726000D03*
X104891000Y-74926000D03*
D32*
X103301000Y-73351000D03*
X102501000Y-73351000D03*
X101701000Y-73351000D03*
X100901000Y-73351000D03*
X100104000Y-73351000D03*
X99303000Y-73351000D03*
X98503000Y-73351000D03*
X97703000Y-73351000D03*
D33*
X96129000Y-74916000D03*
X96129000Y-75716000D03*
X96129000Y-76516000D03*
X96129000Y-77316000D03*
X96129000Y-78114000D03*
X96129000Y-78914000D03*
X96129000Y-79714000D03*
X96129000Y-80514000D03*
G36*
G01*
X123425000Y-63991500D02*
X123425000Y-63516500D01*
G75*
G02*
X123662500Y-63279000I237500J0D01*
G01*
X124162500Y-63279000D01*
G75*
G02*
X124400000Y-63516500I0J-237500D01*
G01*
X124400000Y-63991500D01*
G75*
G02*
X124162500Y-64229000I-237500J0D01*
G01*
X123662500Y-64229000D01*
G75*
G02*
X123425000Y-63991500I0J237500D01*
G01*
G37*
G36*
G01*
X121600000Y-63991500D02*
X121600000Y-63516500D01*
G75*
G02*
X121837500Y-63279000I237500J0D01*
G01*
X122337500Y-63279000D01*
G75*
G02*
X122575000Y-63516500I0J-237500D01*
G01*
X122575000Y-63991500D01*
G75*
G02*
X122337500Y-64229000I-237500J0D01*
G01*
X121837500Y-64229000D01*
G75*
G02*
X121600000Y-63991500I0J237500D01*
G01*
G37*
G36*
G01*
X106737500Y-106075000D02*
X106262500Y-106075000D01*
G75*
G02*
X106025000Y-105837500I0J237500D01*
G01*
X106025000Y-105337500D01*
G75*
G02*
X106262500Y-105100000I237500J0D01*
G01*
X106737500Y-105100000D01*
G75*
G02*
X106975000Y-105337500I0J-237500D01*
G01*
X106975000Y-105837500D01*
G75*
G02*
X106737500Y-106075000I-237500J0D01*
G01*
G37*
G36*
G01*
X106737500Y-107900000D02*
X106262500Y-107900000D01*
G75*
G02*
X106025000Y-107662500I0J237500D01*
G01*
X106025000Y-107162500D01*
G75*
G02*
X106262500Y-106925000I237500J0D01*
G01*
X106737500Y-106925000D01*
G75*
G02*
X106975000Y-107162500I0J-237500D01*
G01*
X106975000Y-107662500D01*
G75*
G02*
X106737500Y-107900000I-237500J0D01*
G01*
G37*
G36*
G01*
X100237500Y-106075000D02*
X99762500Y-106075000D01*
G75*
G02*
X99525000Y-105837500I0J237500D01*
G01*
X99525000Y-105337500D01*
G75*
G02*
X99762500Y-105100000I237500J0D01*
G01*
X100237500Y-105100000D01*
G75*
G02*
X100475000Y-105337500I0J-237500D01*
G01*
X100475000Y-105837500D01*
G75*
G02*
X100237500Y-106075000I-237500J0D01*
G01*
G37*
G36*
G01*
X100237500Y-107900000D02*
X99762500Y-107900000D01*
G75*
G02*
X99525000Y-107662500I0J237500D01*
G01*
X99525000Y-107162500D01*
G75*
G02*
X99762500Y-106925000I237500J0D01*
G01*
X100237500Y-106925000D01*
G75*
G02*
X100475000Y-107162500I0J-237500D01*
G01*
X100475000Y-107662500D01*
G75*
G02*
X100237500Y-107900000I-237500J0D01*
G01*
G37*
G36*
G01*
X98737500Y-106075000D02*
X98262500Y-106075000D01*
G75*
G02*
X98025000Y-105837500I0J237500D01*
G01*
X98025000Y-105337500D01*
G75*
G02*
X98262500Y-105100000I237500J0D01*
G01*
X98737500Y-105100000D01*
G75*
G02*
X98975000Y-105337500I0J-237500D01*
G01*
X98975000Y-105837500D01*
G75*
G02*
X98737500Y-106075000I-237500J0D01*
G01*
G37*
G36*
G01*
X98737500Y-107900000D02*
X98262500Y-107900000D01*
G75*
G02*
X98025000Y-107662500I0J237500D01*
G01*
X98025000Y-107162500D01*
G75*
G02*
X98262500Y-106925000I237500J0D01*
G01*
X98737500Y-106925000D01*
G75*
G02*
X98975000Y-107162500I0J-237500D01*
G01*
X98975000Y-107662500D01*
G75*
G02*
X98737500Y-107900000I-237500J0D01*
G01*
G37*
G36*
G01*
X106318500Y-64975000D02*
X106793500Y-64975000D01*
G75*
G02*
X107031000Y-65212500I0J-237500D01*
G01*
X107031000Y-65712500D01*
G75*
G02*
X106793500Y-65950000I-237500J0D01*
G01*
X106318500Y-65950000D01*
G75*
G02*
X106081000Y-65712500I0J237500D01*
G01*
X106081000Y-65212500D01*
G75*
G02*
X106318500Y-64975000I237500J0D01*
G01*
G37*
G36*
G01*
X106318500Y-63150000D02*
X106793500Y-63150000D01*
G75*
G02*
X107031000Y-63387500I0J-237500D01*
G01*
X107031000Y-63887500D01*
G75*
G02*
X106793500Y-64125000I-237500J0D01*
G01*
X106318500Y-64125000D01*
G75*
G02*
X106081000Y-63887500I0J237500D01*
G01*
X106081000Y-63387500D01*
G75*
G02*
X106318500Y-63150000I237500J0D01*
G01*
G37*
G36*
G01*
X101512500Y-64175000D02*
X101987500Y-64175000D01*
G75*
G02*
X102225000Y-64412500I0J-237500D01*
G01*
X102225000Y-64912500D01*
G75*
G02*
X101987500Y-65150000I-237500J0D01*
G01*
X101512500Y-65150000D01*
G75*
G02*
X101275000Y-64912500I0J237500D01*
G01*
X101275000Y-64412500D01*
G75*
G02*
X101512500Y-64175000I237500J0D01*
G01*
G37*
G36*
G01*
X101512500Y-62350000D02*
X101987500Y-62350000D01*
G75*
G02*
X102225000Y-62587500I0J-237500D01*
G01*
X102225000Y-63087500D01*
G75*
G02*
X101987500Y-63325000I-237500J0D01*
G01*
X101512500Y-63325000D01*
G75*
G02*
X101275000Y-63087500I0J237500D01*
G01*
X101275000Y-62587500D01*
G75*
G02*
X101512500Y-62350000I237500J0D01*
G01*
G37*
G36*
G01*
X103012500Y-64175000D02*
X103487500Y-64175000D01*
G75*
G02*
X103725000Y-64412500I0J-237500D01*
G01*
X103725000Y-64912500D01*
G75*
G02*
X103487500Y-65150000I-237500J0D01*
G01*
X103012500Y-65150000D01*
G75*
G02*
X102775000Y-64912500I0J237500D01*
G01*
X102775000Y-64412500D01*
G75*
G02*
X103012500Y-64175000I237500J0D01*
G01*
G37*
G36*
G01*
X103012500Y-62350000D02*
X103487500Y-62350000D01*
G75*
G02*
X103725000Y-62587500I0J-237500D01*
G01*
X103725000Y-63087500D01*
G75*
G02*
X103487500Y-63325000I-237500J0D01*
G01*
X103012500Y-63325000D01*
G75*
G02*
X102775000Y-63087500I0J237500D01*
G01*
X102775000Y-62587500D01*
G75*
G02*
X103012500Y-62350000I237500J0D01*
G01*
G37*
G36*
G01*
X98425000Y-93487500D02*
X98425000Y-93012500D01*
G75*
G02*
X98662500Y-92775000I237500J0D01*
G01*
X99162500Y-92775000D01*
G75*
G02*
X99400000Y-93012500I0J-237500D01*
G01*
X99400000Y-93487500D01*
G75*
G02*
X99162500Y-93725000I-237500J0D01*
G01*
X98662500Y-93725000D01*
G75*
G02*
X98425000Y-93487500I0J237500D01*
G01*
G37*
G36*
G01*
X96600000Y-93487500D02*
X96600000Y-93012500D01*
G75*
G02*
X96837500Y-92775000I237500J0D01*
G01*
X97337500Y-92775000D01*
G75*
G02*
X97575000Y-93012500I0J-237500D01*
G01*
X97575000Y-93487500D01*
G75*
G02*
X97337500Y-93725000I-237500J0D01*
G01*
X96837500Y-93725000D01*
G75*
G02*
X96600000Y-93487500I0J237500D01*
G01*
G37*
G36*
G01*
X97575000Y-91512500D02*
X97575000Y-91987500D01*
G75*
G02*
X97337500Y-92225000I-237500J0D01*
G01*
X96837500Y-92225000D01*
G75*
G02*
X96600000Y-91987500I0J237500D01*
G01*
X96600000Y-91512500D01*
G75*
G02*
X96837500Y-91275000I237500J0D01*
G01*
X97337500Y-91275000D01*
G75*
G02*
X97575000Y-91512500I0J-237500D01*
G01*
G37*
G36*
G01*
X99400000Y-91512500D02*
X99400000Y-91987500D01*
G75*
G02*
X99162500Y-92225000I-237500J0D01*
G01*
X98662500Y-92225000D01*
G75*
G02*
X98425000Y-91987500I0J237500D01*
G01*
X98425000Y-91512500D01*
G75*
G02*
X98662500Y-91275000I237500J0D01*
G01*
X99162500Y-91275000D01*
G75*
G02*
X99400000Y-91512500I0J-237500D01*
G01*
G37*
G36*
G01*
X113487500Y-85387500D02*
X113012500Y-85387500D01*
G75*
G02*
X112775000Y-85150000I0J237500D01*
G01*
X112775000Y-84650000D01*
G75*
G02*
X113012500Y-84412500I237500J0D01*
G01*
X113487500Y-84412500D01*
G75*
G02*
X113725000Y-84650000I0J-237500D01*
G01*
X113725000Y-85150000D01*
G75*
G02*
X113487500Y-85387500I-237500J0D01*
G01*
G37*
G36*
G01*
X113487500Y-87212500D02*
X113012500Y-87212500D01*
G75*
G02*
X112775000Y-86975000I0J237500D01*
G01*
X112775000Y-86475000D01*
G75*
G02*
X113012500Y-86237500I237500J0D01*
G01*
X113487500Y-86237500D01*
G75*
G02*
X113725000Y-86475000I0J-237500D01*
G01*
X113725000Y-86975000D01*
G75*
G02*
X113487500Y-87212500I-237500J0D01*
G01*
G37*
G36*
G01*
X76812500Y-60287500D02*
X76337500Y-60287500D01*
G75*
G02*
X76100000Y-60050000I0J237500D01*
G01*
X76100000Y-59550000D01*
G75*
G02*
X76337500Y-59312500I237500J0D01*
G01*
X76812500Y-59312500D01*
G75*
G02*
X77050000Y-59550000I0J-237500D01*
G01*
X77050000Y-60050000D01*
G75*
G02*
X76812500Y-60287500I-237500J0D01*
G01*
G37*
G36*
G01*
X76812500Y-62112500D02*
X76337500Y-62112500D01*
G75*
G02*
X76100000Y-61875000I0J237500D01*
G01*
X76100000Y-61375000D01*
G75*
G02*
X76337500Y-61137500I237500J0D01*
G01*
X76812500Y-61137500D01*
G75*
G02*
X77050000Y-61375000I0J-237500D01*
G01*
X77050000Y-61875000D01*
G75*
G02*
X76812500Y-62112500I-237500J0D01*
G01*
G37*
D19*
X77825000Y-57700000D03*
X81225000Y-57700000D03*
D34*
X83400000Y-81975000D03*
X83400000Y-79975000D03*
X83400000Y-77975000D03*
D35*
X77500000Y-77975000D03*
X77500000Y-81975000D03*
D36*
X103250000Y-105300000D03*
X103250000Y-107700000D03*
G36*
G01*
X101737500Y-106175000D02*
X101262500Y-106175000D01*
G75*
G02*
X101025000Y-105937500I0J237500D01*
G01*
X101025000Y-105337500D01*
G75*
G02*
X101262500Y-105100000I237500J0D01*
G01*
X101737500Y-105100000D01*
G75*
G02*
X101975000Y-105337500I0J-237500D01*
G01*
X101975000Y-105937500D01*
G75*
G02*
X101737500Y-106175000I-237500J0D01*
G01*
G37*
G36*
G01*
X101737500Y-107900000D02*
X101262500Y-107900000D01*
G75*
G02*
X101025000Y-107662500I0J237500D01*
G01*
X101025000Y-107062500D01*
G75*
G02*
X101262500Y-106825000I237500J0D01*
G01*
X101737500Y-106825000D01*
G75*
G02*
X101975000Y-107062500I0J-237500D01*
G01*
X101975000Y-107662500D01*
G75*
G02*
X101737500Y-107900000I-237500J0D01*
G01*
G37*
G36*
G01*
X104762500Y-106825000D02*
X105237500Y-106825000D01*
G75*
G02*
X105475000Y-107062500I0J-237500D01*
G01*
X105475000Y-107662500D01*
G75*
G02*
X105237500Y-107900000I-237500J0D01*
G01*
X104762500Y-107900000D01*
G75*
G02*
X104525000Y-107662500I0J237500D01*
G01*
X104525000Y-107062500D01*
G75*
G02*
X104762500Y-106825000I237500J0D01*
G01*
G37*
G36*
G01*
X104762500Y-105100000D02*
X105237500Y-105100000D01*
G75*
G02*
X105475000Y-105337500I0J-237500D01*
G01*
X105475000Y-105937500D01*
G75*
G02*
X105237500Y-106175000I-237500J0D01*
G01*
X104762500Y-106175000D01*
G75*
G02*
X104525000Y-105937500I0J237500D01*
G01*
X104525000Y-105337500D01*
G75*
G02*
X104762500Y-105100000I237500J0D01*
G01*
G37*
G36*
G01*
X97237500Y-106175000D02*
X96762500Y-106175000D01*
G75*
G02*
X96525000Y-105937500I0J237500D01*
G01*
X96525000Y-105337500D01*
G75*
G02*
X96762500Y-105100000I237500J0D01*
G01*
X97237500Y-105100000D01*
G75*
G02*
X97475000Y-105337500I0J-237500D01*
G01*
X97475000Y-105937500D01*
G75*
G02*
X97237500Y-106175000I-237500J0D01*
G01*
G37*
G36*
G01*
X97237500Y-107900000D02*
X96762500Y-107900000D01*
G75*
G02*
X96525000Y-107662500I0J237500D01*
G01*
X96525000Y-107062500D01*
G75*
G02*
X96762500Y-106825000I237500J0D01*
G01*
X97237500Y-106825000D01*
G75*
G02*
X97475000Y-107062500I0J-237500D01*
G01*
X97475000Y-107662500D01*
G75*
G02*
X97237500Y-107900000I-237500J0D01*
G01*
G37*
G36*
G01*
X93762500Y-106825000D02*
X94237500Y-106825000D01*
G75*
G02*
X94475000Y-107062500I0J-237500D01*
G01*
X94475000Y-107662500D01*
G75*
G02*
X94237500Y-107900000I-237500J0D01*
G01*
X93762500Y-107900000D01*
G75*
G02*
X93525000Y-107662500I0J237500D01*
G01*
X93525000Y-107062500D01*
G75*
G02*
X93762500Y-106825000I237500J0D01*
G01*
G37*
G36*
G01*
X93762500Y-105100000D02*
X94237500Y-105100000D01*
G75*
G02*
X94475000Y-105337500I0J-237500D01*
G01*
X94475000Y-105937500D01*
G75*
G02*
X94237500Y-106175000I-237500J0D01*
G01*
X93762500Y-106175000D01*
G75*
G02*
X93525000Y-105937500I0J237500D01*
G01*
X93525000Y-105337500D01*
G75*
G02*
X93762500Y-105100000I237500J0D01*
G01*
G37*
G36*
G01*
X86987500Y-57175000D02*
X86512500Y-57175000D01*
G75*
G02*
X86275000Y-56937500I0J237500D01*
G01*
X86275000Y-56337500D01*
G75*
G02*
X86512500Y-56100000I237500J0D01*
G01*
X86987500Y-56100000D01*
G75*
G02*
X87225000Y-56337500I0J-237500D01*
G01*
X87225000Y-56937500D01*
G75*
G02*
X86987500Y-57175000I-237500J0D01*
G01*
G37*
G36*
G01*
X86987500Y-58900000D02*
X86512500Y-58900000D01*
G75*
G02*
X86275000Y-58662500I0J237500D01*
G01*
X86275000Y-58062500D01*
G75*
G02*
X86512500Y-57825000I237500J0D01*
G01*
X86987500Y-57825000D01*
G75*
G02*
X87225000Y-58062500I0J-237500D01*
G01*
X87225000Y-58662500D01*
G75*
G02*
X86987500Y-58900000I-237500J0D01*
G01*
G37*
G36*
G01*
X88487500Y-57175000D02*
X88012500Y-57175000D01*
G75*
G02*
X87775000Y-56937500I0J237500D01*
G01*
X87775000Y-56337500D01*
G75*
G02*
X88012500Y-56100000I237500J0D01*
G01*
X88487500Y-56100000D01*
G75*
G02*
X88725000Y-56337500I0J-237500D01*
G01*
X88725000Y-56937500D01*
G75*
G02*
X88487500Y-57175000I-237500J0D01*
G01*
G37*
G36*
G01*
X88487500Y-58900000D02*
X88012500Y-58900000D01*
G75*
G02*
X87775000Y-58662500I0J237500D01*
G01*
X87775000Y-58062500D01*
G75*
G02*
X88012500Y-57825000I237500J0D01*
G01*
X88487500Y-57825000D01*
G75*
G02*
X88725000Y-58062500I0J-237500D01*
G01*
X88725000Y-58662500D01*
G75*
G02*
X88487500Y-58900000I-237500J0D01*
G01*
G37*
G36*
G01*
X109793500Y-64225000D02*
X109318500Y-64225000D01*
G75*
G02*
X109081000Y-63987500I0J237500D01*
G01*
X109081000Y-63387500D01*
G75*
G02*
X109318500Y-63150000I237500J0D01*
G01*
X109793500Y-63150000D01*
G75*
G02*
X110031000Y-63387500I0J-237500D01*
G01*
X110031000Y-63987500D01*
G75*
G02*
X109793500Y-64225000I-237500J0D01*
G01*
G37*
G36*
G01*
X109793500Y-65950000D02*
X109318500Y-65950000D01*
G75*
G02*
X109081000Y-65712500I0J237500D01*
G01*
X109081000Y-65112500D01*
G75*
G02*
X109318500Y-64875000I237500J0D01*
G01*
X109793500Y-64875000D01*
G75*
G02*
X110031000Y-65112500I0J-237500D01*
G01*
X110031000Y-65712500D01*
G75*
G02*
X109793500Y-65950000I-237500J0D01*
G01*
G37*
G36*
G01*
X108293500Y-64225000D02*
X107818500Y-64225000D01*
G75*
G02*
X107581000Y-63987500I0J237500D01*
G01*
X107581000Y-63387500D01*
G75*
G02*
X107818500Y-63150000I237500J0D01*
G01*
X108293500Y-63150000D01*
G75*
G02*
X108531000Y-63387500I0J-237500D01*
G01*
X108531000Y-63987500D01*
G75*
G02*
X108293500Y-64225000I-237500J0D01*
G01*
G37*
G36*
G01*
X108293500Y-65950000D02*
X107818500Y-65950000D01*
G75*
G02*
X107581000Y-65712500I0J237500D01*
G01*
X107581000Y-65112500D01*
G75*
G02*
X107818500Y-64875000I237500J0D01*
G01*
X108293500Y-64875000D01*
G75*
G02*
X108531000Y-65112500I0J-237500D01*
G01*
X108531000Y-65712500D01*
G75*
G02*
X108293500Y-65950000I-237500J0D01*
G01*
G37*
G36*
G01*
X93237500Y-63925000D02*
X92762500Y-63925000D01*
G75*
G02*
X92525000Y-63687500I0J237500D01*
G01*
X92525000Y-63087500D01*
G75*
G02*
X92762500Y-62850000I237500J0D01*
G01*
X93237500Y-62850000D01*
G75*
G02*
X93475000Y-63087500I0J-237500D01*
G01*
X93475000Y-63687500D01*
G75*
G02*
X93237500Y-63925000I-237500J0D01*
G01*
G37*
G36*
G01*
X93237500Y-65650000D02*
X92762500Y-65650000D01*
G75*
G02*
X92525000Y-65412500I0J237500D01*
G01*
X92525000Y-64812500D01*
G75*
G02*
X92762500Y-64575000I237500J0D01*
G01*
X93237500Y-64575000D01*
G75*
G02*
X93475000Y-64812500I0J-237500D01*
G01*
X93475000Y-65412500D01*
G75*
G02*
X93237500Y-65650000I-237500J0D01*
G01*
G37*
G36*
G01*
X90012500Y-64575000D02*
X90487500Y-64575000D01*
G75*
G02*
X90725000Y-64812500I0J-237500D01*
G01*
X90725000Y-65412500D01*
G75*
G02*
X90487500Y-65650000I-237500J0D01*
G01*
X90012500Y-65650000D01*
G75*
G02*
X89775000Y-65412500I0J237500D01*
G01*
X89775000Y-64812500D01*
G75*
G02*
X90012500Y-64575000I237500J0D01*
G01*
G37*
G36*
G01*
X90012500Y-62850000D02*
X90487500Y-62850000D01*
G75*
G02*
X90725000Y-63087500I0J-237500D01*
G01*
X90725000Y-63687500D01*
G75*
G02*
X90487500Y-63925000I-237500J0D01*
G01*
X90012500Y-63925000D01*
G75*
G02*
X89775000Y-63687500I0J237500D01*
G01*
X89775000Y-63087500D01*
G75*
G02*
X90012500Y-62850000I237500J0D01*
G01*
G37*
G36*
G01*
X93237500Y-99175000D02*
X92762500Y-99175000D01*
G75*
G02*
X92525000Y-98937500I0J237500D01*
G01*
X92525000Y-98337500D01*
G75*
G02*
X92762500Y-98100000I237500J0D01*
G01*
X93237500Y-98100000D01*
G75*
G02*
X93475000Y-98337500I0J-237500D01*
G01*
X93475000Y-98937500D01*
G75*
G02*
X93237500Y-99175000I-237500J0D01*
G01*
G37*
G36*
G01*
X93237500Y-100900000D02*
X92762500Y-100900000D01*
G75*
G02*
X92525000Y-100662500I0J237500D01*
G01*
X92525000Y-100062500D01*
G75*
G02*
X92762500Y-99825000I237500J0D01*
G01*
X93237500Y-99825000D01*
G75*
G02*
X93475000Y-100062500I0J-237500D01*
G01*
X93475000Y-100662500D01*
G75*
G02*
X93237500Y-100900000I-237500J0D01*
G01*
G37*
G36*
G01*
X113012500Y-82825000D02*
X113487500Y-82825000D01*
G75*
G02*
X113725000Y-83062500I0J-237500D01*
G01*
X113725000Y-83662500D01*
G75*
G02*
X113487500Y-83900000I-237500J0D01*
G01*
X113012500Y-83900000D01*
G75*
G02*
X112775000Y-83662500I0J237500D01*
G01*
X112775000Y-83062500D01*
G75*
G02*
X113012500Y-82825000I237500J0D01*
G01*
G37*
G36*
G01*
X113012500Y-81100000D02*
X113487500Y-81100000D01*
G75*
G02*
X113725000Y-81337500I0J-237500D01*
G01*
X113725000Y-81937500D01*
G75*
G02*
X113487500Y-82175000I-237500J0D01*
G01*
X113012500Y-82175000D01*
G75*
G02*
X112775000Y-81937500I0J237500D01*
G01*
X112775000Y-81337500D01*
G75*
G02*
X113012500Y-81100000I237500J0D01*
G01*
G37*
G36*
G01*
X102325000Y-90487500D02*
X102325000Y-90012500D01*
G75*
G02*
X102562500Y-89775000I237500J0D01*
G01*
X103162500Y-89775000D01*
G75*
G02*
X103400000Y-90012500I0J-237500D01*
G01*
X103400000Y-90487500D01*
G75*
G02*
X103162500Y-90725000I-237500J0D01*
G01*
X102562500Y-90725000D01*
G75*
G02*
X102325000Y-90487500I0J237500D01*
G01*
G37*
G36*
G01*
X100600000Y-90487500D02*
X100600000Y-90012500D01*
G75*
G02*
X100837500Y-89775000I237500J0D01*
G01*
X101437500Y-89775000D01*
G75*
G02*
X101675000Y-90012500I0J-237500D01*
G01*
X101675000Y-90487500D01*
G75*
G02*
X101437500Y-90725000I-237500J0D01*
G01*
X100837500Y-90725000D01*
G75*
G02*
X100600000Y-90487500I0J237500D01*
G01*
G37*
G36*
G01*
X97675000Y-90012500D02*
X97675000Y-90487500D01*
G75*
G02*
X97437500Y-90725000I-237500J0D01*
G01*
X96837500Y-90725000D01*
G75*
G02*
X96600000Y-90487500I0J237500D01*
G01*
X96600000Y-90012500D01*
G75*
G02*
X96837500Y-89775000I237500J0D01*
G01*
X97437500Y-89775000D01*
G75*
G02*
X97675000Y-90012500I0J-237500D01*
G01*
G37*
G36*
G01*
X99400000Y-90012500D02*
X99400000Y-90487500D01*
G75*
G02*
X99162500Y-90725000I-237500J0D01*
G01*
X98562500Y-90725000D01*
G75*
G02*
X98325000Y-90487500I0J237500D01*
G01*
X98325000Y-90012500D01*
G75*
G02*
X98562500Y-89775000I237500J0D01*
G01*
X99162500Y-89775000D01*
G75*
G02*
X99400000Y-90012500I0J-237500D01*
G01*
G37*
G36*
G01*
X103575000Y-70987500D02*
X103575000Y-70512500D01*
G75*
G02*
X103812500Y-70275000I237500J0D01*
G01*
X104412500Y-70275000D01*
G75*
G02*
X104650000Y-70512500I0J-237500D01*
G01*
X104650000Y-70987500D01*
G75*
G02*
X104412500Y-71225000I-237500J0D01*
G01*
X103812500Y-71225000D01*
G75*
G02*
X103575000Y-70987500I0J237500D01*
G01*
G37*
G36*
G01*
X101850000Y-70987500D02*
X101850000Y-70512500D01*
G75*
G02*
X102087500Y-70275000I237500J0D01*
G01*
X102687500Y-70275000D01*
G75*
G02*
X102925000Y-70512500I0J-237500D01*
G01*
X102925000Y-70987500D01*
G75*
G02*
X102687500Y-71225000I-237500J0D01*
G01*
X102087500Y-71225000D01*
G75*
G02*
X101850000Y-70987500I0J237500D01*
G01*
G37*
M02*
