G04 #@! TF.GenerationSoftware,KiCad,Pcbnew,(5.1.9-0-10_14)*
G04 #@! TF.CreationDate,2021-04-26T19:25:28+02:00*
G04 #@! TF.ProjectId,Le_kube,4c655f6b-7562-4652-9e6b-696361645f70,rev?*
G04 #@! TF.SameCoordinates,Original*
G04 #@! TF.FileFunction,Legend,Bot*
G04 #@! TF.FilePolarity,Positive*
%FSLAX46Y46*%
G04 Gerber Fmt 4.6, Leading zero omitted, Abs format (unit mm)*
G04 Created by KiCad (PCBNEW (5.1.9-0-10_14)) date 2021-04-26 19:25:28*
%MOMM*%
%LPD*%
G01*
G04 APERTURE LIST*
%ADD10C,0.200000*%
%ADD11C,0.300000*%
%ADD12C,0.400000*%
%ADD13C,0.254000*%
%ADD14C,0.010000*%
%ADD15R,1.300000X1.950000*%
%ADD16O,3.500000X2.000000*%
%ADD17C,1.600000*%
%ADD18C,1.524000*%
%ADD19R,1.524000X1.524000*%
%ADD20C,0.800000*%
%ADD21R,1.800000X1.800000*%
%ADD22C,1.800000*%
%ADD23O,2.000000X1.300000*%
%ADD24R,1.950000X1.300000*%
%ADD25O,2.000000X1.200000*%
%ADD26C,1.300000*%
G04 APERTURE END LIST*
D10*
X113505714Y-95782380D02*
X113505714Y-96591904D01*
X113458095Y-96687142D01*
X113410476Y-96734761D01*
X113315238Y-96782380D01*
X113124761Y-96782380D01*
X113029523Y-96734761D01*
X112981904Y-96687142D01*
X112934285Y-96591904D01*
X112934285Y-95782380D01*
X112458095Y-96782380D02*
X112458095Y-95782380D01*
X112077142Y-95782380D01*
X111981904Y-95830000D01*
X111934285Y-95877619D01*
X111886666Y-95972857D01*
X111886666Y-96115714D01*
X111934285Y-96210952D01*
X111981904Y-96258571D01*
X112077142Y-96306190D01*
X112458095Y-96306190D01*
X101727142Y-96802380D02*
X101727142Y-95802380D01*
X101489047Y-95802380D01*
X101346190Y-95850000D01*
X101250952Y-95945238D01*
X101203333Y-96040476D01*
X101155714Y-96230952D01*
X101155714Y-96373809D01*
X101203333Y-96564285D01*
X101250952Y-96659523D01*
X101346190Y-96754761D01*
X101489047Y-96802380D01*
X101727142Y-96802380D01*
X100822380Y-95802380D02*
X100584285Y-96802380D01*
X100393809Y-96088095D01*
X100203333Y-96802380D01*
X99965238Y-95802380D01*
X99584285Y-96802380D02*
X99584285Y-95802380D01*
X99012857Y-96802380D01*
X99012857Y-95802380D01*
X89541428Y-96724761D02*
X89398571Y-96772380D01*
X89160476Y-96772380D01*
X89065238Y-96724761D01*
X89017619Y-96677142D01*
X88970000Y-96581904D01*
X88970000Y-96486666D01*
X89017619Y-96391428D01*
X89065238Y-96343809D01*
X89160476Y-96296190D01*
X89350952Y-96248571D01*
X89446190Y-96200952D01*
X89493809Y-96153333D01*
X89541428Y-96058095D01*
X89541428Y-95962857D01*
X89493809Y-95867619D01*
X89446190Y-95820000D01*
X89350952Y-95772380D01*
X89112857Y-95772380D01*
X88970000Y-95820000D01*
X88065238Y-96772380D02*
X88541428Y-96772380D01*
X88541428Y-95772380D01*
X87160476Y-96677142D02*
X87208095Y-96724761D01*
X87350952Y-96772380D01*
X87446190Y-96772380D01*
X87589047Y-96724761D01*
X87684285Y-96629523D01*
X87731904Y-96534285D01*
X87779523Y-96343809D01*
X87779523Y-96200952D01*
X87731904Y-96010476D01*
X87684285Y-95915238D01*
X87589047Y-95820000D01*
X87446190Y-95772380D01*
X87350952Y-95772380D01*
X87208095Y-95820000D01*
X87160476Y-95867619D01*
X86874761Y-95772380D02*
X86303333Y-95772380D01*
X86589047Y-96772380D02*
X86589047Y-95772380D01*
X93217619Y-104322380D02*
X93550952Y-103846190D01*
X93789047Y-104322380D02*
X93789047Y-103322380D01*
X93408095Y-103322380D01*
X93312857Y-103370000D01*
X93265238Y-103417619D01*
X93217619Y-103512857D01*
X93217619Y-103655714D01*
X93265238Y-103750952D01*
X93312857Y-103798571D01*
X93408095Y-103846190D01*
X93789047Y-103846190D01*
X92836666Y-104274761D02*
X92693809Y-104322380D01*
X92455714Y-104322380D01*
X92360476Y-104274761D01*
X92312857Y-104227142D01*
X92265238Y-104131904D01*
X92265238Y-104036666D01*
X92312857Y-103941428D01*
X92360476Y-103893809D01*
X92455714Y-103846190D01*
X92646190Y-103798571D01*
X92741428Y-103750952D01*
X92789047Y-103703333D01*
X92836666Y-103608095D01*
X92836666Y-103512857D01*
X92789047Y-103417619D01*
X92741428Y-103370000D01*
X92646190Y-103322380D01*
X92408095Y-103322380D01*
X92265238Y-103370000D01*
X91979523Y-103322380D02*
X91408095Y-103322380D01*
X91693809Y-104322380D02*
X91693809Y-103322380D01*
D11*
X104220000Y-113148571D02*
X104934285Y-113148571D01*
X104934285Y-111648571D01*
X103148571Y-113077142D02*
X103291428Y-113148571D01*
X103577142Y-113148571D01*
X103720000Y-113077142D01*
X103791428Y-112934285D01*
X103791428Y-112362857D01*
X103720000Y-112220000D01*
X103577142Y-112148571D01*
X103291428Y-112148571D01*
X103148571Y-112220000D01*
X103077142Y-112362857D01*
X103077142Y-112505714D01*
X103791428Y-112648571D01*
X102791428Y-113291428D02*
X101648571Y-113291428D01*
X101291428Y-113148571D02*
X101291428Y-111648571D01*
X100434285Y-113148571D02*
X101077142Y-112291428D01*
X100434285Y-111648571D02*
X101291428Y-112505714D01*
X99148571Y-112148571D02*
X99148571Y-113148571D01*
X99791428Y-112148571D02*
X99791428Y-112934285D01*
X99720000Y-113077142D01*
X99577142Y-113148571D01*
X99362857Y-113148571D01*
X99220000Y-113077142D01*
X99148571Y-113005714D01*
X98434285Y-113148571D02*
X98434285Y-111648571D01*
X98434285Y-112220000D02*
X98291428Y-112148571D01*
X98005714Y-112148571D01*
X97862857Y-112220000D01*
X97791428Y-112291428D01*
X97720000Y-112434285D01*
X97720000Y-112862857D01*
X97791428Y-113005714D01*
X97862857Y-113077142D01*
X98005714Y-113148571D01*
X98291428Y-113148571D01*
X98434285Y-113077142D01*
X96505714Y-113077142D02*
X96648571Y-113148571D01*
X96934285Y-113148571D01*
X97077142Y-113077142D01*
X97148571Y-112934285D01*
X97148571Y-112362857D01*
X97077142Y-112220000D01*
X96934285Y-112148571D01*
X96648571Y-112148571D01*
X96505714Y-112220000D01*
X96434285Y-112362857D01*
X96434285Y-112505714D01*
X97148571Y-112648571D01*
D12*
X108550000Y-114290000D02*
X92550000Y-114290000D01*
D13*
X106775000Y-83100000D02*
X106775000Y-95100000D01*
X118774000Y-83100000D02*
X106774000Y-83100000D01*
X118775000Y-95100000D02*
X118775000Y-83100000D01*
X106775000Y-95100000D02*
X118775000Y-95100000D01*
X107695000Y-84274000D02*
X107695000Y-93926000D01*
X107695000Y-93926000D02*
X107949000Y-94180000D01*
X107949000Y-94180000D02*
X117601000Y-94180000D01*
X117601000Y-94180000D02*
X117855000Y-93926000D01*
X117855000Y-93926000D02*
X117855000Y-84274000D01*
X117855000Y-84274000D02*
X117601000Y-84020000D01*
X117601000Y-84020000D02*
X107949000Y-84020000D01*
X107949000Y-84020000D02*
X107695000Y-84274000D01*
X109727000Y-85290000D02*
G75*
G03*
X109727000Y-85290000I-762000J0D01*
G01*
X109727000Y-92910000D02*
G75*
G03*
X109727000Y-92910000I-762000J0D01*
G01*
X117347000Y-85290000D02*
G75*
G03*
X117347000Y-85290000I-762000J0D01*
G01*
X117347000Y-92910000D02*
G75*
G03*
X117347000Y-92910000I-762000J0D01*
G01*
X116077000Y-89100000D02*
G75*
G03*
X116077000Y-89100000I-3302000J0D01*
G01*
X115775000Y-89100000D02*
G75*
G03*
X115775000Y-89100000I-3000000J0D01*
G01*
D14*
G36*
X90063429Y-105003144D02*
G01*
X89843214Y-105092200D01*
X89569023Y-105224349D01*
X89266941Y-105386273D01*
X88963054Y-105564654D01*
X88683446Y-105746174D01*
X88680933Y-105747911D01*
X88183116Y-106152680D01*
X87772275Y-106611542D01*
X87453654Y-107110313D01*
X87232492Y-107634811D01*
X87114033Y-108170853D01*
X87103517Y-108704256D01*
X87206188Y-109220838D01*
X87303956Y-109473545D01*
X87510237Y-109833563D01*
X87765231Y-110136763D01*
X88044606Y-110357997D01*
X88252750Y-110454159D01*
X88305874Y-110464420D01*
X88341891Y-110443087D01*
X88364366Y-110370376D01*
X88376862Y-110226506D01*
X88382941Y-109991695D01*
X88385646Y-109716365D01*
X88403649Y-109217203D01*
X88447256Y-108759460D01*
X88502567Y-108431250D01*
X88573359Y-108131464D01*
X88631837Y-107929511D01*
X88674595Y-107830805D01*
X88698231Y-107840761D01*
X88699339Y-107964791D01*
X88682225Y-108145500D01*
X88661104Y-108405457D01*
X88647669Y-108732886D01*
X88644081Y-109068377D01*
X88645244Y-109161500D01*
X88652020Y-109391518D01*
X88665510Y-109599695D01*
X88689683Y-109809689D01*
X88728507Y-110045163D01*
X88785949Y-110329777D01*
X88865978Y-110687192D01*
X88972560Y-111141068D01*
X88988323Y-111207341D01*
X89045813Y-111472557D01*
X89082608Y-111691045D01*
X89094452Y-111834052D01*
X89086768Y-111872898D01*
X89059045Y-111890119D01*
X89013563Y-111885721D01*
X88931990Y-111850476D01*
X88795994Y-111775157D01*
X88587242Y-111650537D01*
X88316250Y-111485071D01*
X88076511Y-111352652D01*
X87833585Y-111241543D01*
X87664296Y-111182972D01*
X87490085Y-111127737D01*
X87373902Y-111070351D01*
X87354719Y-111051886D01*
X87369235Y-111014552D01*
X87435173Y-111023206D01*
X87579749Y-111059207D01*
X87765903Y-111099846D01*
X87773968Y-111101485D01*
X87974959Y-111156171D01*
X88205071Y-111237636D01*
X88266093Y-111262719D01*
X88447544Y-111325026D01*
X88535186Y-111309693D01*
X88534274Y-111209245D01*
X88450063Y-111016206D01*
X88445531Y-111007410D01*
X88227766Y-110712124D01*
X87938142Y-110509546D01*
X87592701Y-110400717D01*
X87207486Y-110386681D01*
X86798537Y-110468480D01*
X86381895Y-110647155D01*
X86064195Y-110852712D01*
X85835748Y-111041249D01*
X85721689Y-111178020D01*
X85721145Y-111264587D01*
X85813263Y-111300396D01*
X86113865Y-111349392D01*
X86337910Y-111418024D01*
X86535834Y-111526869D01*
X86732066Y-111675194D01*
X86991497Y-111873518D01*
X87203025Y-111996366D01*
X87406279Y-112060280D01*
X87640884Y-112081803D01*
X87707744Y-112082500D01*
X88010569Y-112041819D01*
X88227485Y-111935560D01*
X88443250Y-111788620D01*
X88760750Y-111978476D01*
X88934033Y-112082257D01*
X89056300Y-112155792D01*
X89095442Y-112179649D01*
X89092922Y-112242291D01*
X89068095Y-112391269D01*
X89041616Y-112522115D01*
X89005874Y-112708233D01*
X88989742Y-112833488D01*
X88992674Y-112864756D01*
X89063385Y-112867806D01*
X89217833Y-112862510D01*
X89314160Y-112856986D01*
X89613569Y-112837722D01*
X89599910Y-112423432D01*
X89595312Y-112199573D01*
X89609872Y-112064701D01*
X89658324Y-111980884D01*
X89755405Y-111910184D01*
X89812424Y-111876334D01*
X90038598Y-111743525D01*
X90243302Y-111894870D01*
X90430504Y-111998896D01*
X90652086Y-112041194D01*
X90779128Y-112044552D01*
X91050448Y-112019427D01*
X91297083Y-111936460D01*
X91553815Y-111779817D01*
X91805413Y-111577388D01*
X92031352Y-111407844D01*
X92245307Y-111315576D01*
X92415002Y-111282358D01*
X92602765Y-111249431D01*
X92731297Y-111211912D01*
X92761879Y-111192483D01*
X92737694Y-111121625D01*
X92633772Y-111002714D01*
X92476126Y-110858022D01*
X92290769Y-110709827D01*
X92103711Y-110580402D01*
X91946906Y-110494589D01*
X91536978Y-110366709D01*
X91130960Y-110334037D01*
X90750579Y-110391524D01*
X90417560Y-110534126D01*
X90153633Y-110756796D01*
X90030684Y-110939629D01*
X89948600Y-111118420D01*
X89938759Y-111218090D01*
X90013092Y-111246252D01*
X90183535Y-111210519D01*
X90364125Y-111152349D01*
X90609120Y-111077966D01*
X90833431Y-111025356D01*
X90983250Y-111006278D01*
X91054367Y-111015606D01*
X91023075Y-111046757D01*
X90881644Y-111104487D01*
X90746504Y-111151885D01*
X90462940Y-111267200D01*
X90168866Y-111415774D01*
X89979856Y-111531245D01*
X89796083Y-111651813D01*
X89650777Y-111736222D01*
X89580044Y-111765000D01*
X89541270Y-111707274D01*
X89494544Y-111554858D01*
X89449118Y-111338888D01*
X89443268Y-111304625D01*
X89400426Y-111058831D01*
X89360175Y-110848982D01*
X89330916Y-110718773D01*
X89329928Y-110715260D01*
X89329588Y-110619869D01*
X89409885Y-110541830D01*
X89534851Y-110479026D01*
X89932606Y-110235509D01*
X90256774Y-109897926D01*
X90497010Y-109482342D01*
X90642970Y-109004823D01*
X90680758Y-108699210D01*
X90684143Y-108425030D01*
X90654997Y-108159400D01*
X90586138Y-107872732D01*
X90470380Y-107535438D01*
X90300539Y-107117928D01*
X90291924Y-107097750D01*
X90154204Y-106615581D01*
X90135582Y-106097010D01*
X90221250Y-105605500D01*
X90291825Y-105306381D01*
X90312573Y-105110203D01*
X90283102Y-105002923D01*
X90203584Y-104970500D01*
X90063429Y-105003144D01*
G37*
X90063429Y-105003144D02*
X89843214Y-105092200D01*
X89569023Y-105224349D01*
X89266941Y-105386273D01*
X88963054Y-105564654D01*
X88683446Y-105746174D01*
X88680933Y-105747911D01*
X88183116Y-106152680D01*
X87772275Y-106611542D01*
X87453654Y-107110313D01*
X87232492Y-107634811D01*
X87114033Y-108170853D01*
X87103517Y-108704256D01*
X87206188Y-109220838D01*
X87303956Y-109473545D01*
X87510237Y-109833563D01*
X87765231Y-110136763D01*
X88044606Y-110357997D01*
X88252750Y-110454159D01*
X88305874Y-110464420D01*
X88341891Y-110443087D01*
X88364366Y-110370376D01*
X88376862Y-110226506D01*
X88382941Y-109991695D01*
X88385646Y-109716365D01*
X88403649Y-109217203D01*
X88447256Y-108759460D01*
X88502567Y-108431250D01*
X88573359Y-108131464D01*
X88631837Y-107929511D01*
X88674595Y-107830805D01*
X88698231Y-107840761D01*
X88699339Y-107964791D01*
X88682225Y-108145500D01*
X88661104Y-108405457D01*
X88647669Y-108732886D01*
X88644081Y-109068377D01*
X88645244Y-109161500D01*
X88652020Y-109391518D01*
X88665510Y-109599695D01*
X88689683Y-109809689D01*
X88728507Y-110045163D01*
X88785949Y-110329777D01*
X88865978Y-110687192D01*
X88972560Y-111141068D01*
X88988323Y-111207341D01*
X89045813Y-111472557D01*
X89082608Y-111691045D01*
X89094452Y-111834052D01*
X89086768Y-111872898D01*
X89059045Y-111890119D01*
X89013563Y-111885721D01*
X88931990Y-111850476D01*
X88795994Y-111775157D01*
X88587242Y-111650537D01*
X88316250Y-111485071D01*
X88076511Y-111352652D01*
X87833585Y-111241543D01*
X87664296Y-111182972D01*
X87490085Y-111127737D01*
X87373902Y-111070351D01*
X87354719Y-111051886D01*
X87369235Y-111014552D01*
X87435173Y-111023206D01*
X87579749Y-111059207D01*
X87765903Y-111099846D01*
X87773968Y-111101485D01*
X87974959Y-111156171D01*
X88205071Y-111237636D01*
X88266093Y-111262719D01*
X88447544Y-111325026D01*
X88535186Y-111309693D01*
X88534274Y-111209245D01*
X88450063Y-111016206D01*
X88445531Y-111007410D01*
X88227766Y-110712124D01*
X87938142Y-110509546D01*
X87592701Y-110400717D01*
X87207486Y-110386681D01*
X86798537Y-110468480D01*
X86381895Y-110647155D01*
X86064195Y-110852712D01*
X85835748Y-111041249D01*
X85721689Y-111178020D01*
X85721145Y-111264587D01*
X85813263Y-111300396D01*
X86113865Y-111349392D01*
X86337910Y-111418024D01*
X86535834Y-111526869D01*
X86732066Y-111675194D01*
X86991497Y-111873518D01*
X87203025Y-111996366D01*
X87406279Y-112060280D01*
X87640884Y-112081803D01*
X87707744Y-112082500D01*
X88010569Y-112041819D01*
X88227485Y-111935560D01*
X88443250Y-111788620D01*
X88760750Y-111978476D01*
X88934033Y-112082257D01*
X89056300Y-112155792D01*
X89095442Y-112179649D01*
X89092922Y-112242291D01*
X89068095Y-112391269D01*
X89041616Y-112522115D01*
X89005874Y-112708233D01*
X88989742Y-112833488D01*
X88992674Y-112864756D01*
X89063385Y-112867806D01*
X89217833Y-112862510D01*
X89314160Y-112856986D01*
X89613569Y-112837722D01*
X89599910Y-112423432D01*
X89595312Y-112199573D01*
X89609872Y-112064701D01*
X89658324Y-111980884D01*
X89755405Y-111910184D01*
X89812424Y-111876334D01*
X90038598Y-111743525D01*
X90243302Y-111894870D01*
X90430504Y-111998896D01*
X90652086Y-112041194D01*
X90779128Y-112044552D01*
X91050448Y-112019427D01*
X91297083Y-111936460D01*
X91553815Y-111779817D01*
X91805413Y-111577388D01*
X92031352Y-111407844D01*
X92245307Y-111315576D01*
X92415002Y-111282358D01*
X92602765Y-111249431D01*
X92731297Y-111211912D01*
X92761879Y-111192483D01*
X92737694Y-111121625D01*
X92633772Y-111002714D01*
X92476126Y-110858022D01*
X92290769Y-110709827D01*
X92103711Y-110580402D01*
X91946906Y-110494589D01*
X91536978Y-110366709D01*
X91130960Y-110334037D01*
X90750579Y-110391524D01*
X90417560Y-110534126D01*
X90153633Y-110756796D01*
X90030684Y-110939629D01*
X89948600Y-111118420D01*
X89938759Y-111218090D01*
X90013092Y-111246252D01*
X90183535Y-111210519D01*
X90364125Y-111152349D01*
X90609120Y-111077966D01*
X90833431Y-111025356D01*
X90983250Y-111006278D01*
X91054367Y-111015606D01*
X91023075Y-111046757D01*
X90881644Y-111104487D01*
X90746504Y-111151885D01*
X90462940Y-111267200D01*
X90168866Y-111415774D01*
X89979856Y-111531245D01*
X89796083Y-111651813D01*
X89650777Y-111736222D01*
X89580044Y-111765000D01*
X89541270Y-111707274D01*
X89494544Y-111554858D01*
X89449118Y-111338888D01*
X89443268Y-111304625D01*
X89400426Y-111058831D01*
X89360175Y-110848982D01*
X89330916Y-110718773D01*
X89329928Y-110715260D01*
X89329588Y-110619869D01*
X89409885Y-110541830D01*
X89534851Y-110479026D01*
X89932606Y-110235509D01*
X90256774Y-109897926D01*
X90497010Y-109482342D01*
X90642970Y-109004823D01*
X90680758Y-108699210D01*
X90684143Y-108425030D01*
X90654997Y-108159400D01*
X90586138Y-107872732D01*
X90470380Y-107535438D01*
X90300539Y-107117928D01*
X90291924Y-107097750D01*
X90154204Y-106615581D01*
X90135582Y-106097010D01*
X90221250Y-105605500D01*
X90291825Y-105306381D01*
X90312573Y-105110203D01*
X90283102Y-105002923D01*
X90203584Y-104970500D01*
X90063429Y-105003144D01*
G36*
X88981033Y-113121698D02*
G01*
X88402215Y-113243083D01*
X87900027Y-113455769D01*
X87691256Y-113592163D01*
X87457631Y-113778283D01*
X87294410Y-113929929D01*
X86987525Y-114241500D01*
X89320997Y-114241500D01*
X89926125Y-114241324D01*
X90415991Y-114240373D01*
X90802331Y-114238012D01*
X91096882Y-114233606D01*
X91311383Y-114226520D01*
X91457570Y-114216119D01*
X91547180Y-114201768D01*
X91591950Y-114182831D01*
X91603618Y-114158676D01*
X91593922Y-114128665D01*
X91588808Y-114118811D01*
X91479827Y-113982648D01*
X91294050Y-113813275D01*
X91066106Y-113638416D01*
X90830627Y-113485795D01*
X90729250Y-113430661D01*
X90167111Y-113215286D01*
X89576852Y-113112365D01*
X88981033Y-113121698D01*
G37*
X88981033Y-113121698D02*
X88402215Y-113243083D01*
X87900027Y-113455769D01*
X87691256Y-113592163D01*
X87457631Y-113778283D01*
X87294410Y-113929929D01*
X86987525Y-114241500D01*
X89320997Y-114241500D01*
X89926125Y-114241324D01*
X90415991Y-114240373D01*
X90802331Y-114238012D01*
X91096882Y-114233606D01*
X91311383Y-114226520D01*
X91457570Y-114216119D01*
X91547180Y-114201768D01*
X91591950Y-114182831D01*
X91603618Y-114158676D01*
X91593922Y-114128665D01*
X91588808Y-114118811D01*
X91479827Y-113982648D01*
X91294050Y-113813275D01*
X91066106Y-113638416D01*
X90830627Y-113485795D01*
X90729250Y-113430661D01*
X90167111Y-113215286D01*
X89576852Y-113112365D01*
X88981033Y-113121698D01*
G36*
X111301033Y-113211698D02*
G01*
X110722215Y-113333083D01*
X110220027Y-113545769D01*
X110011256Y-113682163D01*
X109777631Y-113868283D01*
X109614410Y-114019929D01*
X109307525Y-114331500D01*
X111640997Y-114331500D01*
X112246125Y-114331324D01*
X112735991Y-114330373D01*
X113122331Y-114328012D01*
X113416882Y-114323606D01*
X113631383Y-114316520D01*
X113777570Y-114306119D01*
X113867180Y-114291768D01*
X113911950Y-114272831D01*
X113923618Y-114248676D01*
X113913922Y-114218665D01*
X113908808Y-114208811D01*
X113799827Y-114072648D01*
X113614050Y-113903275D01*
X113386106Y-113728416D01*
X113150627Y-113575795D01*
X113049250Y-113520661D01*
X112487111Y-113305286D01*
X111896852Y-113202365D01*
X111301033Y-113211698D01*
G37*
X111301033Y-113211698D02*
X110722215Y-113333083D01*
X110220027Y-113545769D01*
X110011256Y-113682163D01*
X109777631Y-113868283D01*
X109614410Y-114019929D01*
X109307525Y-114331500D01*
X111640997Y-114331500D01*
X112246125Y-114331324D01*
X112735991Y-114330373D01*
X113122331Y-114328012D01*
X113416882Y-114323606D01*
X113631383Y-114316520D01*
X113777570Y-114306119D01*
X113867180Y-114291768D01*
X113911950Y-114272831D01*
X113923618Y-114248676D01*
X113913922Y-114218665D01*
X113908808Y-114208811D01*
X113799827Y-114072648D01*
X113614050Y-113903275D01*
X113386106Y-113728416D01*
X113150627Y-113575795D01*
X113049250Y-113520661D01*
X112487111Y-113305286D01*
X111896852Y-113202365D01*
X111301033Y-113211698D01*
G36*
X112383429Y-105093144D02*
G01*
X112163214Y-105182200D01*
X111889023Y-105314349D01*
X111586941Y-105476273D01*
X111283054Y-105654654D01*
X111003446Y-105836174D01*
X111000933Y-105837911D01*
X110503116Y-106242680D01*
X110092275Y-106701542D01*
X109773654Y-107200313D01*
X109552492Y-107724811D01*
X109434033Y-108260853D01*
X109423517Y-108794256D01*
X109526188Y-109310838D01*
X109623956Y-109563545D01*
X109830237Y-109923563D01*
X110085231Y-110226763D01*
X110364606Y-110447997D01*
X110572750Y-110544159D01*
X110625874Y-110554420D01*
X110661891Y-110533087D01*
X110684366Y-110460376D01*
X110696862Y-110316506D01*
X110702941Y-110081695D01*
X110705646Y-109806365D01*
X110723649Y-109307203D01*
X110767256Y-108849460D01*
X110822567Y-108521250D01*
X110893359Y-108221464D01*
X110951837Y-108019511D01*
X110994595Y-107920805D01*
X111018231Y-107930761D01*
X111019339Y-108054791D01*
X111002225Y-108235500D01*
X110981104Y-108495457D01*
X110967669Y-108822886D01*
X110964081Y-109158377D01*
X110965244Y-109251500D01*
X110972020Y-109481518D01*
X110985510Y-109689695D01*
X111009683Y-109899689D01*
X111048507Y-110135163D01*
X111105949Y-110419777D01*
X111185978Y-110777192D01*
X111292560Y-111231068D01*
X111308323Y-111297341D01*
X111365813Y-111562557D01*
X111402608Y-111781045D01*
X111414452Y-111924052D01*
X111406768Y-111962898D01*
X111379045Y-111980119D01*
X111333563Y-111975721D01*
X111251990Y-111940476D01*
X111115994Y-111865157D01*
X110907242Y-111740537D01*
X110636250Y-111575071D01*
X110396511Y-111442652D01*
X110153585Y-111331543D01*
X109984296Y-111272972D01*
X109810085Y-111217737D01*
X109693902Y-111160351D01*
X109674719Y-111141886D01*
X109689235Y-111104552D01*
X109755173Y-111113206D01*
X109899749Y-111149207D01*
X110085903Y-111189846D01*
X110093968Y-111191485D01*
X110294959Y-111246171D01*
X110525071Y-111327636D01*
X110586093Y-111352719D01*
X110767544Y-111415026D01*
X110855186Y-111399693D01*
X110854274Y-111299245D01*
X110770063Y-111106206D01*
X110765531Y-111097410D01*
X110547766Y-110802124D01*
X110258142Y-110599546D01*
X109912701Y-110490717D01*
X109527486Y-110476681D01*
X109118537Y-110558480D01*
X108701895Y-110737155D01*
X108384195Y-110942712D01*
X108155748Y-111131249D01*
X108041689Y-111268020D01*
X108041145Y-111354587D01*
X108133263Y-111390396D01*
X108433865Y-111439392D01*
X108657910Y-111508024D01*
X108855834Y-111616869D01*
X109052066Y-111765194D01*
X109311497Y-111963518D01*
X109523025Y-112086366D01*
X109726279Y-112150280D01*
X109960884Y-112171803D01*
X110027744Y-112172500D01*
X110330569Y-112131819D01*
X110547485Y-112025560D01*
X110763250Y-111878620D01*
X111080750Y-112068476D01*
X111254033Y-112172257D01*
X111376300Y-112245792D01*
X111415442Y-112269649D01*
X111412922Y-112332291D01*
X111388095Y-112481269D01*
X111361616Y-112612115D01*
X111325874Y-112798233D01*
X111309742Y-112923488D01*
X111312674Y-112954756D01*
X111383385Y-112957806D01*
X111537833Y-112952510D01*
X111634160Y-112946986D01*
X111933569Y-112927722D01*
X111919910Y-112513432D01*
X111915312Y-112289573D01*
X111929872Y-112154701D01*
X111978324Y-112070884D01*
X112075405Y-112000184D01*
X112132424Y-111966334D01*
X112358598Y-111833525D01*
X112563302Y-111984870D01*
X112750504Y-112088896D01*
X112972086Y-112131194D01*
X113099128Y-112134552D01*
X113370448Y-112109427D01*
X113617083Y-112026460D01*
X113873815Y-111869817D01*
X114125413Y-111667388D01*
X114351352Y-111497844D01*
X114565307Y-111405576D01*
X114735002Y-111372358D01*
X114922765Y-111339431D01*
X115051297Y-111301912D01*
X115081879Y-111282483D01*
X115057694Y-111211625D01*
X114953772Y-111092714D01*
X114796126Y-110948022D01*
X114610769Y-110799827D01*
X114423711Y-110670402D01*
X114266906Y-110584589D01*
X113856978Y-110456709D01*
X113450960Y-110424037D01*
X113070579Y-110481524D01*
X112737560Y-110624126D01*
X112473633Y-110846796D01*
X112350684Y-111029629D01*
X112268600Y-111208420D01*
X112258759Y-111308090D01*
X112333092Y-111336252D01*
X112503535Y-111300519D01*
X112684125Y-111242349D01*
X112929120Y-111167966D01*
X113153431Y-111115356D01*
X113303250Y-111096278D01*
X113374367Y-111105606D01*
X113343075Y-111136757D01*
X113201644Y-111194487D01*
X113066504Y-111241885D01*
X112782940Y-111357200D01*
X112488866Y-111505774D01*
X112299856Y-111621245D01*
X112116083Y-111741813D01*
X111970777Y-111826222D01*
X111900044Y-111855000D01*
X111861270Y-111797274D01*
X111814544Y-111644858D01*
X111769118Y-111428888D01*
X111763268Y-111394625D01*
X111720426Y-111148831D01*
X111680175Y-110938982D01*
X111650916Y-110808773D01*
X111649928Y-110805260D01*
X111649588Y-110709869D01*
X111729885Y-110631830D01*
X111854851Y-110569026D01*
X112252606Y-110325509D01*
X112576774Y-109987926D01*
X112817010Y-109572342D01*
X112962970Y-109094823D01*
X113000758Y-108789210D01*
X113004143Y-108515030D01*
X112974997Y-108249400D01*
X112906138Y-107962732D01*
X112790380Y-107625438D01*
X112620539Y-107207928D01*
X112611924Y-107187750D01*
X112474204Y-106705581D01*
X112455582Y-106187010D01*
X112541250Y-105695500D01*
X112611825Y-105396381D01*
X112632573Y-105200203D01*
X112603102Y-105092923D01*
X112523584Y-105060500D01*
X112383429Y-105093144D01*
G37*
X112383429Y-105093144D02*
X112163214Y-105182200D01*
X111889023Y-105314349D01*
X111586941Y-105476273D01*
X111283054Y-105654654D01*
X111003446Y-105836174D01*
X111000933Y-105837911D01*
X110503116Y-106242680D01*
X110092275Y-106701542D01*
X109773654Y-107200313D01*
X109552492Y-107724811D01*
X109434033Y-108260853D01*
X109423517Y-108794256D01*
X109526188Y-109310838D01*
X109623956Y-109563545D01*
X109830237Y-109923563D01*
X110085231Y-110226763D01*
X110364606Y-110447997D01*
X110572750Y-110544159D01*
X110625874Y-110554420D01*
X110661891Y-110533087D01*
X110684366Y-110460376D01*
X110696862Y-110316506D01*
X110702941Y-110081695D01*
X110705646Y-109806365D01*
X110723649Y-109307203D01*
X110767256Y-108849460D01*
X110822567Y-108521250D01*
X110893359Y-108221464D01*
X110951837Y-108019511D01*
X110994595Y-107920805D01*
X111018231Y-107930761D01*
X111019339Y-108054791D01*
X111002225Y-108235500D01*
X110981104Y-108495457D01*
X110967669Y-108822886D01*
X110964081Y-109158377D01*
X110965244Y-109251500D01*
X110972020Y-109481518D01*
X110985510Y-109689695D01*
X111009683Y-109899689D01*
X111048507Y-110135163D01*
X111105949Y-110419777D01*
X111185978Y-110777192D01*
X111292560Y-111231068D01*
X111308323Y-111297341D01*
X111365813Y-111562557D01*
X111402608Y-111781045D01*
X111414452Y-111924052D01*
X111406768Y-111962898D01*
X111379045Y-111980119D01*
X111333563Y-111975721D01*
X111251990Y-111940476D01*
X111115994Y-111865157D01*
X110907242Y-111740537D01*
X110636250Y-111575071D01*
X110396511Y-111442652D01*
X110153585Y-111331543D01*
X109984296Y-111272972D01*
X109810085Y-111217737D01*
X109693902Y-111160351D01*
X109674719Y-111141886D01*
X109689235Y-111104552D01*
X109755173Y-111113206D01*
X109899749Y-111149207D01*
X110085903Y-111189846D01*
X110093968Y-111191485D01*
X110294959Y-111246171D01*
X110525071Y-111327636D01*
X110586093Y-111352719D01*
X110767544Y-111415026D01*
X110855186Y-111399693D01*
X110854274Y-111299245D01*
X110770063Y-111106206D01*
X110765531Y-111097410D01*
X110547766Y-110802124D01*
X110258142Y-110599546D01*
X109912701Y-110490717D01*
X109527486Y-110476681D01*
X109118537Y-110558480D01*
X108701895Y-110737155D01*
X108384195Y-110942712D01*
X108155748Y-111131249D01*
X108041689Y-111268020D01*
X108041145Y-111354587D01*
X108133263Y-111390396D01*
X108433865Y-111439392D01*
X108657910Y-111508024D01*
X108855834Y-111616869D01*
X109052066Y-111765194D01*
X109311497Y-111963518D01*
X109523025Y-112086366D01*
X109726279Y-112150280D01*
X109960884Y-112171803D01*
X110027744Y-112172500D01*
X110330569Y-112131819D01*
X110547485Y-112025560D01*
X110763250Y-111878620D01*
X111080750Y-112068476D01*
X111254033Y-112172257D01*
X111376300Y-112245792D01*
X111415442Y-112269649D01*
X111412922Y-112332291D01*
X111388095Y-112481269D01*
X111361616Y-112612115D01*
X111325874Y-112798233D01*
X111309742Y-112923488D01*
X111312674Y-112954756D01*
X111383385Y-112957806D01*
X111537833Y-112952510D01*
X111634160Y-112946986D01*
X111933569Y-112927722D01*
X111919910Y-112513432D01*
X111915312Y-112289573D01*
X111929872Y-112154701D01*
X111978324Y-112070884D01*
X112075405Y-112000184D01*
X112132424Y-111966334D01*
X112358598Y-111833525D01*
X112563302Y-111984870D01*
X112750504Y-112088896D01*
X112972086Y-112131194D01*
X113099128Y-112134552D01*
X113370448Y-112109427D01*
X113617083Y-112026460D01*
X113873815Y-111869817D01*
X114125413Y-111667388D01*
X114351352Y-111497844D01*
X114565307Y-111405576D01*
X114735002Y-111372358D01*
X114922765Y-111339431D01*
X115051297Y-111301912D01*
X115081879Y-111282483D01*
X115057694Y-111211625D01*
X114953772Y-111092714D01*
X114796126Y-110948022D01*
X114610769Y-110799827D01*
X114423711Y-110670402D01*
X114266906Y-110584589D01*
X113856978Y-110456709D01*
X113450960Y-110424037D01*
X113070579Y-110481524D01*
X112737560Y-110624126D01*
X112473633Y-110846796D01*
X112350684Y-111029629D01*
X112268600Y-111208420D01*
X112258759Y-111308090D01*
X112333092Y-111336252D01*
X112503535Y-111300519D01*
X112684125Y-111242349D01*
X112929120Y-111167966D01*
X113153431Y-111115356D01*
X113303250Y-111096278D01*
X113374367Y-111105606D01*
X113343075Y-111136757D01*
X113201644Y-111194487D01*
X113066504Y-111241885D01*
X112782940Y-111357200D01*
X112488866Y-111505774D01*
X112299856Y-111621245D01*
X112116083Y-111741813D01*
X111970777Y-111826222D01*
X111900044Y-111855000D01*
X111861270Y-111797274D01*
X111814544Y-111644858D01*
X111769118Y-111428888D01*
X111763268Y-111394625D01*
X111720426Y-111148831D01*
X111680175Y-110938982D01*
X111650916Y-110808773D01*
X111649928Y-110805260D01*
X111649588Y-110709869D01*
X111729885Y-110631830D01*
X111854851Y-110569026D01*
X112252606Y-110325509D01*
X112576774Y-109987926D01*
X112817010Y-109572342D01*
X112962970Y-109094823D01*
X113000758Y-108789210D01*
X113004143Y-108515030D01*
X112974997Y-108249400D01*
X112906138Y-107962732D01*
X112790380Y-107625438D01*
X112620539Y-107207928D01*
X112611924Y-107187750D01*
X112474204Y-106705581D01*
X112455582Y-106187010D01*
X112541250Y-105695500D01*
X112611825Y-105396381D01*
X112632573Y-105200203D01*
X112603102Y-105092923D01*
X112523584Y-105060500D01*
X112383429Y-105093144D01*
D13*
X86675000Y-59365000D02*
X86675000Y-78625000D01*
X113375000Y-59365000D02*
X86675000Y-59365000D01*
X113375000Y-78625000D02*
X113375000Y-59365000D01*
X86675000Y-78625000D02*
X113375000Y-78625000D01*
X112633000Y-61485000D02*
X87350000Y-61475000D01*
X112650000Y-78075000D02*
X112633000Y-61485000D01*
X87350000Y-78075000D02*
X112650000Y-78075000D01*
X87350000Y-61475000D02*
X87350000Y-78075000D01*
X94000000Y-59350000D02*
X94000000Y-55000000D01*
X106000000Y-59350000D02*
X106000000Y-55000000D01*
X94375000Y-83076000D02*
X94375000Y-95076000D01*
X106374000Y-83076000D02*
X94374000Y-83076000D01*
X106375000Y-95076000D02*
X106375000Y-83076000D01*
X94375000Y-95076000D02*
X106375000Y-95076000D01*
X95295000Y-84250000D02*
X95295000Y-93902000D01*
X95295000Y-93902000D02*
X95549000Y-94156000D01*
X95549000Y-94156000D02*
X105201000Y-94156000D01*
X105201000Y-94156000D02*
X105455000Y-93902000D01*
X105455000Y-93902000D02*
X105455000Y-84250000D01*
X105455000Y-84250000D02*
X105201000Y-83996000D01*
X105201000Y-83996000D02*
X95549000Y-83996000D01*
X95549000Y-83996000D02*
X95295000Y-84250000D01*
X97327000Y-85266000D02*
G75*
G03*
X97327000Y-85266000I-762000J0D01*
G01*
X97327000Y-92886000D02*
G75*
G03*
X97327000Y-92886000I-762000J0D01*
G01*
X104947000Y-85266000D02*
G75*
G03*
X104947000Y-85266000I-762000J0D01*
G01*
X104947000Y-92886000D02*
G75*
G03*
X104947000Y-92886000I-762000J0D01*
G01*
X103677000Y-89076000D02*
G75*
G03*
X103677000Y-89076000I-3302000J0D01*
G01*
X103375000Y-89076000D02*
G75*
G03*
X103375000Y-89076000I-3000000J0D01*
G01*
X82025000Y-83100000D02*
X82025000Y-95100000D01*
X94024000Y-83100000D02*
X82024000Y-83100000D01*
X94025000Y-95100000D02*
X94025000Y-83100000D01*
X82025000Y-95100000D02*
X94025000Y-95100000D01*
X82945000Y-84274000D02*
X82945000Y-93926000D01*
X82945000Y-93926000D02*
X83199000Y-94180000D01*
X83199000Y-94180000D02*
X92851000Y-94180000D01*
X92851000Y-94180000D02*
X93105000Y-93926000D01*
X93105000Y-93926000D02*
X93105000Y-84274000D01*
X93105000Y-84274000D02*
X92851000Y-84020000D01*
X92851000Y-84020000D02*
X83199000Y-84020000D01*
X83199000Y-84020000D02*
X82945000Y-84274000D01*
X84977000Y-85290000D02*
G75*
G03*
X84977000Y-85290000I-762000J0D01*
G01*
X84977000Y-92910000D02*
G75*
G03*
X84977000Y-92910000I-762000J0D01*
G01*
X92597000Y-85290000D02*
G75*
G03*
X92597000Y-85290000I-762000J0D01*
G01*
X92597000Y-92910000D02*
G75*
G03*
X92597000Y-92910000I-762000J0D01*
G01*
X91327000Y-89100000D02*
G75*
G03*
X91327000Y-89100000I-3302000J0D01*
G01*
X91025000Y-89100000D02*
G75*
G03*
X91025000Y-89100000I-3000000J0D01*
G01*
X106500000Y-98025000D02*
X94500000Y-98025000D01*
X106500000Y-110024000D02*
X106500000Y-98024000D01*
X94500000Y-110025000D02*
X106500000Y-110025000D01*
X94500000Y-98025000D02*
X94500000Y-110025000D01*
X105326000Y-98945000D02*
X95674000Y-98945000D01*
X95674000Y-98945000D02*
X95420000Y-99199000D01*
X95420000Y-99199000D02*
X95420000Y-108851000D01*
X95420000Y-108851000D02*
X95674000Y-109105000D01*
X95674000Y-109105000D02*
X105326000Y-109105000D01*
X105326000Y-109105000D02*
X105580000Y-108851000D01*
X105580000Y-108851000D02*
X105580000Y-99199000D01*
X105580000Y-99199000D02*
X105326000Y-98945000D01*
X105072000Y-100215000D02*
G75*
G03*
X105072000Y-100215000I-762000J0D01*
G01*
X97452000Y-100215000D02*
G75*
G03*
X97452000Y-100215000I-762000J0D01*
G01*
X105072000Y-107835000D02*
G75*
G03*
X105072000Y-107835000I-762000J0D01*
G01*
X97452000Y-107835000D02*
G75*
G03*
X97452000Y-107835000I-762000J0D01*
G01*
X103802000Y-104025000D02*
G75*
G03*
X103802000Y-104025000I-3302000J0D01*
G01*
X103500000Y-104025000D02*
G75*
G03*
X103500000Y-104025000I-3000000J0D01*
G01*
X80825000Y-59800000D02*
X78325000Y-59800000D01*
X80625000Y-55400000D02*
X78325000Y-55400000D01*
X78825000Y-55400000D02*
X78825000Y-56100000D01*
X78825000Y-56100000D02*
X80325000Y-56100000D01*
X80325000Y-56100000D02*
X80325000Y-56700000D01*
X80325000Y-56700000D02*
X78825000Y-56700000D01*
X78825000Y-56700000D02*
X78825000Y-57400000D01*
X78825000Y-57400000D02*
X80325000Y-57400000D01*
X80325000Y-58000000D02*
X78825000Y-58000000D01*
X78825000Y-58000000D02*
X78825000Y-58500000D01*
X78825000Y-58500000D02*
X80425000Y-58500000D01*
X80425000Y-58500000D02*
X80425000Y-59000000D01*
X80425000Y-59000000D02*
X78825000Y-59000000D01*
X78825000Y-59000000D02*
X78825000Y-59800000D01*
X80624071Y-55398093D02*
G75*
G02*
X80825000Y-59801000I-764071J-2240907D01*
G01*
X78324903Y-59800962D02*
G75*
G02*
X78325000Y-55399000I861097J2200962D01*
G01*
D10*
X114054523Y-89529761D02*
X113911666Y-89577380D01*
X113673571Y-89577380D01*
X113578333Y-89529761D01*
X113530714Y-89482142D01*
X113483095Y-89386904D01*
X113483095Y-89291666D01*
X113530714Y-89196428D01*
X113578333Y-89148809D01*
X113673571Y-89101190D01*
X113864047Y-89053571D01*
X113959285Y-89005952D01*
X114006904Y-88958333D01*
X114054523Y-88863095D01*
X114054523Y-88767857D01*
X114006904Y-88672619D01*
X113959285Y-88625000D01*
X113864047Y-88577380D01*
X113625952Y-88577380D01*
X113483095Y-88625000D01*
X113149761Y-88577380D02*
X112911666Y-89577380D01*
X112721190Y-88863095D01*
X112530714Y-89577380D01*
X112292619Y-88577380D01*
X111435476Y-88577380D02*
X111911666Y-88577380D01*
X111959285Y-89053571D01*
X111911666Y-89005952D01*
X111816428Y-88958333D01*
X111578333Y-88958333D01*
X111483095Y-89005952D01*
X111435476Y-89053571D01*
X111387857Y-89148809D01*
X111387857Y-89386904D01*
X111435476Y-89482142D01*
X111483095Y-89529761D01*
X111578333Y-89577380D01*
X111816428Y-89577380D01*
X111911666Y-89529761D01*
X111959285Y-89482142D01*
X101629523Y-89529761D02*
X101486666Y-89577380D01*
X101248571Y-89577380D01*
X101153333Y-89529761D01*
X101105714Y-89482142D01*
X101058095Y-89386904D01*
X101058095Y-89291666D01*
X101105714Y-89196428D01*
X101153333Y-89148809D01*
X101248571Y-89101190D01*
X101439047Y-89053571D01*
X101534285Y-89005952D01*
X101581904Y-88958333D01*
X101629523Y-88863095D01*
X101629523Y-88767857D01*
X101581904Y-88672619D01*
X101534285Y-88625000D01*
X101439047Y-88577380D01*
X101200952Y-88577380D01*
X101058095Y-88625000D01*
X100724761Y-88577380D02*
X100486666Y-89577380D01*
X100296190Y-88863095D01*
X100105714Y-89577380D01*
X99867619Y-88577380D01*
X99058095Y-88910714D02*
X99058095Y-89577380D01*
X99296190Y-88529761D02*
X99534285Y-89244047D01*
X98915238Y-89244047D01*
X89154523Y-89629761D02*
X89011666Y-89677380D01*
X88773571Y-89677380D01*
X88678333Y-89629761D01*
X88630714Y-89582142D01*
X88583095Y-89486904D01*
X88583095Y-89391666D01*
X88630714Y-89296428D01*
X88678333Y-89248809D01*
X88773571Y-89201190D01*
X88964047Y-89153571D01*
X89059285Y-89105952D01*
X89106904Y-89058333D01*
X89154523Y-88963095D01*
X89154523Y-88867857D01*
X89106904Y-88772619D01*
X89059285Y-88725000D01*
X88964047Y-88677380D01*
X88725952Y-88677380D01*
X88583095Y-88725000D01*
X88249761Y-88677380D02*
X88011666Y-89677380D01*
X87821190Y-88963095D01*
X87630714Y-89677380D01*
X87392619Y-88677380D01*
X87106904Y-88677380D02*
X86487857Y-88677380D01*
X86821190Y-89058333D01*
X86678333Y-89058333D01*
X86583095Y-89105952D01*
X86535476Y-89153571D01*
X86487857Y-89248809D01*
X86487857Y-89486904D01*
X86535476Y-89582142D01*
X86583095Y-89629761D01*
X86678333Y-89677380D01*
X86964047Y-89677380D01*
X87059285Y-89629761D01*
X87106904Y-89582142D01*
X101749523Y-104554761D02*
X101606666Y-104602380D01*
X101368571Y-104602380D01*
X101273333Y-104554761D01*
X101225714Y-104507142D01*
X101178095Y-104411904D01*
X101178095Y-104316666D01*
X101225714Y-104221428D01*
X101273333Y-104173809D01*
X101368571Y-104126190D01*
X101559047Y-104078571D01*
X101654285Y-104030952D01*
X101701904Y-103983333D01*
X101749523Y-103888095D01*
X101749523Y-103792857D01*
X101701904Y-103697619D01*
X101654285Y-103650000D01*
X101559047Y-103602380D01*
X101320952Y-103602380D01*
X101178095Y-103650000D01*
X100844761Y-103602380D02*
X100606666Y-104602380D01*
X100416190Y-103888095D01*
X100225714Y-104602380D01*
X99987619Y-103602380D01*
X99654285Y-103697619D02*
X99606666Y-103650000D01*
X99511428Y-103602380D01*
X99273333Y-103602380D01*
X99178095Y-103650000D01*
X99130476Y-103697619D01*
X99082857Y-103792857D01*
X99082857Y-103888095D01*
X99130476Y-104030952D01*
X99701904Y-104602380D01*
X99082857Y-104602380D01*
%LPC*%
D15*
X115250000Y-96212000D03*
X115250000Y-81988000D03*
X110250000Y-96212000D03*
X110250000Y-81988000D03*
D16*
X118125000Y-69052000D03*
X118125000Y-82168000D03*
D17*
X115375000Y-72110000D03*
X115375000Y-74610000D03*
X115375000Y-76610000D03*
X115375000Y-79110000D03*
D18*
X117460000Y-59770000D03*
X117460000Y-57230000D03*
X120000000Y-59770000D03*
X120000000Y-57230000D03*
X122540000Y-59770000D03*
D19*
X122540000Y-57230000D03*
D20*
X108000000Y-56900000D03*
X92000000Y-56900000D03*
D21*
X79490000Y-86830000D03*
D22*
X79490000Y-89370000D03*
X79490000Y-91910000D03*
X79490000Y-94450000D03*
X76950000Y-86830000D03*
X76950000Y-89370000D03*
X76950000Y-91910000D03*
X76950000Y-94450000D03*
D15*
X102850000Y-96188000D03*
X102850000Y-81964000D03*
X97850000Y-96188000D03*
X97850000Y-81964000D03*
X90500000Y-96212000D03*
X90500000Y-81988000D03*
X85500000Y-96212000D03*
X85500000Y-81988000D03*
D23*
X78300000Y-75040000D03*
X78300000Y-69960000D03*
D24*
X93388000Y-106500000D03*
X107612000Y-106500000D03*
X93388000Y-101500000D03*
X107612000Y-101500000D03*
D18*
X77825000Y-57700000D03*
X81225000Y-57700000D03*
D25*
X83400000Y-81975000D03*
X83400000Y-79975000D03*
X83400000Y-77975000D03*
D26*
X77500000Y-77975000D03*
X77500000Y-81975000D03*
M02*
