G04 #@! TF.GenerationSoftware,KiCad,Pcbnew,(5.1.9-0-10_14)*
G04 #@! TF.CreationDate,2021-04-26T19:25:28+02:00*
G04 #@! TF.ProjectId,Le_kube,4c655f6b-7562-4652-9e6b-696361645f70,rev?*
G04 #@! TF.SameCoordinates,Original*
G04 #@! TF.FileFunction,Copper,L1,Top*
G04 #@! TF.FilePolarity,Positive*
%FSLAX46Y46*%
G04 Gerber Fmt 4.6, Leading zero omitted, Abs format (unit mm)*
G04 Created by KiCad (PCBNEW (5.1.9-0-10_14)) date 2021-04-26 19:25:28*
%MOMM*%
%LPD*%
G01*
G04 APERTURE LIST*
G04 #@! TA.AperFunction,ComponentPad*
%ADD10O,3.500000X2.000000*%
G04 #@! TD*
G04 #@! TA.AperFunction,ComponentPad*
%ADD11C,1.600000*%
G04 #@! TD*
G04 #@! TA.AperFunction,ComponentPad*
%ADD12C,1.524000*%
G04 #@! TD*
G04 #@! TA.AperFunction,ComponentPad*
%ADD13R,1.524000X1.524000*%
G04 #@! TD*
G04 #@! TA.AperFunction,SMDPad,CuDef*
%ADD14R,0.351000X2.499000*%
G04 #@! TD*
G04 #@! TA.AperFunction,ComponentPad*
%ADD15R,1.800000X1.800000*%
G04 #@! TD*
G04 #@! TA.AperFunction,ComponentPad*
%ADD16C,1.800000*%
G04 #@! TD*
G04 #@! TA.AperFunction,SMDPad,CuDef*
%ADD17R,2.200000X1.100000*%
G04 #@! TD*
G04 #@! TA.AperFunction,SMDPad,CuDef*
%ADD18R,2.200000X3.500000*%
G04 #@! TD*
G04 #@! TA.AperFunction,SMDPad,CuDef*
%ADD19R,6.200000X5.800000*%
G04 #@! TD*
G04 #@! TA.AperFunction,SMDPad,CuDef*
%ADD20R,3.000000X1.600000*%
G04 #@! TD*
G04 #@! TA.AperFunction,ComponentPad*
%ADD21O,2.000000X1.300000*%
G04 #@! TD*
G04 #@! TA.AperFunction,SMDPad,CuDef*
%ADD22R,5.500000X2.000000*%
G04 #@! TD*
G04 #@! TA.AperFunction,SMDPad,CuDef*
%ADD23O,0.600000X1.520000*%
G04 #@! TD*
G04 #@! TA.AperFunction,SMDPad,CuDef*
%ADD24O,0.450000X1.650000*%
G04 #@! TD*
G04 #@! TA.AperFunction,SMDPad,CuDef*
%ADD25O,1.650000X0.450000*%
G04 #@! TD*
G04 #@! TA.AperFunction,ComponentPad*
%ADD26O,2.000000X1.200000*%
G04 #@! TD*
G04 #@! TA.AperFunction,SMDPad,CuDef*
%ADD27R,1.000000X1.000000*%
G04 #@! TD*
G04 #@! TA.AperFunction,ViaPad*
%ADD28C,0.800000*%
G04 #@! TD*
G04 #@! TA.AperFunction,Conductor*
%ADD29C,0.400000*%
G04 #@! TD*
G04 #@! TA.AperFunction,Conductor*
%ADD30C,0.250000*%
G04 #@! TD*
G04 APERTURE END LIST*
D10*
X118125000Y-69052000D03*
X118125000Y-82168000D03*
D11*
X115375000Y-72110000D03*
X115375000Y-74610000D03*
X115375000Y-76610000D03*
X115375000Y-79110000D03*
G04 #@! TA.AperFunction,SMDPad,CuDef*
G36*
G01*
X108862500Y-79602500D02*
X108862500Y-80077500D01*
G75*
G02*
X108625000Y-80315000I-237500J0D01*
G01*
X108125000Y-80315000D01*
G75*
G02*
X107887500Y-80077500I0J237500D01*
G01*
X107887500Y-79602500D01*
G75*
G02*
X108125000Y-79365000I237500J0D01*
G01*
X108625000Y-79365000D01*
G75*
G02*
X108862500Y-79602500I0J-237500D01*
G01*
G37*
G04 #@! TD.AperFunction*
G04 #@! TA.AperFunction,SMDPad,CuDef*
G36*
G01*
X110687500Y-79602500D02*
X110687500Y-80077500D01*
G75*
G02*
X110450000Y-80315000I-237500J0D01*
G01*
X109950000Y-80315000D01*
G75*
G02*
X109712500Y-80077500I0J237500D01*
G01*
X109712500Y-79602500D01*
G75*
G02*
X109950000Y-79365000I237500J0D01*
G01*
X110450000Y-79365000D01*
G75*
G02*
X110687500Y-79602500I0J-237500D01*
G01*
G37*
G04 #@! TD.AperFunction*
G04 #@! TA.AperFunction,SMDPad,CuDef*
G36*
G01*
X93617500Y-81507500D02*
X93617500Y-81032500D01*
G75*
G02*
X93855000Y-80795000I237500J0D01*
G01*
X94355000Y-80795000D01*
G75*
G02*
X94592500Y-81032500I0J-237500D01*
G01*
X94592500Y-81507500D01*
G75*
G02*
X94355000Y-81745000I-237500J0D01*
G01*
X93855000Y-81745000D01*
G75*
G02*
X93617500Y-81507500I0J237500D01*
G01*
G37*
G04 #@! TD.AperFunction*
G04 #@! TA.AperFunction,SMDPad,CuDef*
G36*
G01*
X91792500Y-81507500D02*
X91792500Y-81032500D01*
G75*
G02*
X92030000Y-80795000I237500J0D01*
G01*
X92530000Y-80795000D01*
G75*
G02*
X92767500Y-81032500I0J-237500D01*
G01*
X92767500Y-81507500D01*
G75*
G02*
X92530000Y-81745000I-237500J0D01*
G01*
X92030000Y-81745000D01*
G75*
G02*
X91792500Y-81507500I0J237500D01*
G01*
G37*
G04 #@! TD.AperFunction*
G04 #@! TA.AperFunction,SMDPad,CuDef*
G36*
G01*
X85272500Y-78472500D02*
X85747500Y-78472500D01*
G75*
G02*
X85985000Y-78710000I0J-237500D01*
G01*
X85985000Y-79210000D01*
G75*
G02*
X85747500Y-79447500I-237500J0D01*
G01*
X85272500Y-79447500D01*
G75*
G02*
X85035000Y-79210000I0J237500D01*
G01*
X85035000Y-78710000D01*
G75*
G02*
X85272500Y-78472500I237500J0D01*
G01*
G37*
G04 #@! TD.AperFunction*
G04 #@! TA.AperFunction,SMDPad,CuDef*
G36*
G01*
X85272500Y-76647500D02*
X85747500Y-76647500D01*
G75*
G02*
X85985000Y-76885000I0J-237500D01*
G01*
X85985000Y-77385000D01*
G75*
G02*
X85747500Y-77622500I-237500J0D01*
G01*
X85272500Y-77622500D01*
G75*
G02*
X85035000Y-77385000I0J237500D01*
G01*
X85035000Y-76885000D01*
G75*
G02*
X85272500Y-76647500I237500J0D01*
G01*
G37*
G04 #@! TD.AperFunction*
D12*
X117460000Y-59770000D03*
X117460000Y-57230000D03*
X120000000Y-59770000D03*
X120000000Y-57230000D03*
X122540000Y-59770000D03*
D13*
X122540000Y-57230000D03*
D14*
X110149000Y-59998000D03*
X109450000Y-59998000D03*
X108751000Y-59999000D03*
X108056000Y-60000000D03*
X107356000Y-60000000D03*
X106656000Y-60000000D03*
X105956000Y-60000000D03*
X105256000Y-60000000D03*
X104556000Y-60000000D03*
X103856000Y-60000000D03*
X103156000Y-60000000D03*
X102456000Y-60000000D03*
X101756000Y-60000000D03*
X101056000Y-60000000D03*
X100356000Y-60000000D03*
X99656000Y-60000000D03*
X98956000Y-60000000D03*
X98256000Y-60000000D03*
X97556000Y-60000000D03*
X96856000Y-60000000D03*
X96156000Y-60000000D03*
X95456000Y-60000000D03*
X94756000Y-60000000D03*
X94056000Y-60000000D03*
X93356000Y-60000000D03*
X92656000Y-60000000D03*
X91956000Y-60000000D03*
X91256000Y-60000000D03*
X90556000Y-60000000D03*
X89851000Y-60002000D03*
D15*
X79490000Y-86830000D03*
D16*
X79490000Y-89370000D03*
X79490000Y-91910000D03*
X79490000Y-94450000D03*
X76950000Y-86830000D03*
X76950000Y-89370000D03*
X76950000Y-91910000D03*
X76950000Y-94450000D03*
D17*
X83223000Y-66950000D03*
X83223000Y-64650000D03*
X83223000Y-62350000D03*
D18*
X77025000Y-64650000D03*
G04 #@! TA.AperFunction,SMDPad,CuDef*
G36*
G01*
X87037500Y-63925000D02*
X86562500Y-63925000D01*
G75*
G02*
X86325000Y-63687500I0J237500D01*
G01*
X86325000Y-63087500D01*
G75*
G02*
X86562500Y-62850000I237500J0D01*
G01*
X87037500Y-62850000D01*
G75*
G02*
X87275000Y-63087500I0J-237500D01*
G01*
X87275000Y-63687500D01*
G75*
G02*
X87037500Y-63925000I-237500J0D01*
G01*
G37*
G04 #@! TD.AperFunction*
G04 #@! TA.AperFunction,SMDPad,CuDef*
G36*
G01*
X87037500Y-65650000D02*
X86562500Y-65650000D01*
G75*
G02*
X86325000Y-65412500I0J237500D01*
G01*
X86325000Y-64812500D01*
G75*
G02*
X86562500Y-64575000I237500J0D01*
G01*
X87037500Y-64575000D01*
G75*
G02*
X87275000Y-64812500I0J-237500D01*
G01*
X87275000Y-65412500D01*
G75*
G02*
X87037500Y-65650000I-237500J0D01*
G01*
G37*
G04 #@! TD.AperFunction*
G04 #@! TA.AperFunction,SMDPad,CuDef*
G36*
G01*
X88537500Y-63925000D02*
X88062500Y-63925000D01*
G75*
G02*
X87825000Y-63687500I0J237500D01*
G01*
X87825000Y-63087500D01*
G75*
G02*
X88062500Y-62850000I237500J0D01*
G01*
X88537500Y-62850000D01*
G75*
G02*
X88775000Y-63087500I0J-237500D01*
G01*
X88775000Y-63687500D01*
G75*
G02*
X88537500Y-63925000I-237500J0D01*
G01*
G37*
G04 #@! TD.AperFunction*
G04 #@! TA.AperFunction,SMDPad,CuDef*
G36*
G01*
X88537500Y-65650000D02*
X88062500Y-65650000D01*
G75*
G02*
X87825000Y-65412500I0J237500D01*
G01*
X87825000Y-64812500D01*
G75*
G02*
X88062500Y-64575000I237500J0D01*
G01*
X88537500Y-64575000D01*
G75*
G02*
X88775000Y-64812500I0J-237500D01*
G01*
X88775000Y-65412500D01*
G75*
G02*
X88537500Y-65650000I-237500J0D01*
G01*
G37*
G04 #@! TD.AperFunction*
G04 #@! TA.AperFunction,SMDPad,CuDef*
G36*
G01*
X86912500Y-61200000D02*
X87387500Y-61200000D01*
G75*
G02*
X87625000Y-61437500I0J-237500D01*
G01*
X87625000Y-62037500D01*
G75*
G02*
X87387500Y-62275000I-237500J0D01*
G01*
X86912500Y-62275000D01*
G75*
G02*
X86675000Y-62037500I0J237500D01*
G01*
X86675000Y-61437500D01*
G75*
G02*
X86912500Y-61200000I237500J0D01*
G01*
G37*
G04 #@! TD.AperFunction*
G04 #@! TA.AperFunction,SMDPad,CuDef*
G36*
G01*
X86912500Y-59475000D02*
X87387500Y-59475000D01*
G75*
G02*
X87625000Y-59712500I0J-237500D01*
G01*
X87625000Y-60312500D01*
G75*
G02*
X87387500Y-60550000I-237500J0D01*
G01*
X86912500Y-60550000D01*
G75*
G02*
X86675000Y-60312500I0J237500D01*
G01*
X86675000Y-59712500D01*
G75*
G02*
X86912500Y-59475000I237500J0D01*
G01*
G37*
G04 #@! TD.AperFunction*
G04 #@! TA.AperFunction,SMDPad,CuDef*
G36*
G01*
X85537500Y-63925000D02*
X85062500Y-63925000D01*
G75*
G02*
X84825000Y-63687500I0J237500D01*
G01*
X84825000Y-63087500D01*
G75*
G02*
X85062500Y-62850000I237500J0D01*
G01*
X85537500Y-62850000D01*
G75*
G02*
X85775000Y-63087500I0J-237500D01*
G01*
X85775000Y-63687500D01*
G75*
G02*
X85537500Y-63925000I-237500J0D01*
G01*
G37*
G04 #@! TD.AperFunction*
G04 #@! TA.AperFunction,SMDPad,CuDef*
G36*
G01*
X85537500Y-65650000D02*
X85062500Y-65650000D01*
G75*
G02*
X84825000Y-65412500I0J237500D01*
G01*
X84825000Y-64812500D01*
G75*
G02*
X85062500Y-64575000I237500J0D01*
G01*
X85537500Y-64575000D01*
G75*
G02*
X85775000Y-64812500I0J-237500D01*
G01*
X85775000Y-65412500D01*
G75*
G02*
X85537500Y-65650000I-237500J0D01*
G01*
G37*
G04 #@! TD.AperFunction*
G04 #@! TA.AperFunction,SMDPad,CuDef*
G36*
G01*
X95262500Y-106925000D02*
X95737500Y-106925000D01*
G75*
G02*
X95975000Y-107162500I0J-237500D01*
G01*
X95975000Y-107662500D01*
G75*
G02*
X95737500Y-107900000I-237500J0D01*
G01*
X95262500Y-107900000D01*
G75*
G02*
X95025000Y-107662500I0J237500D01*
G01*
X95025000Y-107162500D01*
G75*
G02*
X95262500Y-106925000I237500J0D01*
G01*
G37*
G04 #@! TD.AperFunction*
G04 #@! TA.AperFunction,SMDPad,CuDef*
G36*
G01*
X95262500Y-105100000D02*
X95737500Y-105100000D01*
G75*
G02*
X95975000Y-105337500I0J-237500D01*
G01*
X95975000Y-105837500D01*
G75*
G02*
X95737500Y-106075000I-237500J0D01*
G01*
X95262500Y-106075000D01*
G75*
G02*
X95025000Y-105837500I0J237500D01*
G01*
X95025000Y-105337500D01*
G75*
G02*
X95262500Y-105100000I237500J0D01*
G01*
G37*
G04 #@! TD.AperFunction*
D19*
X115660000Y-64025000D03*
D20*
X122840000Y-61710000D03*
X122840000Y-66290000D03*
D21*
X78300000Y-75040000D03*
X78300000Y-69960000D03*
D22*
X105150000Y-86800000D03*
X95650000Y-86800000D03*
D23*
X105405000Y-96760000D03*
X104135000Y-96760000D03*
X102865000Y-96760000D03*
X101595000Y-96760000D03*
X105405000Y-102240000D03*
X104135000Y-102240000D03*
X102865000Y-102240000D03*
X101595000Y-102240000D03*
X98405000Y-96760000D03*
X97135000Y-96760000D03*
X95865000Y-96760000D03*
X94595000Y-96760000D03*
X98405000Y-102240000D03*
X97135000Y-102240000D03*
X95865000Y-102240000D03*
X94595000Y-102240000D03*
D24*
X97693000Y-82089000D03*
X98493000Y-82089000D03*
X99293000Y-82089000D03*
X100093000Y-82089000D03*
X100891000Y-82089000D03*
X101691000Y-82089000D03*
X102491000Y-82089000D03*
X103291000Y-82089000D03*
D25*
X104891000Y-80524000D03*
X104891000Y-79724000D03*
X104891000Y-78924000D03*
X104891000Y-78124000D03*
X104891000Y-77326000D03*
X104891000Y-76526000D03*
X104891000Y-75726000D03*
X104891000Y-74926000D03*
D24*
X103301000Y-73351000D03*
X102501000Y-73351000D03*
X101701000Y-73351000D03*
X100901000Y-73351000D03*
X100104000Y-73351000D03*
X99303000Y-73351000D03*
X98503000Y-73351000D03*
X97703000Y-73351000D03*
D25*
X96129000Y-74916000D03*
X96129000Y-75716000D03*
X96129000Y-76516000D03*
X96129000Y-77316000D03*
X96129000Y-78114000D03*
X96129000Y-78914000D03*
X96129000Y-79714000D03*
X96129000Y-80514000D03*
G04 #@! TA.AperFunction,SMDPad,CuDef*
G36*
G01*
X123425000Y-63991500D02*
X123425000Y-63516500D01*
G75*
G02*
X123662500Y-63279000I237500J0D01*
G01*
X124162500Y-63279000D01*
G75*
G02*
X124400000Y-63516500I0J-237500D01*
G01*
X124400000Y-63991500D01*
G75*
G02*
X124162500Y-64229000I-237500J0D01*
G01*
X123662500Y-64229000D01*
G75*
G02*
X123425000Y-63991500I0J237500D01*
G01*
G37*
G04 #@! TD.AperFunction*
G04 #@! TA.AperFunction,SMDPad,CuDef*
G36*
G01*
X121600000Y-63991500D02*
X121600000Y-63516500D01*
G75*
G02*
X121837500Y-63279000I237500J0D01*
G01*
X122337500Y-63279000D01*
G75*
G02*
X122575000Y-63516500I0J-237500D01*
G01*
X122575000Y-63991500D01*
G75*
G02*
X122337500Y-64229000I-237500J0D01*
G01*
X121837500Y-64229000D01*
G75*
G02*
X121600000Y-63991500I0J237500D01*
G01*
G37*
G04 #@! TD.AperFunction*
G04 #@! TA.AperFunction,SMDPad,CuDef*
G36*
G01*
X106737500Y-106075000D02*
X106262500Y-106075000D01*
G75*
G02*
X106025000Y-105837500I0J237500D01*
G01*
X106025000Y-105337500D01*
G75*
G02*
X106262500Y-105100000I237500J0D01*
G01*
X106737500Y-105100000D01*
G75*
G02*
X106975000Y-105337500I0J-237500D01*
G01*
X106975000Y-105837500D01*
G75*
G02*
X106737500Y-106075000I-237500J0D01*
G01*
G37*
G04 #@! TD.AperFunction*
G04 #@! TA.AperFunction,SMDPad,CuDef*
G36*
G01*
X106737500Y-107900000D02*
X106262500Y-107900000D01*
G75*
G02*
X106025000Y-107662500I0J237500D01*
G01*
X106025000Y-107162500D01*
G75*
G02*
X106262500Y-106925000I237500J0D01*
G01*
X106737500Y-106925000D01*
G75*
G02*
X106975000Y-107162500I0J-237500D01*
G01*
X106975000Y-107662500D01*
G75*
G02*
X106737500Y-107900000I-237500J0D01*
G01*
G37*
G04 #@! TD.AperFunction*
G04 #@! TA.AperFunction,SMDPad,CuDef*
G36*
G01*
X100237500Y-106075000D02*
X99762500Y-106075000D01*
G75*
G02*
X99525000Y-105837500I0J237500D01*
G01*
X99525000Y-105337500D01*
G75*
G02*
X99762500Y-105100000I237500J0D01*
G01*
X100237500Y-105100000D01*
G75*
G02*
X100475000Y-105337500I0J-237500D01*
G01*
X100475000Y-105837500D01*
G75*
G02*
X100237500Y-106075000I-237500J0D01*
G01*
G37*
G04 #@! TD.AperFunction*
G04 #@! TA.AperFunction,SMDPad,CuDef*
G36*
G01*
X100237500Y-107900000D02*
X99762500Y-107900000D01*
G75*
G02*
X99525000Y-107662500I0J237500D01*
G01*
X99525000Y-107162500D01*
G75*
G02*
X99762500Y-106925000I237500J0D01*
G01*
X100237500Y-106925000D01*
G75*
G02*
X100475000Y-107162500I0J-237500D01*
G01*
X100475000Y-107662500D01*
G75*
G02*
X100237500Y-107900000I-237500J0D01*
G01*
G37*
G04 #@! TD.AperFunction*
G04 #@! TA.AperFunction,SMDPad,CuDef*
G36*
G01*
X98737500Y-106075000D02*
X98262500Y-106075000D01*
G75*
G02*
X98025000Y-105837500I0J237500D01*
G01*
X98025000Y-105337500D01*
G75*
G02*
X98262500Y-105100000I237500J0D01*
G01*
X98737500Y-105100000D01*
G75*
G02*
X98975000Y-105337500I0J-237500D01*
G01*
X98975000Y-105837500D01*
G75*
G02*
X98737500Y-106075000I-237500J0D01*
G01*
G37*
G04 #@! TD.AperFunction*
G04 #@! TA.AperFunction,SMDPad,CuDef*
G36*
G01*
X98737500Y-107900000D02*
X98262500Y-107900000D01*
G75*
G02*
X98025000Y-107662500I0J237500D01*
G01*
X98025000Y-107162500D01*
G75*
G02*
X98262500Y-106925000I237500J0D01*
G01*
X98737500Y-106925000D01*
G75*
G02*
X98975000Y-107162500I0J-237500D01*
G01*
X98975000Y-107662500D01*
G75*
G02*
X98737500Y-107900000I-237500J0D01*
G01*
G37*
G04 #@! TD.AperFunction*
G04 #@! TA.AperFunction,SMDPad,CuDef*
G36*
G01*
X106318500Y-64975000D02*
X106793500Y-64975000D01*
G75*
G02*
X107031000Y-65212500I0J-237500D01*
G01*
X107031000Y-65712500D01*
G75*
G02*
X106793500Y-65950000I-237500J0D01*
G01*
X106318500Y-65950000D01*
G75*
G02*
X106081000Y-65712500I0J237500D01*
G01*
X106081000Y-65212500D01*
G75*
G02*
X106318500Y-64975000I237500J0D01*
G01*
G37*
G04 #@! TD.AperFunction*
G04 #@! TA.AperFunction,SMDPad,CuDef*
G36*
G01*
X106318500Y-63150000D02*
X106793500Y-63150000D01*
G75*
G02*
X107031000Y-63387500I0J-237500D01*
G01*
X107031000Y-63887500D01*
G75*
G02*
X106793500Y-64125000I-237500J0D01*
G01*
X106318500Y-64125000D01*
G75*
G02*
X106081000Y-63887500I0J237500D01*
G01*
X106081000Y-63387500D01*
G75*
G02*
X106318500Y-63150000I237500J0D01*
G01*
G37*
G04 #@! TD.AperFunction*
G04 #@! TA.AperFunction,SMDPad,CuDef*
G36*
G01*
X101512500Y-64175000D02*
X101987500Y-64175000D01*
G75*
G02*
X102225000Y-64412500I0J-237500D01*
G01*
X102225000Y-64912500D01*
G75*
G02*
X101987500Y-65150000I-237500J0D01*
G01*
X101512500Y-65150000D01*
G75*
G02*
X101275000Y-64912500I0J237500D01*
G01*
X101275000Y-64412500D01*
G75*
G02*
X101512500Y-64175000I237500J0D01*
G01*
G37*
G04 #@! TD.AperFunction*
G04 #@! TA.AperFunction,SMDPad,CuDef*
G36*
G01*
X101512500Y-62350000D02*
X101987500Y-62350000D01*
G75*
G02*
X102225000Y-62587500I0J-237500D01*
G01*
X102225000Y-63087500D01*
G75*
G02*
X101987500Y-63325000I-237500J0D01*
G01*
X101512500Y-63325000D01*
G75*
G02*
X101275000Y-63087500I0J237500D01*
G01*
X101275000Y-62587500D01*
G75*
G02*
X101512500Y-62350000I237500J0D01*
G01*
G37*
G04 #@! TD.AperFunction*
G04 #@! TA.AperFunction,SMDPad,CuDef*
G36*
G01*
X103012500Y-64175000D02*
X103487500Y-64175000D01*
G75*
G02*
X103725000Y-64412500I0J-237500D01*
G01*
X103725000Y-64912500D01*
G75*
G02*
X103487500Y-65150000I-237500J0D01*
G01*
X103012500Y-65150000D01*
G75*
G02*
X102775000Y-64912500I0J237500D01*
G01*
X102775000Y-64412500D01*
G75*
G02*
X103012500Y-64175000I237500J0D01*
G01*
G37*
G04 #@! TD.AperFunction*
G04 #@! TA.AperFunction,SMDPad,CuDef*
G36*
G01*
X103012500Y-62350000D02*
X103487500Y-62350000D01*
G75*
G02*
X103725000Y-62587500I0J-237500D01*
G01*
X103725000Y-63087500D01*
G75*
G02*
X103487500Y-63325000I-237500J0D01*
G01*
X103012500Y-63325000D01*
G75*
G02*
X102775000Y-63087500I0J237500D01*
G01*
X102775000Y-62587500D01*
G75*
G02*
X103012500Y-62350000I237500J0D01*
G01*
G37*
G04 #@! TD.AperFunction*
G04 #@! TA.AperFunction,SMDPad,CuDef*
G36*
G01*
X98425000Y-93487500D02*
X98425000Y-93012500D01*
G75*
G02*
X98662500Y-92775000I237500J0D01*
G01*
X99162500Y-92775000D01*
G75*
G02*
X99400000Y-93012500I0J-237500D01*
G01*
X99400000Y-93487500D01*
G75*
G02*
X99162500Y-93725000I-237500J0D01*
G01*
X98662500Y-93725000D01*
G75*
G02*
X98425000Y-93487500I0J237500D01*
G01*
G37*
G04 #@! TD.AperFunction*
G04 #@! TA.AperFunction,SMDPad,CuDef*
G36*
G01*
X96600000Y-93487500D02*
X96600000Y-93012500D01*
G75*
G02*
X96837500Y-92775000I237500J0D01*
G01*
X97337500Y-92775000D01*
G75*
G02*
X97575000Y-93012500I0J-237500D01*
G01*
X97575000Y-93487500D01*
G75*
G02*
X97337500Y-93725000I-237500J0D01*
G01*
X96837500Y-93725000D01*
G75*
G02*
X96600000Y-93487500I0J237500D01*
G01*
G37*
G04 #@! TD.AperFunction*
G04 #@! TA.AperFunction,SMDPad,CuDef*
G36*
G01*
X97575000Y-91512500D02*
X97575000Y-91987500D01*
G75*
G02*
X97337500Y-92225000I-237500J0D01*
G01*
X96837500Y-92225000D01*
G75*
G02*
X96600000Y-91987500I0J237500D01*
G01*
X96600000Y-91512500D01*
G75*
G02*
X96837500Y-91275000I237500J0D01*
G01*
X97337500Y-91275000D01*
G75*
G02*
X97575000Y-91512500I0J-237500D01*
G01*
G37*
G04 #@! TD.AperFunction*
G04 #@! TA.AperFunction,SMDPad,CuDef*
G36*
G01*
X99400000Y-91512500D02*
X99400000Y-91987500D01*
G75*
G02*
X99162500Y-92225000I-237500J0D01*
G01*
X98662500Y-92225000D01*
G75*
G02*
X98425000Y-91987500I0J237500D01*
G01*
X98425000Y-91512500D01*
G75*
G02*
X98662500Y-91275000I237500J0D01*
G01*
X99162500Y-91275000D01*
G75*
G02*
X99400000Y-91512500I0J-237500D01*
G01*
G37*
G04 #@! TD.AperFunction*
G04 #@! TA.AperFunction,SMDPad,CuDef*
G36*
G01*
X113487500Y-85387500D02*
X113012500Y-85387500D01*
G75*
G02*
X112775000Y-85150000I0J237500D01*
G01*
X112775000Y-84650000D01*
G75*
G02*
X113012500Y-84412500I237500J0D01*
G01*
X113487500Y-84412500D01*
G75*
G02*
X113725000Y-84650000I0J-237500D01*
G01*
X113725000Y-85150000D01*
G75*
G02*
X113487500Y-85387500I-237500J0D01*
G01*
G37*
G04 #@! TD.AperFunction*
G04 #@! TA.AperFunction,SMDPad,CuDef*
G36*
G01*
X113487500Y-87212500D02*
X113012500Y-87212500D01*
G75*
G02*
X112775000Y-86975000I0J237500D01*
G01*
X112775000Y-86475000D01*
G75*
G02*
X113012500Y-86237500I237500J0D01*
G01*
X113487500Y-86237500D01*
G75*
G02*
X113725000Y-86475000I0J-237500D01*
G01*
X113725000Y-86975000D01*
G75*
G02*
X113487500Y-87212500I-237500J0D01*
G01*
G37*
G04 #@! TD.AperFunction*
G04 #@! TA.AperFunction,SMDPad,CuDef*
G36*
G01*
X76812500Y-60287500D02*
X76337500Y-60287500D01*
G75*
G02*
X76100000Y-60050000I0J237500D01*
G01*
X76100000Y-59550000D01*
G75*
G02*
X76337500Y-59312500I237500J0D01*
G01*
X76812500Y-59312500D01*
G75*
G02*
X77050000Y-59550000I0J-237500D01*
G01*
X77050000Y-60050000D01*
G75*
G02*
X76812500Y-60287500I-237500J0D01*
G01*
G37*
G04 #@! TD.AperFunction*
G04 #@! TA.AperFunction,SMDPad,CuDef*
G36*
G01*
X76812500Y-62112500D02*
X76337500Y-62112500D01*
G75*
G02*
X76100000Y-61875000I0J237500D01*
G01*
X76100000Y-61375000D01*
G75*
G02*
X76337500Y-61137500I237500J0D01*
G01*
X76812500Y-61137500D01*
G75*
G02*
X77050000Y-61375000I0J-237500D01*
G01*
X77050000Y-61875000D01*
G75*
G02*
X76812500Y-62112500I-237500J0D01*
G01*
G37*
G04 #@! TD.AperFunction*
D12*
X77825000Y-57700000D03*
X81225000Y-57700000D03*
D26*
X83400000Y-81975000D03*
X83400000Y-79975000D03*
X83400000Y-77975000D03*
D27*
X103250000Y-105300000D03*
X103250000Y-107700000D03*
G04 #@! TA.AperFunction,SMDPad,CuDef*
G36*
G01*
X101737500Y-106175000D02*
X101262500Y-106175000D01*
G75*
G02*
X101025000Y-105937500I0J237500D01*
G01*
X101025000Y-105337500D01*
G75*
G02*
X101262500Y-105100000I237500J0D01*
G01*
X101737500Y-105100000D01*
G75*
G02*
X101975000Y-105337500I0J-237500D01*
G01*
X101975000Y-105937500D01*
G75*
G02*
X101737500Y-106175000I-237500J0D01*
G01*
G37*
G04 #@! TD.AperFunction*
G04 #@! TA.AperFunction,SMDPad,CuDef*
G36*
G01*
X101737500Y-107900000D02*
X101262500Y-107900000D01*
G75*
G02*
X101025000Y-107662500I0J237500D01*
G01*
X101025000Y-107062500D01*
G75*
G02*
X101262500Y-106825000I237500J0D01*
G01*
X101737500Y-106825000D01*
G75*
G02*
X101975000Y-107062500I0J-237500D01*
G01*
X101975000Y-107662500D01*
G75*
G02*
X101737500Y-107900000I-237500J0D01*
G01*
G37*
G04 #@! TD.AperFunction*
G04 #@! TA.AperFunction,SMDPad,CuDef*
G36*
G01*
X104762500Y-106825000D02*
X105237500Y-106825000D01*
G75*
G02*
X105475000Y-107062500I0J-237500D01*
G01*
X105475000Y-107662500D01*
G75*
G02*
X105237500Y-107900000I-237500J0D01*
G01*
X104762500Y-107900000D01*
G75*
G02*
X104525000Y-107662500I0J237500D01*
G01*
X104525000Y-107062500D01*
G75*
G02*
X104762500Y-106825000I237500J0D01*
G01*
G37*
G04 #@! TD.AperFunction*
G04 #@! TA.AperFunction,SMDPad,CuDef*
G36*
G01*
X104762500Y-105100000D02*
X105237500Y-105100000D01*
G75*
G02*
X105475000Y-105337500I0J-237500D01*
G01*
X105475000Y-105937500D01*
G75*
G02*
X105237500Y-106175000I-237500J0D01*
G01*
X104762500Y-106175000D01*
G75*
G02*
X104525000Y-105937500I0J237500D01*
G01*
X104525000Y-105337500D01*
G75*
G02*
X104762500Y-105100000I237500J0D01*
G01*
G37*
G04 #@! TD.AperFunction*
G04 #@! TA.AperFunction,SMDPad,CuDef*
G36*
G01*
X97237500Y-106175000D02*
X96762500Y-106175000D01*
G75*
G02*
X96525000Y-105937500I0J237500D01*
G01*
X96525000Y-105337500D01*
G75*
G02*
X96762500Y-105100000I237500J0D01*
G01*
X97237500Y-105100000D01*
G75*
G02*
X97475000Y-105337500I0J-237500D01*
G01*
X97475000Y-105937500D01*
G75*
G02*
X97237500Y-106175000I-237500J0D01*
G01*
G37*
G04 #@! TD.AperFunction*
G04 #@! TA.AperFunction,SMDPad,CuDef*
G36*
G01*
X97237500Y-107900000D02*
X96762500Y-107900000D01*
G75*
G02*
X96525000Y-107662500I0J237500D01*
G01*
X96525000Y-107062500D01*
G75*
G02*
X96762500Y-106825000I237500J0D01*
G01*
X97237500Y-106825000D01*
G75*
G02*
X97475000Y-107062500I0J-237500D01*
G01*
X97475000Y-107662500D01*
G75*
G02*
X97237500Y-107900000I-237500J0D01*
G01*
G37*
G04 #@! TD.AperFunction*
G04 #@! TA.AperFunction,SMDPad,CuDef*
G36*
G01*
X93762500Y-106825000D02*
X94237500Y-106825000D01*
G75*
G02*
X94475000Y-107062500I0J-237500D01*
G01*
X94475000Y-107662500D01*
G75*
G02*
X94237500Y-107900000I-237500J0D01*
G01*
X93762500Y-107900000D01*
G75*
G02*
X93525000Y-107662500I0J237500D01*
G01*
X93525000Y-107062500D01*
G75*
G02*
X93762500Y-106825000I237500J0D01*
G01*
G37*
G04 #@! TD.AperFunction*
G04 #@! TA.AperFunction,SMDPad,CuDef*
G36*
G01*
X93762500Y-105100000D02*
X94237500Y-105100000D01*
G75*
G02*
X94475000Y-105337500I0J-237500D01*
G01*
X94475000Y-105937500D01*
G75*
G02*
X94237500Y-106175000I-237500J0D01*
G01*
X93762500Y-106175000D01*
G75*
G02*
X93525000Y-105937500I0J237500D01*
G01*
X93525000Y-105337500D01*
G75*
G02*
X93762500Y-105100000I237500J0D01*
G01*
G37*
G04 #@! TD.AperFunction*
G04 #@! TA.AperFunction,SMDPad,CuDef*
G36*
G01*
X86987500Y-57175000D02*
X86512500Y-57175000D01*
G75*
G02*
X86275000Y-56937500I0J237500D01*
G01*
X86275000Y-56337500D01*
G75*
G02*
X86512500Y-56100000I237500J0D01*
G01*
X86987500Y-56100000D01*
G75*
G02*
X87225000Y-56337500I0J-237500D01*
G01*
X87225000Y-56937500D01*
G75*
G02*
X86987500Y-57175000I-237500J0D01*
G01*
G37*
G04 #@! TD.AperFunction*
G04 #@! TA.AperFunction,SMDPad,CuDef*
G36*
G01*
X86987500Y-58900000D02*
X86512500Y-58900000D01*
G75*
G02*
X86275000Y-58662500I0J237500D01*
G01*
X86275000Y-58062500D01*
G75*
G02*
X86512500Y-57825000I237500J0D01*
G01*
X86987500Y-57825000D01*
G75*
G02*
X87225000Y-58062500I0J-237500D01*
G01*
X87225000Y-58662500D01*
G75*
G02*
X86987500Y-58900000I-237500J0D01*
G01*
G37*
G04 #@! TD.AperFunction*
G04 #@! TA.AperFunction,SMDPad,CuDef*
G36*
G01*
X88487500Y-57175000D02*
X88012500Y-57175000D01*
G75*
G02*
X87775000Y-56937500I0J237500D01*
G01*
X87775000Y-56337500D01*
G75*
G02*
X88012500Y-56100000I237500J0D01*
G01*
X88487500Y-56100000D01*
G75*
G02*
X88725000Y-56337500I0J-237500D01*
G01*
X88725000Y-56937500D01*
G75*
G02*
X88487500Y-57175000I-237500J0D01*
G01*
G37*
G04 #@! TD.AperFunction*
G04 #@! TA.AperFunction,SMDPad,CuDef*
G36*
G01*
X88487500Y-58900000D02*
X88012500Y-58900000D01*
G75*
G02*
X87775000Y-58662500I0J237500D01*
G01*
X87775000Y-58062500D01*
G75*
G02*
X88012500Y-57825000I237500J0D01*
G01*
X88487500Y-57825000D01*
G75*
G02*
X88725000Y-58062500I0J-237500D01*
G01*
X88725000Y-58662500D01*
G75*
G02*
X88487500Y-58900000I-237500J0D01*
G01*
G37*
G04 #@! TD.AperFunction*
G04 #@! TA.AperFunction,SMDPad,CuDef*
G36*
G01*
X109793500Y-64225000D02*
X109318500Y-64225000D01*
G75*
G02*
X109081000Y-63987500I0J237500D01*
G01*
X109081000Y-63387500D01*
G75*
G02*
X109318500Y-63150000I237500J0D01*
G01*
X109793500Y-63150000D01*
G75*
G02*
X110031000Y-63387500I0J-237500D01*
G01*
X110031000Y-63987500D01*
G75*
G02*
X109793500Y-64225000I-237500J0D01*
G01*
G37*
G04 #@! TD.AperFunction*
G04 #@! TA.AperFunction,SMDPad,CuDef*
G36*
G01*
X109793500Y-65950000D02*
X109318500Y-65950000D01*
G75*
G02*
X109081000Y-65712500I0J237500D01*
G01*
X109081000Y-65112500D01*
G75*
G02*
X109318500Y-64875000I237500J0D01*
G01*
X109793500Y-64875000D01*
G75*
G02*
X110031000Y-65112500I0J-237500D01*
G01*
X110031000Y-65712500D01*
G75*
G02*
X109793500Y-65950000I-237500J0D01*
G01*
G37*
G04 #@! TD.AperFunction*
G04 #@! TA.AperFunction,SMDPad,CuDef*
G36*
G01*
X108293500Y-64225000D02*
X107818500Y-64225000D01*
G75*
G02*
X107581000Y-63987500I0J237500D01*
G01*
X107581000Y-63387500D01*
G75*
G02*
X107818500Y-63150000I237500J0D01*
G01*
X108293500Y-63150000D01*
G75*
G02*
X108531000Y-63387500I0J-237500D01*
G01*
X108531000Y-63987500D01*
G75*
G02*
X108293500Y-64225000I-237500J0D01*
G01*
G37*
G04 #@! TD.AperFunction*
G04 #@! TA.AperFunction,SMDPad,CuDef*
G36*
G01*
X108293500Y-65950000D02*
X107818500Y-65950000D01*
G75*
G02*
X107581000Y-65712500I0J237500D01*
G01*
X107581000Y-65112500D01*
G75*
G02*
X107818500Y-64875000I237500J0D01*
G01*
X108293500Y-64875000D01*
G75*
G02*
X108531000Y-65112500I0J-237500D01*
G01*
X108531000Y-65712500D01*
G75*
G02*
X108293500Y-65950000I-237500J0D01*
G01*
G37*
G04 #@! TD.AperFunction*
G04 #@! TA.AperFunction,SMDPad,CuDef*
G36*
G01*
X93237500Y-63925000D02*
X92762500Y-63925000D01*
G75*
G02*
X92525000Y-63687500I0J237500D01*
G01*
X92525000Y-63087500D01*
G75*
G02*
X92762500Y-62850000I237500J0D01*
G01*
X93237500Y-62850000D01*
G75*
G02*
X93475000Y-63087500I0J-237500D01*
G01*
X93475000Y-63687500D01*
G75*
G02*
X93237500Y-63925000I-237500J0D01*
G01*
G37*
G04 #@! TD.AperFunction*
G04 #@! TA.AperFunction,SMDPad,CuDef*
G36*
G01*
X93237500Y-65650000D02*
X92762500Y-65650000D01*
G75*
G02*
X92525000Y-65412500I0J237500D01*
G01*
X92525000Y-64812500D01*
G75*
G02*
X92762500Y-64575000I237500J0D01*
G01*
X93237500Y-64575000D01*
G75*
G02*
X93475000Y-64812500I0J-237500D01*
G01*
X93475000Y-65412500D01*
G75*
G02*
X93237500Y-65650000I-237500J0D01*
G01*
G37*
G04 #@! TD.AperFunction*
G04 #@! TA.AperFunction,SMDPad,CuDef*
G36*
G01*
X90012500Y-64575000D02*
X90487500Y-64575000D01*
G75*
G02*
X90725000Y-64812500I0J-237500D01*
G01*
X90725000Y-65412500D01*
G75*
G02*
X90487500Y-65650000I-237500J0D01*
G01*
X90012500Y-65650000D01*
G75*
G02*
X89775000Y-65412500I0J237500D01*
G01*
X89775000Y-64812500D01*
G75*
G02*
X90012500Y-64575000I237500J0D01*
G01*
G37*
G04 #@! TD.AperFunction*
G04 #@! TA.AperFunction,SMDPad,CuDef*
G36*
G01*
X90012500Y-62850000D02*
X90487500Y-62850000D01*
G75*
G02*
X90725000Y-63087500I0J-237500D01*
G01*
X90725000Y-63687500D01*
G75*
G02*
X90487500Y-63925000I-237500J0D01*
G01*
X90012500Y-63925000D01*
G75*
G02*
X89775000Y-63687500I0J237500D01*
G01*
X89775000Y-63087500D01*
G75*
G02*
X90012500Y-62850000I237500J0D01*
G01*
G37*
G04 #@! TD.AperFunction*
G04 #@! TA.AperFunction,SMDPad,CuDef*
G36*
G01*
X93237500Y-99175000D02*
X92762500Y-99175000D01*
G75*
G02*
X92525000Y-98937500I0J237500D01*
G01*
X92525000Y-98337500D01*
G75*
G02*
X92762500Y-98100000I237500J0D01*
G01*
X93237500Y-98100000D01*
G75*
G02*
X93475000Y-98337500I0J-237500D01*
G01*
X93475000Y-98937500D01*
G75*
G02*
X93237500Y-99175000I-237500J0D01*
G01*
G37*
G04 #@! TD.AperFunction*
G04 #@! TA.AperFunction,SMDPad,CuDef*
G36*
G01*
X93237500Y-100900000D02*
X92762500Y-100900000D01*
G75*
G02*
X92525000Y-100662500I0J237500D01*
G01*
X92525000Y-100062500D01*
G75*
G02*
X92762500Y-99825000I237500J0D01*
G01*
X93237500Y-99825000D01*
G75*
G02*
X93475000Y-100062500I0J-237500D01*
G01*
X93475000Y-100662500D01*
G75*
G02*
X93237500Y-100900000I-237500J0D01*
G01*
G37*
G04 #@! TD.AperFunction*
G04 #@! TA.AperFunction,SMDPad,CuDef*
G36*
G01*
X113012500Y-82825000D02*
X113487500Y-82825000D01*
G75*
G02*
X113725000Y-83062500I0J-237500D01*
G01*
X113725000Y-83662500D01*
G75*
G02*
X113487500Y-83900000I-237500J0D01*
G01*
X113012500Y-83900000D01*
G75*
G02*
X112775000Y-83662500I0J237500D01*
G01*
X112775000Y-83062500D01*
G75*
G02*
X113012500Y-82825000I237500J0D01*
G01*
G37*
G04 #@! TD.AperFunction*
G04 #@! TA.AperFunction,SMDPad,CuDef*
G36*
G01*
X113012500Y-81100000D02*
X113487500Y-81100000D01*
G75*
G02*
X113725000Y-81337500I0J-237500D01*
G01*
X113725000Y-81937500D01*
G75*
G02*
X113487500Y-82175000I-237500J0D01*
G01*
X113012500Y-82175000D01*
G75*
G02*
X112775000Y-81937500I0J237500D01*
G01*
X112775000Y-81337500D01*
G75*
G02*
X113012500Y-81100000I237500J0D01*
G01*
G37*
G04 #@! TD.AperFunction*
G04 #@! TA.AperFunction,SMDPad,CuDef*
G36*
G01*
X102325000Y-90487500D02*
X102325000Y-90012500D01*
G75*
G02*
X102562500Y-89775000I237500J0D01*
G01*
X103162500Y-89775000D01*
G75*
G02*
X103400000Y-90012500I0J-237500D01*
G01*
X103400000Y-90487500D01*
G75*
G02*
X103162500Y-90725000I-237500J0D01*
G01*
X102562500Y-90725000D01*
G75*
G02*
X102325000Y-90487500I0J237500D01*
G01*
G37*
G04 #@! TD.AperFunction*
G04 #@! TA.AperFunction,SMDPad,CuDef*
G36*
G01*
X100600000Y-90487500D02*
X100600000Y-90012500D01*
G75*
G02*
X100837500Y-89775000I237500J0D01*
G01*
X101437500Y-89775000D01*
G75*
G02*
X101675000Y-90012500I0J-237500D01*
G01*
X101675000Y-90487500D01*
G75*
G02*
X101437500Y-90725000I-237500J0D01*
G01*
X100837500Y-90725000D01*
G75*
G02*
X100600000Y-90487500I0J237500D01*
G01*
G37*
G04 #@! TD.AperFunction*
G04 #@! TA.AperFunction,SMDPad,CuDef*
G36*
G01*
X97675000Y-90012500D02*
X97675000Y-90487500D01*
G75*
G02*
X97437500Y-90725000I-237500J0D01*
G01*
X96837500Y-90725000D01*
G75*
G02*
X96600000Y-90487500I0J237500D01*
G01*
X96600000Y-90012500D01*
G75*
G02*
X96837500Y-89775000I237500J0D01*
G01*
X97437500Y-89775000D01*
G75*
G02*
X97675000Y-90012500I0J-237500D01*
G01*
G37*
G04 #@! TD.AperFunction*
G04 #@! TA.AperFunction,SMDPad,CuDef*
G36*
G01*
X99400000Y-90012500D02*
X99400000Y-90487500D01*
G75*
G02*
X99162500Y-90725000I-237500J0D01*
G01*
X98562500Y-90725000D01*
G75*
G02*
X98325000Y-90487500I0J237500D01*
G01*
X98325000Y-90012500D01*
G75*
G02*
X98562500Y-89775000I237500J0D01*
G01*
X99162500Y-89775000D01*
G75*
G02*
X99400000Y-90012500I0J-237500D01*
G01*
G37*
G04 #@! TD.AperFunction*
G04 #@! TA.AperFunction,SMDPad,CuDef*
G36*
G01*
X103575000Y-70987500D02*
X103575000Y-70512500D01*
G75*
G02*
X103812500Y-70275000I237500J0D01*
G01*
X104412500Y-70275000D01*
G75*
G02*
X104650000Y-70512500I0J-237500D01*
G01*
X104650000Y-70987500D01*
G75*
G02*
X104412500Y-71225000I-237500J0D01*
G01*
X103812500Y-71225000D01*
G75*
G02*
X103575000Y-70987500I0J237500D01*
G01*
G37*
G04 #@! TD.AperFunction*
G04 #@! TA.AperFunction,SMDPad,CuDef*
G36*
G01*
X101850000Y-70987500D02*
X101850000Y-70512500D01*
G75*
G02*
X102087500Y-70275000I237500J0D01*
G01*
X102687500Y-70275000D01*
G75*
G02*
X102925000Y-70512500I0J-237500D01*
G01*
X102925000Y-70987500D01*
G75*
G02*
X102687500Y-71225000I-237500J0D01*
G01*
X102087500Y-71225000D01*
G75*
G02*
X101850000Y-70987500I0J237500D01*
G01*
G37*
G04 #@! TD.AperFunction*
D28*
X99862347Y-74887653D03*
X98000000Y-108750000D03*
X94595000Y-100155000D03*
X122428000Y-64889998D03*
X106680000Y-66840000D03*
X108204000Y-66840000D03*
X109728000Y-66840000D03*
X105410000Y-71120000D03*
X85800000Y-57500000D03*
X104759314Y-95640686D03*
X96899999Y-62100001D03*
X94800000Y-62099996D03*
X104500000Y-62100001D03*
X100416767Y-62000000D03*
X106300000Y-62099996D03*
X109799994Y-62200000D03*
X100100000Y-91300000D03*
X100800000Y-108499990D03*
X104400000Y-108474990D03*
X89699996Y-61925000D03*
X85475000Y-62025000D03*
X77750000Y-61625002D03*
X84975000Y-67149992D03*
X92560000Y-104910000D03*
X101000000Y-80500000D03*
X111410000Y-79580000D03*
X89050000Y-81280000D03*
X96500000Y-56500000D03*
X90500000Y-93700000D03*
X114700000Y-94000000D03*
X102500000Y-94100000D03*
X95700000Y-94700000D03*
X99499996Y-94500000D03*
X109000000Y-100500000D03*
X94237347Y-78987347D03*
X104250000Y-83750000D03*
X101500000Y-83750000D03*
X94332052Y-82945299D03*
X106750000Y-103750000D03*
X103250000Y-103275000D03*
X91399978Y-83528317D03*
X91778193Y-77003193D03*
X102300000Y-109100000D03*
X114808000Y-68797000D03*
X90834314Y-75684314D03*
X94120346Y-75686346D03*
X99250000Y-79500006D03*
X101000000Y-79500000D03*
X87527103Y-82527103D03*
X85480000Y-80310000D03*
X96299999Y-81339010D03*
X108750000Y-81750000D03*
X93500000Y-77250000D03*
X93500000Y-83500000D03*
X92750000Y-78000000D03*
X92417940Y-82814010D03*
X99691757Y-67804818D03*
X102750000Y-79250000D03*
X101250000Y-76750000D03*
X98298000Y-69342000D03*
X102000000Y-76000000D03*
X99060000Y-68580000D03*
D29*
X83223000Y-62350000D02*
X83223000Y-62323000D01*
X84162500Y-62250000D02*
X83223000Y-62250000D01*
X85300000Y-63387500D02*
X84162500Y-62250000D01*
X78300000Y-69960000D02*
X80062999Y-68197001D01*
X110634990Y-55699990D02*
X115660000Y-60725000D01*
X80062999Y-57142239D02*
X81505248Y-55699990D01*
X115660000Y-60725000D02*
X115660000Y-64025000D01*
X81505248Y-55699990D02*
X110634990Y-55699990D01*
X83223000Y-62350000D02*
X81725000Y-62350000D01*
X81725000Y-62350000D02*
X80062999Y-64012001D01*
X80062999Y-64012001D02*
X80062999Y-57142239D01*
X80062999Y-68197001D02*
X80062999Y-64012001D01*
X86861500Y-61636000D02*
X87136000Y-61910500D01*
X100104000Y-74646000D02*
X99862347Y-74887653D01*
X100104000Y-73351000D02*
X100104000Y-74646000D01*
X100050000Y-107362500D02*
X100000000Y-107412500D01*
X101500000Y-107362500D02*
X100050000Y-107362500D01*
X97000000Y-107750000D02*
X98000000Y-108750000D01*
X97000000Y-107362500D02*
X97000000Y-107750000D01*
X97135000Y-102240000D02*
X94595000Y-102240000D01*
X94595000Y-102240000D02*
X94595000Y-100155000D01*
X94595000Y-100155000D02*
X94595000Y-96760000D01*
X94387500Y-100362500D02*
X94595000Y-100155000D01*
X93000000Y-100362500D02*
X94387500Y-100362500D01*
X122087500Y-64549498D02*
X122428000Y-64889998D01*
X122087500Y-63754000D02*
X122087500Y-64549498D01*
X106556000Y-66716000D02*
X106680000Y-66840000D01*
X106556000Y-65462500D02*
X106556000Y-66716000D01*
X108056000Y-66692000D02*
X108204000Y-66840000D01*
X108056000Y-65412500D02*
X108056000Y-66692000D01*
X109556000Y-66668000D02*
X109728000Y-66840000D01*
X109556000Y-65412500D02*
X109556000Y-66668000D01*
X105040000Y-70750000D02*
X105410000Y-71120000D01*
X104112500Y-70750000D02*
X105040000Y-70750000D01*
X86750000Y-56637500D02*
X88250000Y-56637500D01*
X86750000Y-56637500D02*
X86662500Y-56637500D01*
X86662500Y-56637500D02*
X85800000Y-57500000D01*
X105405000Y-96286372D02*
X104759314Y-95640686D01*
X105405000Y-96760000D02*
X105405000Y-96286372D01*
X96856000Y-60000000D02*
X96856000Y-62056002D01*
X97556000Y-61444000D02*
X96899999Y-62100001D01*
X96856000Y-62056002D02*
X96899999Y-62100001D01*
X96156000Y-61356002D02*
X96899999Y-62100001D01*
X96156000Y-60000000D02*
X96156000Y-61356002D01*
X97556000Y-60000000D02*
X97556000Y-61444000D01*
X94756000Y-62055996D02*
X94800000Y-62099996D01*
X94756000Y-60000000D02*
X94756000Y-62055996D01*
X104556000Y-62044001D02*
X104500000Y-62100001D01*
X104556000Y-60000000D02*
X104556000Y-62044001D01*
X103856000Y-60000000D02*
X103856000Y-61456001D01*
X105256000Y-60000000D02*
X105256000Y-61344001D01*
X103856000Y-61456001D02*
X104500000Y-62100001D01*
X105256000Y-61344001D02*
X104500000Y-62100001D01*
X100356000Y-60000000D02*
X100356000Y-61939233D01*
X100356000Y-61939233D02*
X100416767Y-62000000D01*
X101056000Y-60000000D02*
X101056000Y-61360767D01*
X101056000Y-61360767D02*
X100416767Y-62000000D01*
X106656000Y-60000000D02*
X106656000Y-61743996D01*
X105956000Y-61755996D02*
X106300000Y-62099996D01*
X106656000Y-61743996D02*
X106300000Y-62099996D01*
X105956000Y-60000000D02*
X105956000Y-61755996D01*
X110149000Y-59998000D02*
X110149000Y-61850994D01*
X109450000Y-61850006D02*
X109799994Y-62200000D01*
X110149000Y-61850994D02*
X109799994Y-62200000D01*
X109450000Y-59998000D02*
X109450000Y-61850006D01*
X99050000Y-90250000D02*
X100100000Y-91300000D01*
X98862500Y-90250000D02*
X99050000Y-90250000D01*
X100100000Y-91287500D02*
X101137500Y-90250000D01*
X100100000Y-91300000D02*
X100100000Y-91287500D01*
X100000000Y-107412500D02*
X100000000Y-107699990D01*
X100000000Y-107699990D02*
X100800000Y-108499990D01*
X101500000Y-107799990D02*
X100800000Y-108499990D01*
X101500000Y-107362500D02*
X101500000Y-107799990D01*
X105000000Y-107362500D02*
X105000000Y-107874990D01*
X105000000Y-107874990D02*
X104400000Y-108474990D01*
X89851000Y-61773996D02*
X89699996Y-61925000D01*
X89851000Y-60002000D02*
X89851000Y-61773996D01*
X85300000Y-64887500D02*
X86800000Y-63387500D01*
X85300000Y-65112500D02*
X85300000Y-64887500D01*
X86800000Y-63387500D02*
X88300000Y-63387500D01*
X86800000Y-62246500D02*
X87136000Y-61910500D01*
X86800000Y-63387500D02*
X86800000Y-62246500D01*
X86800000Y-63350000D02*
X85475000Y-62025000D01*
X86800000Y-63387500D02*
X86800000Y-63350000D01*
X77749998Y-61625000D02*
X77750000Y-61625002D01*
X76575000Y-61625000D02*
X77749998Y-61625000D01*
X84775008Y-66950000D02*
X84975000Y-67149992D01*
X83223000Y-66950000D02*
X84775008Y-66950000D01*
X94000000Y-105637500D02*
X93287500Y-105637500D01*
X93287500Y-105637500D02*
X92560000Y-104910000D01*
X84240000Y-77135000D02*
X83400000Y-77975000D01*
X85510000Y-77135000D02*
X84240000Y-77135000D01*
X100891000Y-80609000D02*
X101000000Y-80500000D01*
X100891000Y-82089000D02*
X100891000Y-80609000D01*
X111150000Y-79840000D02*
X111410000Y-79580000D01*
X110200000Y-79840000D02*
X111150000Y-79840000D01*
X89060000Y-81270000D02*
X89050000Y-81280000D01*
X92280000Y-81270000D02*
X89060000Y-81270000D01*
X86500000Y-58112500D02*
X88000000Y-58112500D01*
X93356000Y-58350500D02*
X93356000Y-60000000D01*
X93118000Y-58112500D02*
X93356000Y-58350500D01*
X88000000Y-58112500D02*
X93118000Y-58112500D01*
X95456000Y-58554998D02*
X95456000Y-60000000D01*
X95013502Y-58112500D02*
X95456000Y-58554998D01*
X93118000Y-58112500D02*
X95013502Y-58112500D01*
X95013502Y-57986498D02*
X96500000Y-56500000D01*
X95013502Y-58112500D02*
X95013502Y-57986498D01*
X102501000Y-73351000D02*
X102501000Y-74249000D01*
X102501000Y-74064996D02*
X102501000Y-73351000D01*
X100815996Y-75750000D02*
X102501000Y-74064996D01*
X98446897Y-75750000D02*
X100815996Y-75750000D01*
X97696897Y-75000000D02*
X98446897Y-75750000D01*
X94050000Y-107412500D02*
X94000000Y-107362500D01*
X95500000Y-107412500D02*
X94050000Y-107412500D01*
X98405000Y-103095000D02*
X98405000Y-102240000D01*
X97750000Y-103750000D02*
X98405000Y-103095000D01*
X92750000Y-103750000D02*
X97750000Y-103750000D01*
X113250000Y-86662500D02*
X113250000Y-90750000D01*
X93000000Y-95600000D02*
X92650000Y-95250000D01*
X93000000Y-98637500D02*
X93000000Y-95600000D01*
X114700000Y-94000000D02*
X113250000Y-92550000D01*
X113250000Y-92550000D02*
X111450000Y-92550000D01*
X113250000Y-90750000D02*
X111450000Y-92550000D01*
X92100000Y-94700000D02*
X95700000Y-94700000D01*
X92650000Y-95250000D02*
X92100000Y-94700000D01*
X102500000Y-94100000D02*
X99899995Y-94100001D01*
X99899995Y-94100001D02*
X99499996Y-94500000D01*
X99499996Y-94664996D02*
X101595000Y-96760000D01*
X99499996Y-94500000D02*
X99499996Y-94664996D01*
X106500000Y-101145000D02*
X105405000Y-102240000D01*
X106500000Y-96250000D02*
X106500000Y-101145000D01*
X104350000Y-94100000D02*
X106500000Y-96250000D01*
X102500000Y-94100000D02*
X104350000Y-94100000D01*
X109900000Y-94100000D02*
X111450000Y-92550000D01*
X104350000Y-94100000D02*
X109900000Y-94100000D01*
X101750000Y-64662500D02*
X103250000Y-64662500D01*
X98912500Y-91750000D02*
X98912500Y-93250000D01*
X99762501Y-94100001D02*
X98912500Y-93250000D01*
X99899995Y-94100001D02*
X99762501Y-94100001D01*
X91750000Y-102750000D02*
X90000000Y-101000000D01*
X91750000Y-105587500D02*
X91750000Y-102750000D01*
X93525000Y-107362500D02*
X91750000Y-105587500D01*
X94000000Y-107362500D02*
X93525000Y-107362500D01*
X90000000Y-101000000D02*
X92750000Y-103750000D01*
X92100000Y-94700000D02*
X91100000Y-93700000D01*
X75649999Y-90670001D02*
X75649999Y-93149999D01*
X75649999Y-93149999D02*
X76950000Y-94450000D01*
X76950000Y-89370000D02*
X75649999Y-90670001D01*
X83500000Y-101000000D02*
X90000000Y-101000000D01*
X91100000Y-93700000D02*
X90500000Y-93700000D01*
X90500000Y-93700000D02*
X85750000Y-93700000D01*
X82625000Y-96825000D02*
X79325000Y-96825000D01*
X85750000Y-93700000D02*
X82625000Y-96825000D01*
X79325000Y-96825000D02*
X83500000Y-101000000D01*
X76950000Y-94450000D02*
X79325000Y-96825000D01*
X86800000Y-65112500D02*
X88300000Y-65112500D01*
X86750000Y-59799500D02*
X87136000Y-60185500D01*
X86750000Y-58362500D02*
X86750000Y-59799500D01*
X89175010Y-64237490D02*
X88300000Y-65112500D01*
X88025000Y-61074500D02*
X88025000Y-61673424D01*
X89175010Y-62823434D02*
X89175010Y-64237490D01*
X88025000Y-61673424D02*
X89175010Y-62823434D01*
X87136000Y-60185500D02*
X88025000Y-61074500D01*
X86068113Y-81581887D02*
X94761124Y-72888876D01*
X86064227Y-81581887D02*
X86068113Y-81581887D01*
X84671104Y-82975010D02*
X86064227Y-81581887D01*
X78880988Y-82975010D02*
X84671104Y-82975010D01*
X75649999Y-86205999D02*
X78880988Y-82975010D01*
X76950000Y-89370000D02*
X75649999Y-88069999D01*
X75649999Y-88069999D02*
X75649999Y-86205999D01*
X97087001Y-71737001D02*
X101750000Y-67074002D01*
X96759775Y-72064227D02*
X97087001Y-71737001D01*
X97696897Y-74946897D02*
X95638876Y-72888876D01*
X97696897Y-75000000D02*
X97696897Y-74946897D01*
X94761124Y-72888876D02*
X95638876Y-72888876D01*
X95935126Y-72888876D02*
X97087001Y-71737001D01*
X95638876Y-72888876D02*
X95935126Y-72888876D01*
X81887500Y-58362500D02*
X86750000Y-58362500D01*
X81225000Y-57700000D02*
X81887500Y-58362500D01*
X82674000Y-64550000D02*
X83298424Y-64550000D01*
X84798434Y-66050010D02*
X85862490Y-66050010D01*
X85862490Y-66050010D02*
X86800000Y-65112500D01*
X83298424Y-64550000D02*
X84798434Y-66050010D01*
X101750000Y-67074002D02*
X101750000Y-64662500D01*
X98682001Y-70142001D02*
X101750000Y-67074002D01*
X97913999Y-70142001D02*
X98682001Y-70142001D01*
X96099998Y-62148542D02*
X96099998Y-68328000D01*
X96099998Y-68328000D02*
X97913999Y-70142001D01*
X95456000Y-61504544D02*
X96099998Y-62148542D01*
X95456000Y-60000000D02*
X95456000Y-61504544D01*
X97696897Y-75000000D02*
X100093000Y-77396103D01*
X100093000Y-77396103D02*
X100093000Y-82089000D01*
D30*
X100901000Y-72236500D02*
X102387500Y-70750000D01*
X100901000Y-73351000D02*
X100901000Y-72236500D01*
X97637500Y-88787500D02*
X95650000Y-86800000D01*
X97637500Y-90250000D02*
X97637500Y-88787500D01*
X102491000Y-84259000D02*
X102491000Y-82089000D01*
X99950000Y-86800000D02*
X102491000Y-84259000D01*
X95650000Y-86800000D02*
X99950000Y-86800000D01*
X103291000Y-84941000D02*
X105150000Y-86800000D01*
X103291000Y-82089000D02*
X103291000Y-84941000D01*
X105150000Y-87962500D02*
X102862500Y-90250000D01*
X105150000Y-86800000D02*
X105150000Y-87962500D01*
X94332052Y-82945299D02*
X95136753Y-83750000D01*
X95136753Y-83750000D02*
X101500000Y-83750000D01*
X96129000Y-78114000D02*
X95110694Y-78114000D01*
X95110694Y-78114000D02*
X94237347Y-78987347D01*
X113250000Y-83362500D02*
X112862500Y-83750000D01*
X112250000Y-83837500D02*
X113250000Y-84837500D01*
X112250000Y-83750000D02*
X112250000Y-83837500D01*
X112862500Y-83750000D02*
X112250000Y-83750000D01*
X112250000Y-83750000D02*
X104250000Y-83750000D01*
X115425001Y-94640684D02*
X115425001Y-87012501D01*
X115425001Y-87012501D02*
X113250000Y-84837500D01*
X109565685Y-100500000D02*
X115425001Y-94640684D01*
X109000000Y-100500000D02*
X109565685Y-100500000D01*
X120200010Y-61474990D02*
X121087001Y-60587999D01*
X121087001Y-56708239D02*
X120521761Y-56142999D01*
X113250000Y-81637500D02*
X113250000Y-79569998D01*
X113250000Y-79569998D02*
X114834999Y-77984999D01*
X121087001Y-60587999D02*
X121087001Y-56708239D01*
X120200010Y-73507514D02*
X120200010Y-61474990D01*
X114834999Y-77984999D02*
X115722525Y-77984999D01*
X115722525Y-77984999D02*
X120200010Y-73507514D01*
X118547001Y-56142999D02*
X117460000Y-57230000D01*
X120521761Y-56142999D02*
X118547001Y-56142999D01*
X91256000Y-61310002D02*
X91256000Y-60000000D01*
X91256000Y-64106500D02*
X91256000Y-61310002D01*
X90250000Y-65112500D02*
X91256000Y-64106500D01*
X90576009Y-60020009D02*
X90576009Y-63061491D01*
X90556000Y-60000000D02*
X90576009Y-60020009D01*
X90576009Y-63061491D02*
X90250000Y-63387500D01*
X92656000Y-63043500D02*
X93000000Y-63387500D01*
X92656000Y-60000000D02*
X92656000Y-63043500D01*
X91956000Y-64068500D02*
X93000000Y-65112500D01*
X91956000Y-60000000D02*
X91956000Y-64068500D01*
X108056000Y-61050000D02*
X108056000Y-63687500D01*
X108751000Y-62882500D02*
X109556000Y-63687500D01*
X108751000Y-60249000D02*
X108751000Y-62882500D01*
X98500000Y-107412500D02*
X98500000Y-107250000D01*
X97000000Y-105750000D02*
X97000000Y-105637500D01*
X98500000Y-107250000D02*
X97000000Y-105750000D01*
X102865000Y-99540000D02*
X102865000Y-102740000D01*
X104135000Y-98270000D02*
X102865000Y-99540000D01*
X104135000Y-97260000D02*
X104135000Y-98270000D01*
X102865000Y-102890000D02*
X103250000Y-103275000D01*
X102865000Y-102240000D02*
X102865000Y-102890000D01*
X106750000Y-103750000D02*
X107750020Y-104750020D01*
X107750020Y-107999980D02*
X105774999Y-109975001D01*
X105774999Y-109975001D02*
X100775001Y-109975001D01*
X98500000Y-107700000D02*
X98500000Y-107412500D01*
X107750020Y-104750020D02*
X107750020Y-107999980D01*
X100775001Y-109975001D02*
X98500000Y-107700000D01*
X101595000Y-103750000D02*
X101595000Y-102740000D01*
X105000000Y-104772821D02*
X104702179Y-104474999D01*
X102319999Y-104474999D02*
X101595000Y-103750000D01*
X104702179Y-104474999D02*
X102319999Y-104474999D01*
X105000000Y-105637500D02*
X105000000Y-104772821D01*
X101450000Y-105587500D02*
X101500000Y-105637500D01*
X100000000Y-105587500D02*
X101450000Y-105587500D01*
X100000000Y-105587500D02*
X99837500Y-105587500D01*
X100587500Y-105587500D02*
X100000000Y-105587500D01*
X102912500Y-105637500D02*
X103250000Y-105300000D01*
X101500000Y-105637500D02*
X102912500Y-105637500D01*
X96500000Y-97995552D02*
X96500000Y-94000000D01*
X100000000Y-101495552D02*
X96500000Y-97995552D01*
X96500000Y-94000000D02*
X91399978Y-88899978D01*
X91399978Y-88899978D02*
X91399978Y-83528317D01*
X100000000Y-105587500D02*
X100000000Y-101495552D01*
X96129000Y-74916000D02*
X93865386Y-74916000D01*
X93865386Y-74916000D02*
X91778193Y-77003193D01*
X103250000Y-108150000D02*
X102300000Y-109100000D01*
X103250000Y-107700000D02*
X103250000Y-108150000D01*
X102400000Y-109200000D02*
X102300000Y-109100000D01*
X105200000Y-109200000D02*
X102400000Y-109200000D01*
X106500000Y-107900000D02*
X105200000Y-109200000D01*
X106500000Y-107412500D02*
X106500000Y-107900000D01*
X119750000Y-60020000D02*
X120000000Y-59770000D01*
X119750000Y-67156413D02*
X119750000Y-60020000D01*
X119196413Y-67710000D02*
X119750000Y-67156413D01*
X113392000Y-67710000D02*
X119196413Y-67710000D01*
X104891000Y-74926000D02*
X106176000Y-74926000D01*
X106176000Y-74926000D02*
X113392000Y-67710000D01*
X113205600Y-67259989D02*
X107114590Y-73351000D01*
X118850000Y-58380000D02*
X118850000Y-60629998D01*
X119010013Y-67259989D02*
X113205600Y-67259989D01*
X120000000Y-57230000D02*
X118850000Y-58380000D01*
X107114590Y-73351000D02*
X103301000Y-73351000D01*
X118850000Y-60629998D02*
X119299989Y-61079987D01*
X119299989Y-66970013D02*
X119010013Y-67259989D01*
X119299989Y-61079987D02*
X119299989Y-66970013D01*
X122540000Y-57230000D02*
X122348000Y-57230000D01*
X107879000Y-75726000D02*
X104891000Y-75726000D01*
X114808000Y-68797000D02*
X107879000Y-75726000D01*
D29*
X115481066Y-79654000D02*
X115375000Y-79654000D01*
X115375000Y-79075000D02*
X115375000Y-79110000D01*
X120939999Y-73510001D02*
X115375000Y-79075000D01*
X120939999Y-62910001D02*
X120939999Y-73510001D01*
X122140000Y-61710000D02*
X120939999Y-62910001D01*
X122840000Y-61710000D02*
X122140000Y-61710000D01*
X78300000Y-76875000D02*
X78300000Y-75040000D01*
X81400000Y-79975000D02*
X78300000Y-76875000D01*
X83400000Y-79975000D02*
X81400000Y-79975000D01*
D30*
X76575000Y-58950000D02*
X76575000Y-59800000D01*
X77825000Y-57700000D02*
X76575000Y-58950000D01*
X82336128Y-75725000D02*
X85264227Y-75725000D01*
X75599999Y-60775001D02*
X75599999Y-68988871D01*
X75599999Y-68988871D02*
X82336128Y-75725000D01*
X76575000Y-59800000D02*
X75599999Y-60775001D01*
X90793628Y-75725000D02*
X90834314Y-75684314D01*
X85264227Y-75725000D02*
X90793628Y-75725000D01*
X96099346Y-75686346D02*
X96129000Y-75716000D01*
X94120346Y-75686346D02*
X96099346Y-75686346D01*
X123912500Y-65217500D02*
X122840000Y-66290000D01*
X123912500Y-65217500D02*
X123912500Y-63754000D01*
X103496406Y-80751821D02*
X105244585Y-82500000D01*
X101926998Y-79500000D02*
X103178819Y-80751821D01*
X101000000Y-79500000D02*
X101926998Y-79500000D01*
X105244585Y-82500000D02*
X114194002Y-82500000D01*
X103178819Y-80751821D02*
X103496406Y-80751821D01*
X114194002Y-82500000D02*
X122840000Y-73854002D01*
X122840000Y-73854002D02*
X122840000Y-66290000D01*
X97720825Y-79500006D02*
X99250000Y-79500006D01*
X96706831Y-80514000D02*
X97720825Y-79500006D01*
X96129000Y-80514000D02*
X96706831Y-80514000D01*
X87965206Y-82089000D02*
X87527103Y-82527103D01*
X97693000Y-82089000D02*
X87965206Y-82089000D01*
X85480000Y-78990000D02*
X85510000Y-78960000D01*
X85480000Y-80310000D02*
X85480000Y-78990000D01*
X94105000Y-81270000D02*
X96230989Y-81270000D01*
X96230989Y-81270000D02*
X96299999Y-81339010D01*
X97514694Y-80690000D02*
X96865684Y-81339010D01*
X98169000Y-80690000D02*
X97514694Y-80690000D01*
X96865684Y-81339010D02*
X96299999Y-81339010D01*
X98493000Y-81014000D02*
X98169000Y-80690000D01*
X98493000Y-82089000D02*
X98493000Y-81014000D01*
X107524000Y-80524000D02*
X108750000Y-81750000D01*
X104891000Y-80524000D02*
X107524000Y-80524000D01*
X108375000Y-81375000D02*
X108750000Y-81750000D01*
X108375000Y-79840000D02*
X108375000Y-81375000D01*
X96129000Y-76516000D02*
X94234000Y-76516000D01*
X94234000Y-76516000D02*
X93500000Y-77250000D01*
X98405000Y-97010000D02*
X98000000Y-96605000D01*
X97750000Y-91750000D02*
X95986955Y-91750000D01*
X98000000Y-92000000D02*
X97750000Y-91750000D01*
X95986955Y-91750000D02*
X92574999Y-88338044D01*
X92574999Y-88338044D02*
X92574999Y-84425001D01*
X98000000Y-96605000D02*
X98000000Y-92000000D01*
X92574999Y-84425001D02*
X93500000Y-83500000D01*
X93792157Y-78000000D02*
X92750000Y-78000000D01*
X94476157Y-77316000D02*
X93792157Y-78000000D01*
X95518315Y-77316000D02*
X94476157Y-77316000D01*
X92124988Y-83106962D02*
X92417940Y-82814010D01*
X97135000Y-96760000D02*
X97135000Y-93635000D01*
X97135000Y-93635000D02*
X92124988Y-88624988D01*
X92124988Y-88624988D02*
X92124988Y-83106962D01*
X102456000Y-62043500D02*
X103250000Y-62837500D01*
X102456000Y-60000000D02*
X102456000Y-62043500D01*
X103156000Y-62743500D02*
X103250000Y-62837500D01*
X103156000Y-60000000D02*
X103156000Y-62743500D01*
X104750000Y-66829000D02*
X99303000Y-72276000D01*
X103664496Y-62837500D02*
X104750000Y-63923004D01*
X103250000Y-62837500D02*
X103664496Y-62837500D01*
X104750000Y-63923004D02*
X104750000Y-66829000D01*
X99303000Y-72276000D02*
X99303000Y-73351000D01*
X101756000Y-62831500D02*
X101750000Y-62837500D01*
X101756000Y-60000000D02*
X101756000Y-62831500D01*
X102562510Y-63650010D02*
X101750000Y-62837500D01*
X103650010Y-63650010D02*
X102562510Y-63650010D01*
X104050010Y-64050010D02*
X103650010Y-63650010D01*
X104050010Y-66324990D02*
X104050010Y-64050010D01*
X97703000Y-72672000D02*
X104050010Y-66324990D01*
X97703000Y-73351000D02*
X97703000Y-72672000D01*
X107356000Y-62837500D02*
X106556000Y-63637500D01*
X107356000Y-60250000D02*
X107356000Y-62837500D01*
X97687490Y-104774990D02*
X98500000Y-105587500D01*
X96312510Y-104774990D02*
X97687490Y-104774990D01*
X95500000Y-105587500D02*
X96312510Y-104774990D01*
X104135000Y-102490000D02*
X104135000Y-102635000D01*
X106870510Y-106500000D02*
X99412500Y-106500000D01*
X107300010Y-106070500D02*
X106870510Y-106500000D01*
X104135000Y-102635000D02*
X106274990Y-104774990D01*
X106970500Y-104774990D02*
X107300010Y-105104500D01*
X106274990Y-104774990D02*
X106970500Y-104774990D01*
X99412500Y-106500000D02*
X98500000Y-105587500D01*
X107300010Y-105104500D02*
X107300010Y-106070500D01*
X104135000Y-102240000D02*
X104135000Y-102635000D01*
X106451090Y-105587500D02*
X104863590Y-104000000D01*
X104863590Y-104000000D02*
X102781103Y-104000000D01*
X102781103Y-104000000D02*
X102239990Y-103458887D01*
X102239990Y-97885010D02*
X102865000Y-97260000D01*
X102239990Y-103458887D02*
X102239990Y-97885010D01*
X106500000Y-105587500D02*
X106451090Y-105587500D01*
X99691757Y-60035757D02*
X99691757Y-67804818D01*
X99656000Y-60000000D02*
X99691757Y-60035757D01*
X104891000Y-79724000D02*
X103224000Y-79724000D01*
X103224000Y-79724000D02*
X102750000Y-79250000D01*
X103674000Y-78924000D02*
X101500000Y-76750000D01*
X104891000Y-78924000D02*
X103674000Y-78924000D01*
X101500000Y-76750000D02*
X101250000Y-76750000D01*
X98256000Y-60000000D02*
X98256000Y-69300000D01*
X98256000Y-69300000D02*
X98298000Y-69342000D01*
X104891000Y-78124000D02*
X103816000Y-78124000D01*
X103816000Y-78124000D02*
X102000000Y-76308000D01*
X102000000Y-76308000D02*
X102000000Y-76000000D01*
X98956000Y-68476000D02*
X99060000Y-68580000D01*
X98956000Y-60000000D02*
X98956000Y-68476000D01*
X95529000Y-78914000D02*
X96129000Y-78914000D01*
X83063590Y-85325000D02*
X86281692Y-82106898D01*
X86281692Y-82106898D02*
X86285579Y-82106898D01*
X78455000Y-85325000D02*
X83063590Y-85325000D01*
X94693000Y-79750000D02*
X95529000Y-78914000D01*
X86285579Y-82106898D02*
X88642477Y-79750000D01*
X76950000Y-86830000D02*
X78455000Y-85325000D01*
X88642477Y-79750000D02*
X94693000Y-79750000D01*
X95529000Y-79714000D02*
X96129000Y-79714000D01*
X88678886Y-80350001D02*
X94892999Y-80350001D01*
X81642476Y-92297524D02*
X81642476Y-87382524D01*
X86471979Y-82556909D02*
X88678886Y-80350001D01*
X94892999Y-80350001D02*
X95529000Y-79714000D01*
X79490000Y-94450000D02*
X81642476Y-92297524D01*
X81642476Y-87382524D02*
X86468091Y-82556909D01*
X86468091Y-82556909D02*
X86471979Y-82556909D01*
M02*
