G04 #@! TF.GenerationSoftware,KiCad,Pcbnew,(5.1.9-0-10_14)*
G04 #@! TF.CreationDate,2021-04-26T19:25:28+02:00*
G04 #@! TF.ProjectId,Le_kube,4c655f6b-7562-4652-9e6b-696361645f70,rev?*
G04 #@! TF.SameCoordinates,Original*
G04 #@! TF.FileFunction,Soldermask,Bot*
G04 #@! TF.FilePolarity,Negative*
%FSLAX46Y46*%
G04 Gerber Fmt 4.6, Leading zero omitted, Abs format (unit mm)*
G04 Created by KiCad (PCBNEW (5.1.9-0-10_14)) date 2021-04-26 19:25:28*
%MOMM*%
%LPD*%
G01*
G04 APERTURE LIST*
%ADD10R,1.300000X1.950000*%
%ADD11O,3.500000X2.000000*%
%ADD12C,1.600000*%
%ADD13C,1.524000*%
%ADD14R,1.524000X1.524000*%
%ADD15C,0.800000*%
%ADD16R,1.800000X1.800000*%
%ADD17C,1.800000*%
%ADD18O,2.000000X1.300000*%
%ADD19R,1.950000X1.300000*%
%ADD20O,2.000000X1.200000*%
%ADD21C,1.300000*%
G04 APERTURE END LIST*
D10*
X115250000Y-96212000D03*
X115250000Y-81988000D03*
X110250000Y-96212000D03*
X110250000Y-81988000D03*
D11*
X118125000Y-69052000D03*
X118125000Y-82168000D03*
D12*
X115375000Y-72110000D03*
X115375000Y-74610000D03*
X115375000Y-76610000D03*
X115375000Y-79110000D03*
D13*
X117460000Y-59770000D03*
X117460000Y-57230000D03*
X120000000Y-59770000D03*
X120000000Y-57230000D03*
X122540000Y-59770000D03*
D14*
X122540000Y-57230000D03*
D15*
X108000000Y-56900000D03*
X92000000Y-56900000D03*
D16*
X79490000Y-86830000D03*
D17*
X79490000Y-89370000D03*
X79490000Y-91910000D03*
X79490000Y-94450000D03*
X76950000Y-86830000D03*
X76950000Y-89370000D03*
X76950000Y-91910000D03*
X76950000Y-94450000D03*
D10*
X102850000Y-96188000D03*
X102850000Y-81964000D03*
X97850000Y-96188000D03*
X97850000Y-81964000D03*
X90500000Y-96212000D03*
X90500000Y-81988000D03*
X85500000Y-96212000D03*
X85500000Y-81988000D03*
D18*
X78300000Y-75040000D03*
X78300000Y-69960000D03*
D19*
X93388000Y-106500000D03*
X107612000Y-106500000D03*
X93388000Y-101500000D03*
X107612000Y-101500000D03*
D13*
X77825000Y-57700000D03*
X81225000Y-57700000D03*
D20*
X83400000Y-81975000D03*
X83400000Y-79975000D03*
X83400000Y-77975000D03*
D21*
X77500000Y-77975000D03*
X77500000Y-81975000D03*
M02*
